<?xml version="1.0" encoding="utf-8"?>
<!-- Generator: Adobe Illustrator 22.0.0, SVG Export Plug-In . SVG Version: 6.00 Build 0)  -->
<svg version="1.1" id="Layer_1" xmlns="http://www.w3.org/2000/svg" xmlns:xlink="http://www.w3.org/1999/xlink" x="0px" y="0px"
	 viewBox="0 0 512 512" style="enable-background:new 0 0 512 512;" xml:space="preserve">
<style type="text/css">
	.st0{fill:#195F0E;}
</style>
<g>
	<path class="st0" d="M256.5,30c30.5,0,60.1,6,88,17.7c26.9,11.4,51.1,27.7,71.8,48.4s37.1,44.9,48.4,71.8
		c11.8,27.8,17.7,57.4,17.7,88s-6,60.1-17.7,88c-11.4,26.9-27.7,51.1-48.4,71.8s-44.9,37.1-71.8,48.4C316.6,476,287,482,256.5,482
		s-60.1-6-88-17.7c-26.9-11.4-51.1-27.7-71.8-48.4s-37.1-44.9-48.4-71.8c-11.8-27.8-17.7-57.4-17.7-88s6-60.1,17.7-88
		c11.4-26.9,27.7-51.1,48.4-71.8s44.9-37.1,71.8-48.4C196.4,35.9,226,30,256.5,30 M256.5,0C115.1,0,0.5,114.6,0.5,256
		c0,141.4,114.6,256,256,256s256-114.6,256-256C512.5,114.6,397.9,0,256.5,0L256.5,0z"/>
</g>
<g>
	<g>
		<path class="st0" d="M256.7,154.9c-5.9,0-10.9-2-15.1-6c-4.2-4-6.3-8.8-6.3-14.4c0-5.6,2.1-10.4,6.3-14.4c4.2-4,9.3-6,15.1-6
			c5.9,0,10.9,2,15.1,6c4.2,4,6.3,8.8,6.3,14.4c0,5.6-2.1,10.4-6.3,14.4C267.7,152.9,262.6,154.9,256.7,154.9z M241.4,383.8V187.6
			h30.1v196.1H241.4z"/>
	</g>
</g>
</svg>
