<?xml version="1.0" encoding="utf-8"?>
<!-- Generator: Adobe Illustrator 22.0.0, SVG Export Plug-In . SVG Version: 6.00 Build 0)  -->
<svg version="1.1" id="Layer_1" xmlns="http://www.w3.org/2000/svg" xmlns:xlink="http://www.w3.org/1999/xlink" x="0px" y="0px"
	 viewBox="0 0 937.7 336" style="enable-background:new 0 0 937.7 336;" xml:space="preserve">
<style type="text/css">
	.st0{fill:#603813;}
	.st1{fill:none;stroke:#603813;stroke-width:7;stroke-linecap:round;stroke-miterlimit:10;}
	.st2{fill:#195F0E;}
</style>
<path class="st0" d="M946,114.3c-37.8,32.3-99.1,62.5-175.2,63c-95,0.5-119.5-52.1-221.7-63c-114.1-12.1-138.6,56.9-276,65.6
	C118.4,189.7,1.1,110.2,0,112.4c-1.1,2.2,117.9,91.1,271.8,83.9C405.4,190,429.3,121.1,544,133c100.9,10.5,124.3,67.4,222.6,71
	c80.1,2.9,146.3-34.1,187-62.7"/>
<line class="st1" x1="226.8" y1="115.7" x2="266.6" y2="186.3"/>
<line class="st1" x1="332.6" y1="243.3" x2="400.4" y2="158.2"/>
<line class="st1" x1="482.3" y1="53.3" x2="538.4" y2="120.5"/>
<line class="st1" x1="599.2" y1="252.7" x2="675.8" y2="170"/>
<line class="st1" x1="724.3" y1="78.4" x2="807.9" y2="184.2"/>
<line class="st1" x1="91.2" y1="219.5" x2="182.9" y2="182.9"/>
<g>
	<path class="st2" d="M242.8,146.6c0,0-52.3,35.3-44.6-93.3"/>
	<path class="st2" d="M242.8,146.6c0,0,53.4-33-44.6-93.3"/>
</g>
<g>
	<path class="st2" d="M503.9,80.6c0,0-60.2,69.5-72.2-77.5"/>
	<path class="st2" d="M503.9,80.6c0,0,51.9-47.3-72.2-77.5"/>
</g>
<g>
	<path class="st2" d="M747.1,108.3c0,0,55.9-57.6-86.5-108.3"/>
	<path class="st2" d="M747.1,108.3c0,0-53.8,60.3-86.5-108.3"/>
</g>
<g>
	<path class="st2" d="M366.9,205.7c0,0,58.8,57.4-73.3,97.9"/>
	<path class="st2" d="M366.9,205.7c0,0-57-59.8-73.3,97.9"/>
</g>
<g>
	<path class="st2" d="M124.5,205.9c0,0,21.4,65.6-87.2,36"/>
	<path class="st2" d="M124.5,205.9c0,0-19.2-66.5-87.2,36"/>
</g>
<g>
	<path class="st2" d="M636.6,204.9c0,0-78.7-95.7-112.6,129.7"/>
	<path class="st2" d="M636.6,204.9c0,0,81.4,92.5-112.6,129.7"/>
</g>
</svg>
