<?xml version="1.0" encoding="utf-8"?>
<!-- Generator: Adobe Illustrator 22.0.0, SVG Export Plug-In . SVG Version: 6.00 Build 0)  -->
<svg version="1.1" id="Layer_1" xmlns="http://www.w3.org/2000/svg" xmlns:xlink="http://www.w3.org/1999/xlink" x="0px" y="0px"
	 viewBox="0 0 458 429" style="enable-background:new 0 0 458 429;" xml:space="preserve">
<style type="text/css">
	.st0{fill:#954F27;}
	.st1{opacity:0.5;fill:#FFFFFF;enable-background:new    ;}
	.st2{opacity:0.3;fill:#FFFFFF;enable-background:new    ;}
	.st3{fill:#2E353A;stroke:#2E353A;stroke-linecap:round;stroke-linejoin:round;}
	.st4{fill:none;stroke:#FFFFFF;stroke-width:0.5;stroke-linecap:round;stroke-linejoin:round;}
	.st5{fill:#954F27;stroke:#2E353A;stroke-linecap:round;stroke-linejoin:round;}
	.st6{fill:#FFFFFF;stroke:#2E353A;stroke-linecap:round;stroke-linejoin:round;}
	.st7{fill:none;stroke:#2E353A;stroke-width:2;stroke-linecap:round;stroke-linejoin:round;}
	.st8{fill:#FFFFFF;}
	.st9{fill:none;stroke:#2E353A;stroke-linecap:round;stroke-linejoin:round;}
	.st10{fill:none;stroke:#2E353A;stroke-width:0.5;stroke-linecap:round;stroke-linejoin:round;}
</style>
<g>
	<g id="freepik--Shadow--inject-7">
		<rect x="41.4" y="363.9" class="st0" width="390" height="16"/>
		<rect x="41.4" y="363.9" class="st1" width="390" height="16"/>
	</g>
	<g id="freepik--Plants--inject-7">
		<path class="st0" d="M133.3,191.8c-1.9,0.6-3.8,1.3-5.6,2.2c1-0.7,2-1.5,3-2.3c4.5-3.6,8.7-7.4,12.7-11.5
			c-4.7,4.6-9.7,8.8-15,12.6c0.7-1.3,1.4-2.6,1.9-3.9c1-2.5,1.2-5-1.2-6.3c-2.9-1.6-6.5,0.8-5.5,5c0.6,2.3,1.7,4.5,3.2,6.4
			c-3.5,2.4-7.1,4.6-10.8,6.5l-0.4,0.2c0.8-1.4,1.5-2.8,2.1-4.3c0.9-2.5,1.2-5-1.2-6.3c-2.9-1.6-6.5,0.8-5.5,5
			c0.6,2.3,1.6,4.5,3.2,6.3c-4.5,2.2-9.1,4.1-13.8,6.1l-0.7,0.3c0.9-1,1.7-2,2.5-3.1c1.5-2.2,2.3-4.6,0.3-6.4
			c-2.5-2.3-6.5-0.7-6.6,3.6c0,2.4,0.6,4.7,1.6,6.9c-4.3,2-8.4,4.5-12.3,7.3l-0.1,0.1c0.5-0.8,1-1.7,1.4-2.5
			c1.1-2.4,1.6-4.9-0.7-6.4c-1.7-1.2-4-0.7-5.2,1c-0.2,0.2-0.3,0.5-0.4,0.8c-0.3-0.5-0.7-0.9-1.2-1.1c-2.3-1.3-4.5,0.1-6.5,2.1
			c-0.5,0.5-1,1.1-1.4,1.7c1.5-4.1,3.4-8.1,5.6-11.9c2.1,0.9,4.4,1.4,6.7,1.4c4.6,0,6.5-3.8,4.2-6.2c-1.8-1.9-4.4-1.2-6.8,0.2
			c-0.8,0.5-1.6,1-2.3,1.5c2.3-3.5,4.9-6.8,7.9-9.8c1.9,1.5,4.1,2.7,6.5,3.3c4.4,1.1,7.2-2.1,5.6-4.9c-1.3-2.3-4-2.2-6.7-1.4
			c-1.3,0.4-2.5,0.8-3.7,1.4c1.2-1.2,2.5-2.3,3.7-3.4c1.7-1.4,3.4-2.8,5.1-4.1c1.9,1.5,4.1,2.6,6.4,3.2c4.4,1.1,7.2-2.1,5.6-4.9
			c-1.3-2.3-4-2.2-6.7-1.4c-0.6,0.2-1.3,0.4-1.9,0.6c2.3-1.6,4.7-3.3,7-4.9l2.2-1.5c2,1.6,4.3,2.8,6.7,3.5c4.4,1.1,7.2-2.1,5.6-4.9
			c-1.3-2.3-4-2.2-6.7-1.4c-1,0.3-2.1,0.7-3.1,1.1l0,0l1.3-1c0.8-0.6,1.6-1.2,2.4-1.8c1-0.8,1.9-1.6,2.9-2.4
			c0.6-0.4,1.1-0.9,1.6-1.4c2,1.7,4.3,2.8,6.8,3.5c4.4,1.1,7.2-2.1,5.6-4.9c-1.3-2.3-4-2.2-6.6-1.4c-1.5,0.5-2.9,1-4.4,1.6l0,0
			c1.8-1.7,3.6-3.4,5.2-5.3c0.1-0.1,0.2-0.3,0.3-0.4c0.7-0.8,1.4-1.6,2.1-2.4s1.6-1.9,2.3-2.9c3-4,5.5-8.4,7.4-13
			c-2,4.6-4.6,8.9-7.7,12.8c-3.1,3.9-6.5,7.6-10.3,10.9l-0.4,0.4c0.9-1.5,1.6-3,2.3-4.5c0.9-2.5,1.2-5-1.2-6.3
			c-2.9-1.6-6.5,0.8-5.5,5c0.6,2.5,1.8,4.8,3.5,6.7l-0.9,0.8l-1,0.9c-0.6,0.5-1.2,0.9-1.8,1.4c-0.3,0.2-0.6,0.5-1,0.7
			c-0.9,0.6-1.7,1.2-2.6,1.8l-1.3,0.9l-1.4,1c0.8-1.4,1.6-2.9,2.2-4.4c0.9-2.5,1.2-5-1.2-6.3c-2.9-1.6-6.5,0.8-5.5,5
			c0.6,2.4,1.7,4.6,3.3,6.5l-1,0.7l-3.9,2.6l-0.8,0.5l-2.2,1.4l-0.9,0.6c-1,0.7-2,1.4-3,2.1c0.8-1.4,1.5-2.9,2.1-4.5
			c1-2.5,1.2-5-1.2-6.3c-2.9-1.6-6.5,0.8-5.5,5c0.6,2.4,1.8,4.7,3.4,6.6c-1.7,1.3-3.4,2.5-5,3.9c-1.2,1-2.4,2-3.5,3.1
			c0.5-0.9,0.9-1.9,1.3-2.9c0.9-2.5,1.2-5-1.2-6.3c-2.9-1.6-6.5,0.8-5.5,5c0.6,2.3,1.6,4.5,3.2,6.3c-3.2,3.2-6.2,6.7-8.7,10.5
			c0.3-1.1,0.5-2.2,0.7-3.3c0.3-2.6-0.1-5.1-2.7-5.8c-3.2-0.9-6.1,2.4-4.2,6.2c1.1,2.1,2.7,4,4.6,5.4c-2.5,4.1-4.6,8.5-6.3,13
			c0-0.9-0.1-1.9-0.3-2.8c-0.4-2.6-1.5-4.9-4.2-4.9c-3.4,0.1-5.2,4-2.2,7.1c1.6,1.6,3.5,2.9,5.6,3.7c-1.1,3.5-2.1,7.1-2.8,10.7
			c-0.1,0.6-0.2,1.1-0.3,1.7c-0.1,0.1-0.2,0.2-0.3,0.3c-0.1-0.5-0.3-1-0.4-1.5c-0.8-2.5-2.2-4.6-4.9-4.1c-3.3,0.6-4.5,4.7-1.1,7.4
			c1.7,1.3,3.7,2.3,5.8,2.7c0,0.1,0.1,0.2,0.1,0.3c-0.4,2.7-0.7,5.4-0.8,8.2c-0.1,2-0.2,4.1-0.2,6.1c-2.9,0-4.9,3.1-2.9,6.5
			c0.8,1.4,1.9,2.7,3.2,3.7c0.2,3.9,0.6,7.7,1.1,11.5c-0.8-0.8-2-1-3.1-0.7c-1.8,0.5-2.6,1.9-2.9,3.7c-0.6,0.7-1,1.5-1,2.5
			c-1.3-2-2.6-4-3.8-6.1c1.9-1.4,3.4-3.3,4.6-5.3c2.2-4-0.3-7.5-3.4-6.7c-2.6,0.7-3.1,3.3-3,6.1c0,1.1,0.1,2.1,0.3,3.2l-1.3-2.3
			c-1.1-2-2-4-3.1-6c-0.3-0.5-0.5-1-0.7-1.5c2.1-1.1,4-2.5,5.5-4.4c2.9-3.5,1.1-7.4-2.1-7.2c-2.6,0.2-3.7,2.7-4.1,5.4
			c-0.2,1.2-0.3,2.4-0.3,3.6l-0.9-2.2c-2-4.9-3.6-10-4.9-15.1c2.4-0.8,4.6-2.2,6.3-4c3.2-3.3,1.9-7.3-1.4-7.4
			c-2.6-0.1-3.9,2.3-4.7,5c-0.4,1.4-0.6,2.9-0.8,4.4c-0.7-3-1.3-6-1.8-9c-0.3-1.9-0.6-3.8-0.8-5.6c2.6-0.5,5-1.6,7.1-3.2
			c3.6-2.8,2.8-7-0.4-7.5c-2.6-0.4-4.2,1.7-5.3,4.3c-0.6,1.6-1.1,3.3-1.6,5c-0.2-2.2-0.4-4.4-0.5-6.6c-0.3-4.5-0.3-9.1,0-13.6
			c-0.5,4.5-0.6,9.1-0.5,13.6c0,2.1,0.2,4.2,0.3,6.3c-0.6-1.4-1.2-2.8-2-4.1c-1.4-2.3-3.2-4-5.7-3c-3.1,1.3-3.4,5.6,0.5,7.5
			c2.3,1.1,4.8,1.5,7.3,1.4c0.2,1.9,0.3,3.7,0.6,5.6c0.4,3,0.9,5.9,1.5,8.8c-0.6-1.1-1.4-2.2-2.1-3.2c-1.7-2.1-3.7-3.6-6-2.2
			c-2.9,1.7-2.6,6,1.5,7.3c2.3,0.7,4.8,0.9,7.2,0.5c1.1,5.2,2.6,10.3,4.5,15.4l0.6,1.5c-0.5-0.7-1.1-1.4-1.7-2
			c-1.8-1.9-4-3.2-6.2-1.6c-2.7,2-2,6.2,2.2,7.1c2.3,0.5,4.7,0.4,7-0.2c0.2,0.5,0.4,1,0.7,1.5c1,2.1,1.9,4.2,2.9,6.2l0.9,1.7
			c-0.5-0.5-1.1-0.9-1.6-1.3c-2.2-1.5-4.5-2.4-6.4-0.4c-2.3,2.4-0.8,6.5,3.5,6.6c2.2,0.1,4.5-0.4,6.5-1.3c1.2,2.2,2.5,4.5,3.9,6.6
			c0.5,0.8,1,1.6,1.6,2.5c-0.8-0.7-1.6-1.4-2.5-2c-2.2-1.5-4.5-2.4-6.4-0.4c-2.3,2.4-0.8,6.5,3.5,6.6c2.5,0,4.9-0.5,7.1-1.6
			c0.7,1,1.5,2,2.2,3c-1.6,1.9-1.1,5,2.2,6.4c1.6,0.7,3.3,1,5,1.1c0.2,0.2,0.4,0.3,0.6,0.5l0.1,0.1c2.1,7.7,4.5,15.3,7.3,22.8
			c1.2,3.2,2.5,6.4,3.8,9.5h-12v47.3h36.7v-47.4H85.1c-1.7-3.6-3.3-7.3-4.8-11.1c-2.4-6.1-4.7-12.3-6.6-18.6l0,0
			c0.3,0.1,0.7,0.2,1,0.2c0.4,0.1,0.9,0.1,1.3,0.1l-0.5-3.3h-0.3c-0.2,0-0.4-0.1-0.6-0.1c-0.5-0.1-0.9-0.3-1.3-0.5l-0.5-0.2
			c1.9-0.7,3.7-1.7,5.3-3c3.5-3,2.5-7.1-0.8-7.5c-2.6-0.3-4.1,1.9-5,4.6c-0.3,0.8-0.5,1.5-0.7,2.3c-0.2-0.7-0.4-1.4-0.6-2.1
			c-0.5-2.1-1-4.2-1.5-6.3c2.1-0.7,4-1.7,5.7-3.1c3.5-3,2.5-7.1-0.8-7.4c-2.6-0.3-4.1,1.9-5,4.6c-0.3,0.8-0.5,1.5-0.7,2.3
			c-0.3-1.5-0.6-3-0.9-4.6c-0.2-1.1-0.4-2.3-0.5-3.4c-0.1-1.6-0.1-3.2-0.1-4.9c0-0.9,0-1.8,0.1-2.7c2,0.6,4,0.9,6.1,0.8
			c4.6-0.3,6.2-4.2,3.9-6.4c-1.9-1.8-4.4-0.9-6.8,0.6c-1,0.7-2,1.5-3,2.3c0.3-3.8,0.9-7.6,1.7-11.3c0.5-2.2,1.1-4.3,1.9-6.5
			c2.1,0.7,4.3,1,6.5,0.9c4.6-0.3,6.2-4.2,3.9-6.4c-1.9-1.8-4.4-0.9-6.8,0.6c-0.8,0.6-1.6,1.2-2.3,1.8c0.9-2.1,1.9-4.1,3.1-6
			c2.3-3.9,5.2-7.4,8.5-10.4c1.7,1.6,3.8,2.8,6.1,3.6c4.3,1.4,7.3-1.6,6-4.5c-1.1-2.4-3.8-2.5-6.5-1.9c-1.1,0.2-2.1,0.5-3.1,0.9
			l0.1-0.1c3.7-2.9,7.8-5.4,12-7.5c1.5,2,3.4,3.6,5.6,4.7c4.1,2.1,7.5-0.4,6.6-3.5c-0.7-2.5-3.3-3.1-6.1-3c-1.1,0.1-2.2,0.2-3.3,0.4
			c4.5-2.1,9.1-4.1,13.6-6.5l0,0h0.1c2,1.7,4.3,2.9,6.9,3.6c4.4,1.1,7.2-2.1,5.6-5c-1.3-2.3-4-2.2-6.6-1.4c-0.8,0.2-1.5,0.5-2.2,0.8
			c3-1.7,5.8-3.6,8.6-5.6l0.2,0.3v-0.1c2,1.7,4.4,3,6.9,3.6c4.4,1.1,7.2-2.1,5.6-5C138.7,190.9,136,191,133.3,191.8z M63.4,282.4
			c-0.9-1.1-1.8-2.2-2.6-3.3c0.2-0.2,0.4-0.4,0.6-0.6c1.2,0.4,2.5,0.6,3.8,0.7v0.2l0.6-0.1c0.3,1.6,0.7,3.1,1,4.7
			C66.1,282.9,64.8,282.3,63.4,282.4z M66.7,244.7c-0.3,1.2-0.6,2.4-0.8,3.5l-0.2-0.2c0-2.4,0-4.9,0.1-7.3c0.1-1.7,0.2-3.4,0.3-5.1
			c0.8,0.8,1.7,1.6,2.7,2.3C68,240.2,67.3,242.4,66.7,244.7L66.7,244.7z M70.8,233.5c0.1-0.4,0.1-0.9,0.1-1.3v-0.7
			c0.4-0.1,0.7-0.2,1.1-0.4C71.6,231.9,71.2,232.7,70.8,233.5L70.8,233.5z M76,225.1c-0.3-0.8-1-1.4-1.8-1.7c-2.5-1-4.5,0.8-6.1,3.1
			l-0.1,0.1h-0.2c-0.2,0-0.3-0.1-0.5-0.1c0-0.1,0-0.3,0.1-0.4c0.6-3.6,1.5-7.2,2.6-10.7c2.3,0.3,4.6,0.1,6.8-0.5
			c1.4-0.4,2.6-1.2,3.4-2.4c0.4,2,1.3,3.9,2.5,5.6C80.2,220.2,78,222.5,76,225.1L76,225.1z"/>
		<path class="st2" d="M133.3,191.8c-1.9,0.6-3.8,1.3-5.6,2.2c1-0.7,2-1.5,3-2.3c4.5-3.6,8.7-7.4,12.7-11.5
			c-4.7,4.6-9.7,8.8-15,12.6c0.7-1.3,1.4-2.6,1.9-3.9c1-2.5,1.2-5-1.2-6.3c-2.9-1.6-6.5,0.8-5.5,5c0.6,2.3,1.7,4.5,3.2,6.4
			c-3.5,2.4-7.1,4.6-10.8,6.5l-0.4,0.2c0.8-1.4,1.5-2.8,2.1-4.3c0.9-2.5,1.2-5-1.2-6.3c-2.9-1.6-6.5,0.8-5.5,5
			c0.6,2.3,1.6,4.5,3.2,6.3c-4.5,2.2-9.1,4.1-13.8,6.1l-0.7,0.3c0.9-1,1.7-2,2.5-3.1c1.5-2.2,2.3-4.6,0.3-6.4
			c-2.5-2.3-6.5-0.7-6.6,3.6c0,2.4,0.6,4.7,1.6,6.9c-4.3,2-8.4,4.5-12.3,7.3l-0.1,0.1c0.5-0.8,1-1.7,1.4-2.5
			c1.1-2.4,1.6-4.9-0.7-6.4c-1.7-1.2-4-0.7-5.2,1c-0.2,0.2-0.3,0.5-0.4,0.8c-0.3-0.5-0.7-0.9-1.2-1.1c-2.3-1.3-4.5,0.1-6.5,2.1
			c-0.5,0.5-1,1.1-1.4,1.7c1.5-4.1,3.4-8.1,5.6-11.9c2.1,0.9,4.4,1.4,6.7,1.4c4.6,0,6.5-3.8,4.2-6.2c-1.8-1.9-4.4-1.2-6.8,0.2
			c-0.8,0.5-1.6,1-2.3,1.5c2.3-3.5,4.9-6.8,7.9-9.8c1.9,1.5,4.1,2.7,6.5,3.3c4.4,1.1,7.2-2.1,5.6-4.9c-1.3-2.3-4-2.2-6.7-1.4
			c-1.3,0.4-2.5,0.8-3.7,1.4c1.2-1.2,2.5-2.3,3.7-3.4c1.7-1.4,3.4-2.8,5.1-4.1c1.9,1.5,4.1,2.6,6.4,3.2c4.4,1.1,7.2-2.1,5.6-4.9
			c-1.3-2.3-4-2.2-6.7-1.4c-0.6,0.2-1.3,0.4-1.9,0.6c2.3-1.6,4.7-3.3,7-4.9l2.2-1.5c2,1.6,4.3,2.8,6.7,3.5c4.4,1.1,7.2-2.1,5.6-4.9
			c-1.3-2.3-4-2.2-6.7-1.4c-1,0.3-2.1,0.7-3.1,1.1l0,0l1.3-1c0.8-0.6,1.6-1.2,2.4-1.8c1-0.8,1.9-1.6,2.9-2.4
			c0.6-0.4,1.1-0.9,1.6-1.4c2,1.7,4.3,2.8,6.8,3.5c4.4,1.1,7.2-2.1,5.6-4.9c-1.3-2.3-4-2.2-6.6-1.4c-1.5,0.5-2.9,1-4.4,1.6l0,0
			c1.8-1.7,3.6-3.4,5.2-5.3c0.1-0.1,0.2-0.3,0.3-0.4c0.7-0.8,1.4-1.6,2.1-2.4s1.6-1.9,2.3-2.9c3-4,5.5-8.4,7.4-13
			c-2,4.6-4.6,8.9-7.7,12.8c-3.1,3.9-6.5,7.6-10.3,10.9l-0.4,0.4c0.9-1.5,1.6-3,2.3-4.5c0.9-2.5,1.2-5-1.2-6.3
			c-2.9-1.6-6.5,0.8-5.5,5c0.6,2.5,1.8,4.8,3.5,6.7l-0.9,0.8l-1,0.9c-0.6,0.5-1.2,0.9-1.8,1.4c-0.3,0.2-0.6,0.5-1,0.7
			c-0.9,0.6-1.7,1.2-2.6,1.8l-1.3,0.9l-1.4,1c0.8-1.4,1.6-2.9,2.2-4.4c0.9-2.5,1.2-5-1.2-6.3c-2.9-1.6-6.5,0.8-5.5,5
			c0.6,2.4,1.7,4.6,3.3,6.5l-1,0.7l-3.9,2.6l-0.8,0.5l-2.2,1.4l-0.9,0.6c-1,0.7-2,1.4-3,2.1c0.8-1.4,1.5-2.9,2.1-4.5
			c1-2.5,1.2-5-1.2-6.3c-2.9-1.6-6.5,0.8-5.5,5c0.6,2.4,1.8,4.7,3.4,6.6c-1.7,1.3-3.4,2.5-5,3.9c-1.2,1-2.4,2-3.5,3.1
			c0.5-0.9,0.9-1.9,1.3-2.9c0.9-2.5,1.2-5-1.2-6.3c-2.9-1.6-6.5,0.8-5.5,5c0.6,2.3,1.6,4.5,3.2,6.3c-3.2,3.2-6.2,6.7-8.7,10.5
			c0.3-1.1,0.5-2.2,0.7-3.3c0.3-2.6-0.1-5.1-2.7-5.8c-3.2-0.9-6.1,2.4-4.2,6.2c1.1,2.1,2.7,4,4.6,5.4c-2.5,4.1-4.6,8.5-6.3,13
			c0-0.9-0.1-1.9-0.3-2.8c-0.4-2.6-1.5-4.9-4.2-4.9c-3.4,0.1-5.2,4-2.2,7.1c1.6,1.6,3.5,2.9,5.6,3.7c-1.1,3.5-2.1,7.1-2.8,10.7
			c-0.1,0.6-0.2,1.1-0.3,1.7c-0.1,0.1-0.2,0.2-0.3,0.3c-0.1-0.5-0.3-1-0.4-1.5c-0.8-2.5-2.2-4.6-4.9-4.1c-3.3,0.6-4.5,4.7-1.1,7.4
			c1.7,1.3,3.7,2.3,5.8,2.7c0,0.1,0.1,0.2,0.1,0.3c-0.4,2.7-0.7,5.4-0.8,8.2c-0.1,2-0.2,4.1-0.2,6.1c-2.9,0-4.9,3.1-2.9,6.5
			c0.8,1.4,1.9,2.7,3.2,3.7c0.2,3.9,0.6,7.7,1.1,11.5c-0.8-0.8-2-1-3.1-0.7c-1.8,0.5-2.6,1.9-2.9,3.7c-0.6,0.7-1,1.5-1,2.5
			c-1.3-2-2.6-4-3.8-6.1c1.9-1.4,3.4-3.3,4.6-5.3c2.2-4-0.3-7.5-3.4-6.7c-2.6,0.7-3.1,3.3-3,6.1c0,1.1,0.1,2.1,0.3,3.2l-1.3-2.3
			c-1.1-2-2-4-3.1-6c-0.3-0.5-0.5-1-0.7-1.5c2.1-1.1,4-2.5,5.5-4.4c2.9-3.5,1.1-7.4-2.1-7.2c-2.6,0.2-3.7,2.7-4.1,5.4
			c-0.2,1.2-0.3,2.4-0.3,3.6l-0.9-2.2c-2-4.9-3.6-10-4.9-15.1c2.4-0.8,4.6-2.2,6.3-4c3.2-3.3,1.9-7.3-1.4-7.4
			c-2.6-0.1-3.9,2.3-4.7,5c-0.4,1.4-0.6,2.9-0.8,4.4c-0.7-3-1.3-6-1.8-9c-0.3-1.9-0.6-3.8-0.8-5.6c2.6-0.5,5-1.6,7.1-3.2
			c3.6-2.8,2.8-7-0.4-7.5c-2.6-0.4-4.2,1.7-5.3,4.3c-0.6,1.6-1.1,3.3-1.6,5c-0.2-2.2-0.4-4.4-0.5-6.6c-0.3-4.5-0.3-9.1,0-13.6
			c-0.5,4.5-0.6,9.1-0.5,13.6c0,2.1,0.2,4.2,0.3,6.3c-0.6-1.4-1.2-2.8-2-4.1c-1.4-2.3-3.2-4-5.7-3c-3.1,1.3-3.4,5.6,0.5,7.5
			c2.3,1.1,4.8,1.5,7.3,1.4c0.2,1.9,0.3,3.7,0.6,5.6c0.4,3,0.9,5.9,1.5,8.8c-0.6-1.1-1.4-2.2-2.1-3.2c-1.7-2.1-3.7-3.6-6-2.2
			c-2.9,1.7-2.6,6,1.5,7.3c2.3,0.7,4.8,0.9,7.2,0.5c1.1,5.2,2.6,10.3,4.5,15.4l0.6,1.5c-0.5-0.7-1.1-1.4-1.7-2
			c-1.8-1.9-4-3.2-6.2-1.6c-2.7,2-2,6.2,2.2,7.1c2.3,0.5,4.7,0.4,7-0.2c0.2,0.5,0.4,1,0.7,1.5c1,2.1,1.9,4.2,2.9,6.2l0.9,1.7
			c-0.5-0.5-1.1-0.9-1.6-1.3c-2.2-1.5-4.5-2.4-6.4-0.4c-2.3,2.4-0.8,6.5,3.5,6.6c2.2,0.1,4.5-0.4,6.5-1.3c1.2,2.2,2.5,4.5,3.9,6.6
			c0.5,0.8,1,1.6,1.6,2.5c-0.8-0.7-1.6-1.4-2.5-2c-2.2-1.5-4.5-2.4-6.4-0.4c-2.3,2.4-0.8,6.5,3.5,6.6c2.5,0,4.9-0.5,7.1-1.6
			c0.7,1,1.5,2,2.2,3c-1.6,1.9-1.1,5,2.2,6.4c1.6,0.7,3.3,1,5,1.1c0.2,0.2,0.4,0.3,0.6,0.5l0.1,0.1c2.1,7.7,4.5,15.3,7.3,22.8
			c1.2,3.2,2.5,6.4,3.8,9.5h-12v47.3h36.7v-47.4H85.1c-1.7-3.6-3.3-7.3-4.8-11.1c-2.4-6.1-4.7-12.3-6.6-18.6l0,0
			c0.3,0.1,0.7,0.2,1,0.2c0.4,0.1,0.9,0.1,1.3,0.1l-0.5-3.3h-0.3c-0.2,0-0.4-0.1-0.6-0.1c-0.5-0.1-0.9-0.3-1.3-0.5l-0.5-0.2
			c1.9-0.7,3.7-1.7,5.3-3c3.5-3,2.5-7.1-0.8-7.5c-2.6-0.3-4.1,1.9-5,4.6c-0.3,0.8-0.5,1.5-0.7,2.3c-0.2-0.7-0.4-1.4-0.6-2.1
			c-0.5-2.1-1-4.2-1.5-6.3c2.1-0.7,4-1.7,5.7-3.1c3.5-3,2.5-7.1-0.8-7.4c-2.6-0.3-4.1,1.9-5,4.6c-0.3,0.8-0.5,1.5-0.7,2.3
			c-0.3-1.5-0.6-3-0.9-4.6c-0.2-1.1-0.4-2.3-0.5-3.4c-0.1-1.6-0.1-3.2-0.1-4.9c0-0.9,0-1.8,0.1-2.7c2,0.6,4,0.9,6.1,0.8
			c4.6-0.3,6.2-4.2,3.9-6.4c-1.9-1.8-4.4-0.9-6.8,0.6c-1,0.7-2,1.5-3,2.3c0.3-3.8,0.9-7.6,1.7-11.3c0.5-2.2,1.1-4.3,1.9-6.5
			c2.1,0.7,4.3,1,6.5,0.9c4.6-0.3,6.2-4.2,3.9-6.4c-1.9-1.8-4.4-0.9-6.8,0.6c-0.8,0.6-1.6,1.2-2.3,1.8c0.9-2.1,1.9-4.1,3.1-6
			c2.3-3.9,5.2-7.4,8.5-10.4c1.7,1.6,3.8,2.8,6.1,3.6c4.3,1.4,7.3-1.6,6-4.5c-1.1-2.4-3.8-2.5-6.5-1.9c-1.1,0.2-2.1,0.5-3.1,0.9
			l0.1-0.1c3.7-2.9,7.8-5.4,12-7.5c1.5,2,3.4,3.6,5.6,4.7c4.1,2.1,7.5-0.4,6.6-3.5c-0.7-2.5-3.3-3.1-6.1-3c-1.1,0.1-2.2,0.2-3.3,0.4
			c4.5-2.1,9.1-4.1,13.6-6.5l0,0h0.1c2,1.7,4.3,2.9,6.9,3.6c4.4,1.1,7.2-2.1,5.6-5c-1.3-2.3-4-2.2-6.6-1.4c-0.8,0.2-1.5,0.5-2.2,0.8
			c3-1.7,5.8-3.6,8.6-5.6l0.2,0.3v-0.1c2,1.7,4.4,3,6.9,3.6c4.4,1.1,7.2-2.1,5.6-5C138.7,190.9,136,191,133.3,191.8z M63.4,282.4
			c-0.9-1.1-1.8-2.2-2.6-3.3c0.2-0.2,0.4-0.4,0.6-0.6c1.2,0.4,2.5,0.6,3.8,0.7v0.2l0.6-0.1c0.3,1.6,0.7,3.1,1,4.7
			C66.1,282.9,64.8,282.3,63.4,282.4z M66.7,244.7c-0.3,1.2-0.6,2.4-0.8,3.5l-0.2-0.2c0-2.4,0-4.9,0.1-7.3c0.1-1.7,0.2-3.4,0.3-5.1
			c0.8,0.8,1.7,1.6,2.7,2.3C68,240.2,67.3,242.4,66.7,244.7L66.7,244.7z M70.8,233.5c0.1-0.4,0.1-0.9,0.1-1.3v-0.7
			c0.4-0.1,0.7-0.2,1.1-0.4C71.6,231.9,71.2,232.7,70.8,233.5L70.8,233.5z M76,225.1c-0.3-0.8-1-1.4-1.8-1.7c-2.5-1-4.5,0.8-6.1,3.1
			l-0.1,0.1h-0.2c-0.2,0-0.3-0.1-0.5-0.1c0-0.1,0-0.3,0.1-0.4c0.6-3.6,1.5-7.2,2.6-10.7c2.3,0.3,4.6,0.1,6.8-0.5
			c1.4-0.4,2.6-1.2,3.4-2.4c0.4,2,1.3,3.9,2.5,5.6C80.2,220.2,78,222.5,76,225.1L76,225.1z"/>
		<path class="st3" d="M379.9,327.9c0,0-4.8-10.8-6-11.9s-10.4-4.5-13-13s-7.5-31.3,4.9-29.8s9.3,25.3,13.8,24.6s-3.7-38.7,4.1-44
			s20.5-0.4,19,19.8s-4.5,31.7-1.9,30.5s10.1-5.2,10.1,3.4s-7.1,14.5-11.2,14.9s-6,0.8-6,0.8v5.6L379.9,327.9z"/>
		<path class="st4" d="M376,306.9c-2.8-2.7-5.4-5.2-6.6-7.6c-2.4-4.7-4.1-18-4.1-18"/>
		<path class="st4" d="M361.1,287.8c1.9,7.8,2.1,13.6,7.7,20.4c3,3.7,10.9,6.8,11.8,10c0.8,3.9,1.4,7.9,1.8,11.8l4.4,0.3
			c0,0,0.9-7.7-1.6-13.2"/>
		<path class="st4" d="M362.3,275.3c0,0-3.3,2.5-2.1,8.8"/>
		<line class="st4" x1="383.6" y1="298.2" x2="381.8" y2="301.1"/>
		<line class="st4" x1="384.2" y1="297.2" x2="383.6" y2="298.2"/>
		<path class="st4" d="M390.1,254.6c0,0-6.8-0.3-6.8,6.2c0,5.5,1.7,24.2,1.3,32.8"/>
		<path class="st4" d="M395.4,307.9c-0.2,2.2-0.3,3.8-0.3,4.4c0,3.3,8.3-9.2,12.1-9.5c0,0,3.8-0.3,2.4,6.8
			c-1.1,5.4-5.1,9.7-10.3,11.2c-3.3,0.9-5.9-0.6-6.5,0.9c-0.5,1.7-0.8,3.5-0.9,5.3"/>
		<path class="st4" d="M397.4,260.8c0.5,2.1,0.8,4.3,0.7,6.5c0,6.9-1.3,23.2-2.2,34.3"/>
		<path class="st4" d="M393.9,255.3c0.9,0.5,1.6,1.3,2.1,2.2"/>
		<line class="st4" x1="389.1" y1="306.1" x2="388.9" y2="310.2"/>
		<path class="st4" d="M390.7,258.8c0,0-1.8,0.6-1.2,6.8c0.5,5.1,0,28.4-0.2,36.4"/>
		<path class="st4" d="M409.3,304.6c-2.5,4.7-6.6,8.5-11.5,10.6c-8,3.3-8.3,1.8-8.3,5s-0.3,9.2-0.3,9.2"/>
		<polygon class="st5" points="398.2,371.5 372.4,371.5 366.9,334 403.8,334 		"/>
		<rect x="363.7" y="328.1" class="st5" width="43.2" height="10"/>
	</g>
	<g id="freepik--Device--inject-7">
		<path class="st6" d="M256.3,346.3v-20.3h-59.8v20.3c0,6.6-2.3,13-6.4,18.2l-2.6,3.3h77.8l-2.6-3.3
			C258.6,359.3,256.3,352.9,256.3,346.3z"/>
		<path class="st0" d="M192.8,360.5H260c-2.4-4.4-3.7-9.3-3.7-14.2v-20.3h-59.8v20.3C196.5,351.2,195.2,356.1,192.8,360.5z"/>
		<path class="st3" d="M114.6,152h223.5c4.7,0,8.5,3.8,8.5,8.5v163.4c0,4.7-3.8,8.5-8.5,8.5H114.6c-4.7,0-8.5-3.8-8.5-8.5V160.4
			C106.2,155.8,110,152,114.6,152z"/>
		<path class="st6" d="M106.2,304.3h240.5v19.5c0,4.7-3.8,8.5-8.5,8.5c0,0,0,0,0,0H114.7c-4.7,0-8.5-3.8-8.5-8.5l0,0l0,0
			L106.2,304.3L106.2,304.3z"/>
		<rect x="118.3" y="163.2" class="st6" width="216.3" height="127.4"/>
		<path class="st3" d="M230.9,318.3c0-2.5-2-4.4-4.4-4.4s-4.4,2-4.4,4.4s2,4.4,4.4,4.4S230.9,320.8,230.9,318.3L230.9,318.3z"/>
		<rect x="187.5" y="367.8" class="st6" width="77.8" height="3.6"/>
		<rect x="120" y="172.2" class="st6" width="212.6" height="11.2"/>
		<polygon class="st5" points="155,183.3 152.5,176.4 120,176.4 120,183.3 120,192.5 120,285.2 332.6,285.2 332.6,183.3 		"/>
		<line class="st7" x1="177.2" y1="233.8" x2="276.9" y2="233.8"/>
		<line class="st7" x1="177.2" y1="243.6" x2="276.9" y2="243.6"/>
		<line class="st7" x1="177.2" y1="253.4" x2="276.9" y2="253.4"/>
		<line class="st7" x1="177.2" y1="263.3" x2="276.9" y2="263.3"/>
		<path class="st6" d="M271.6,207.7h-90.3c-3.9,0-7.1-3.2-7.1-7.1v0l0,0l0,0c0-3.9,3.2-7.1,7.1-7.1h0h90.4c3.9,0,7.1,3.2,7.1,7.1
			c0,0,0,0,0,0l0,0C278.7,204.6,275.5,207.7,271.6,207.7C271.6,207.7,271.6,207.7,271.6,207.7z"/>
		<path class="st3" d="M271.6,207.7h-12.3v-14.2h12.3c3.9,0,7.1,3.2,7.1,7.1c0,0,0,0,0,0l0,0C278.7,204.5,275.5,207.7,271.6,207.7
			C271.6,207.7,271.6,207.7,271.6,207.7z"/>
		<path class="st8" d="M268.8,195.3c-1.6-1.5-4.2-1.5-5.8,0.2c-1.5,1.6-1.5,4.2,0.2,5.8c1.6,1.5,4.2,1.5,5.8-0.2c0,0,0,0,0,0l0,0
			C270.6,199.5,270.5,196.9,268.8,195.3C268.9,195.4,268.9,195.4,268.8,195.3L268.8,195.3z M268.4,200.5c-1.2,1.3-3.3,1.4-4.6,0.1
			s-1.4-3.3-0.1-4.6c1.2-1.3,3.3-1.4,4.6-0.1C269.6,197.2,269.7,199.2,268.4,200.5L268.4,200.5z"/>
		<path class="st8" d="M271.9,202.6c-0.2-0.2-0.5-0.2-0.7-0.1l-1.5-1.4c-0.2-0.2-0.4-0.2-0.6,0l-0.1,0.1c-0.1,0.2-0.1,0.4,0,0.6
			l1.5,1.4c-0.1,0.3,0,0.5,0.2,0.7l2.5,2.4c0.3,0.3,0.9,0.3,1.2,0l0,0c0.3-0.3,0.3-0.9,0-1.2L271.9,202.6z"/>
	</g>
	<g id="freepik--search-engines--inject-7">
		<path class="st6" d="M297.7,250.5c0.6,1.5,1.7,2.6,3.2,3.2c1.1,0.5,2.6,0.4,4.4,1.3c3.9,2.2,13.7,0.2,20.9,1s16.7-7.1,16.7-7.1
			l28.2,1.5v-28c0,0-29.4,1.2-35.8-1.2s-13.5-7.6-16.7-7.4s-29.4,3.2-29.4,3.2L297.7,250.5L297.7,250.5z"/>
		<path class="st6" d="M290.4,137.6c-16.3,1.8-28,16.4-26.2,32.7s16.4,28,32.7,26.2s28-16.4,26.2-32.7c0,0,0,0,0,0l0,0
			C321.3,147.5,306.7,135.8,290.4,137.6C290.4,137.6,290.4,137.6,290.4,137.6z M296.3,190.7c-13,1.4-24.8-8-26.2-21
			c-1.4-13,8-24.8,21-26.2c13-1.4,24.8,8,26.2,21C318.7,177.5,309.3,189.2,296.3,190.7C296.3,190.7,296.3,190.7,296.3,190.7z"/>
		<path class="st6" d="M290.3,135.9c-16.3,1.8-28,16.4-26.2,32.7s16.4,28,32.7,26.2s28-16.4,26.2-32.7c0,0,0,0,0,0l0,0
			C321.2,145.8,306.5,134.1,290.3,135.9z M296.1,189c-13,1.4-24.8-8-26.2-21c-1.4-13,8-24.8,21-26.2c13-1.4,24.8,8,26.2,21
			C318.6,175.8,309.2,187.5,296.1,189C296.1,189,296.1,189,296.1,189z"/>
		<path class="st5" d="M296.4,195.5l1.4-0.2c1.6-0.2,3,1,3.2,2.5l2.3,20.5c0.2,1.6-1,3-2.5,3.2l-1.4,0.2c-1.6,0.2-3-1-3.2-2.5
			l-2.3-20.5C293.6,197.1,294.8,195.7,296.4,195.5z"/>
		<path class="st3" d="M297.3,212.5l3-0.3c2.7-0.3,5.1,1.6,5.4,4.3l4.5,40.6c0.4,3.5-2.1,6.6-5.6,7h-0.2c-3.5,0.4-6.6-2.1-6.9-5.6
			c0,0,0,0,0,0l-4.5-40.6C292.7,215.2,294.6,212.7,297.3,212.5C297.3,212.4,297.3,212.4,297.3,212.5L297.3,212.5z"/>
		<path class="st6" d="M301.7,246.3c0,0-7.1,0.3-8.1,1.5s-0.8,5.5,1.1,6c4.9,1.3,15.4,0.5,15.8-0.3s1.3-6-0.9-6.5
			C306.9,246.5,304.3,246.3,301.7,246.3z"/>
		<path class="st6" d="M299.6,236.4c0,0-8.3-0.3-9.6,1.2s-1.5,7.1,0.6,7.9c5.6,2.1,18.1,1.3,18.6,0.2s1.8-6.8-0.6-7.7
			S299.6,236.4,299.6,236.4z"/>
		<path class="st6" d="M298.4,225.2c0,0-8.8-0.3-10.2,1.3s-1.6,7.5,0.7,8.4c6,2.3,19,2.3,19.6,1.1s2.3-8.2-0.4-9.1
			S298.4,225.2,298.4,225.2z"/>
		<path class="st6" d="M293.3,214.7c0,0-8.8-0.3-10.2,1.3s-1.7,7.7,0.7,8.4s19,2.3,19.6,1.1s2.3-8.2-0.4-9.2
			S293.3,214.7,293.3,214.7z"/>
		<path class="st6" d="M322.3,244.1c-1.6-0.4-3.1-1.1-4.5-2.1c-7.1-4.9-6.9-16.2-6.9-16.2l-1.7-0.5c-1.4-0.5-2.7-1.3-3.9-2.2
			c0.6,2.3,0.9,4.7,1,7.1c-0.1,2.7-2.2,5-4.9,5.2c-2.2,0.3-3.2,0.5-3.9-2.5s-4.4-14.7-4.7-16.4c-0.2-1.6,2.4-4.3,6.6-5
			c6.4,0.5,12.7,2.3,19.2,2.3c2.2,0.2,4.4,1,6.3,2.3"/>
		<path class="st6" d="M329,244.8c-0.8,0-1.6,0-2.3,0"/>
		<path class="st6" d="M334.3,243.8c-1.7,0.5-3.5,0.9-5.2,1"/>
		<line class="st9" x1="343.1" y1="240.6" x2="351.9" y2="240.6"/>
		<line class="st9" x1="343.8" y1="243.1" x2="347.5" y2="243.1"/>
		<path class="st9" d="M311,225.9c0,0,4.9,0,8.1-2.9"/>
		<path class="st9" d="M305.2,222.9c-0.1-1.3-0.4-2.6-0.8-3.9"/>
		<path class="st10" d="M297.4,231.8c0,0-0.9-2.6,0.2-3.5s4.1-2.3,4.6-1.2s1.6,5.8,1.3,6.7l-0.3,0.9"/>
		<polyline class="st5" points="433,263 348.4,263 348.4,221.5 433,221.5 		"/>
		<circle class="st6" cx="354.6" cy="258.4" r="1.9"/>
		<path class="st6" d="M220.3,181.9c1.5-0.6,2.6-1.7,3.2-3.2c0.5-1.1,0.4-2.6,1.3-4.4c2.2-3.9,0.2-13.7,1-20.9s-7.1-16.7-7.1-16.7
			l1.5-28.2h-28c0,0,1.2,29.4-1.2,35.8s-7.6,13.5-7.4,16.7s3.2,29.4,3.2,29.4L220.3,181.9L220.3,181.9z"/>
		<path class="st6" d="M107.4,189.2c1.8,16.3,16.4,28,32.7,26.2c16.3-1.8,28-16.4,26.2-32.7c-1.8-16.3-16.4-28-32.7-26.2
			c0,0,0,0,0,0h-0.1C117.3,158.3,105.6,172.9,107.4,189.2z M160.4,183.3c1.5,13.1-7.9,24.8-21,26.3c-13.1,1.5-24.8-7.9-26.3-21
			c-1.5-13.1,7.9-24.8,21-26.3l0,0C147.2,160.8,159,170.2,160.4,183.3z"/>
		<path class="st6" d="M105.7,189.4c1.8,16.3,16.4,28,32.7,26.2c16.3-1.8,28-16.4,26.2-32.7c-1.8-16.3-16.4-28-32.7-26.2
			C115.6,158.4,103.9,173.1,105.7,189.4C105.7,189.3,105.7,189.4,105.7,189.4z M158.8,183.5c1.4,13-8,24.8-21,26.2
			c-13,1.4-24.8-8-26.2-21c-1.4-13,8-24.8,21-26.2C145.6,161,157.3,170.4,158.8,183.5C158.8,183.5,158.8,183.5,158.8,183.5z"/>
		<path class="st5" d="M167.7,178.7l20.5-2.3c1.6-0.2,3,1,3.2,2.5l0.2,1.4c0.2,1.6-1,3-2.5,3.2l-20.5,2.3c-1.6,0.2-3-1-3.2-2.5
			l-0.2-1.4C165,180.3,166.1,178.9,167.7,178.7z"/>
		<path class="st3" d="M182.3,182.3l-0.3-3c-0.3-2.7,1.7-5.1,4.4-5.4l40.6-4.5c3.5-0.4,6.6,2.1,7,5.5c0,0,0,0,0,0l0,0v0.2
			c0.4,3.5-2.1,6.6-5.5,7c0,0,0,0,0,0l0,0l-40.6,4.5C185,187,182.6,185,182.3,182.3z"/>
		<path class="st6" d="M216.1,178c0,0,0.3,7.1,1.5,8.1s5.5,0.8,6-1.1c1.3-4.9,0.5-15.4-0.3-15.8s-6-1.3-6.5,0.9
			C216.3,172.7,216.1,175.3,216.1,178z"/>
		<path class="st6" d="M206.2,180c0,0-0.3,8.3,1.2,9.6s7.1,1.6,7.9-0.6c2.1-5.6,1.3-18.1,0.2-18.6s-6.8-1.8-7.7,0.6
			S206.2,180,206.2,180z"/>
		<path class="st6" d="M195,181.2c0,0-0.3,8.8,1.3,10.2s7.6,1.6,8.4-0.7c2.3-5.9,2.3-19,1.1-19.6s-8.2-2.3-9.1,0.4
			S195,181.2,195,181.2z"/>
		<path class="st6" d="M184.5,186.3c0,0-0.3,8.8,1.3,10.2s7.7,1.7,8.4-0.7s2.3-19,1.1-19.6s-8.2-2.2-9.1,0.4
			S184.5,186.3,184.5,186.3z"/>
		<path class="st6" d="M214.5,150.6c0.4,3.9-0.5,7.9-2.7,11.2c-4.9,7.1-16.2,6.9-16.2,6.9l-0.5,1.7c-0.5,1.4-1.3,2.7-2.2,3.9
			c2.3-0.6,4.7-0.9,7.1-1c2.7,0.1,4.9,2.2,5.1,4.9c0.3,2.2,0.5,3.2-2.4,3.9s-14.7,4.4-16.4,4.7c-1.6,0.2-4.3-2.4-5-6.6
			c0.5-6.4,2.3-12.7,2.3-19.2c0.2-2.3,1-4.4,2.3-6.3"/>
		<path class="st6" d="M213.6,145.4c0.3,0.9,0.5,1.9,0.7,2.9"/>
		<line class="st9" x1="210.4" y1="136.5" x2="210.4" y2="127.7"/>
		<line class="st9" x1="212.8" y1="135.8" x2="212.8" y2="132.1"/>
		<path class="st9" d="M195.7,168.7c0,0,0-4.9-2.9-8.1"/>
		<path class="st9" d="M192.7,174.4c-1.3,0.1-2.6,0.4-3.9,0.8"/>
		<path class="st10" d="M201.5,182.2c0,0-2.6,0.9-3.5-0.2s-2.3-4.1-1.2-4.6s5.8-1.6,6.7-1.3l0.9,0.3"/>
		<polyline class="st5" points="232.8,46.6 232.8,131.2 191.3,131.2 191.3,46.6 		"/>
		<circle class="st6" cx="228.1" cy="125" r="1.9"/>
		<path class="st6" d="M178.4,332.5c-0.6,1.5-1.7,2.6-3.2,3.2c-1.1,0.5-2.6,0.4-4.4,1.3c-3.9,2.2-13.7,0.3-20.9,1
			s-16.7-7.1-16.7-7.1l-28.2,1.5v-28c0,0,29.4,1.2,35.8-1.2s13.5-7.6,16.7-7.4s29.4,3.2,29.4,3.2L178.4,332.5z"/>
		<path class="st6" d="M185.7,219.6c16.3,1.8,28,16.4,26.2,32.7c-1.8,16.3-16.4,28-32.7,26.2c-16.3-1.8-28-16.4-26.2-32.7
			c0,0,0,0,0,0l0,0C154.8,229.6,169.4,217.9,185.7,219.6L185.7,219.6z M179.8,272.7c13.1,1.5,24.8-7.9,26.3-21
			c1.5-13.1-7.9-24.8-21-26.3c-13.1-1.5-24.8,7.9-26.3,21l0,0C157.3,259.5,166.7,271.3,179.8,272.7z"/>
		<path class="st6" d="M185.9,218c16.3,1.8,28,16.5,26.2,32.7c-1.8,16.3-16.5,28-32.7,26.2c-16.3-1.8-28-16.4-26.2-32.7
			C154.9,227.9,169.6,216.2,185.9,218C185.8,218,185.8,218,185.9,218z M180,271c13.1,1.5,24.8-7.9,26.3-21
			c1.5-13.1-7.9-24.8-21-26.3c-13.1-1.5-24.8,7.9-26.3,21l0,0C157.5,257.8,166.9,269.6,180,271L180,271z"/>
		<path class="st5" d="M172.9,300.5l2.3-20.5c0.2-1.6,1.6-2.7,3.2-2.5l1.4,0.2c1.6,0.2,2.7,1.6,2.5,3.2l-2.3,20.5
			c-0.2,1.6-1.6,2.7-3.2,2.5l-1.4-0.2C173.9,303.5,172.7,302.1,172.9,300.5z"/>
		<path class="st3" d="M171.7,346.1h-0.2c-3.5-0.4-6-3.5-5.6-6.9c0,0,0,0,0-0.1l4.5-40.6c0.3-2.7,2.7-4.7,5.4-4.4c0,0,0,0,0,0l3,0.3
			c2.7,0.3,4.7,2.7,4.4,5.4l-4.5,40.6C178.3,344.1,175.2,346.6,171.7,346.1C171.7,346.2,171.7,346.2,171.7,346.1L171.7,346.1z"/>
		<path class="st6" d="M174.4,328.4c0,0,7.1,0.3,8.1,1.5s0.8,5.5-1.1,6c-4.9,1.3-15.4,0.5-15.8-0.3s-1.3-6,0.9-6.5
			C169.1,328.6,171.8,328.4,174.4,328.4z"/>
		<path class="st6" d="M176.5,318.5c0,0,8.3-0.3,9.6,1.2s1.6,7.1-0.6,7.9c-5.6,2.1-18.1,1.3-18.6,0.2s-1.8-6.8,0.6-7.7
			S176.5,318.5,176.5,318.5z"/>
		<path class="st6" d="M177.7,307.3c0,0,8.8-0.3,10.2,1.3s1.6,7.5-0.7,8.4c-6,2.3-19,2.3-19.6,1.1s-2.3-8.2,0.4-9.2
			S177.7,307.3,177.7,307.3z"/>
		<path class="st6" d="M182.8,296.8c0,0,8.8-0.3,10.2,1.3s1.7,7.7-0.7,8.5s-19,2.3-19.6,1.1s-2.2-8.2,0.4-9.1
			S182.8,296.8,182.8,296.8z"/>
		<path class="st6" d="M148.4,326.9c3.5,0.1,6.9-0.8,9.9-2.7c7.1-4.9,6.9-16.2,6.9-16.2l1.7-0.5c1.4-0.5,2.7-1.3,3.9-2.2
			c-0.6,2.3-0.9,4.7-1,7.1c0.1,2.7,2.2,4.9,4.9,5.2c2.2,0.2,3.2,0.5,3.9-2.5s4.4-14.7,4.7-16.4s-2.4-4.4-6.6-5
			c-6.4,0.5-12.7,2.3-19.2,2.3c-2.2,0.2-4.4,1-6.3,2.3"/>
		<path class="st6" d="M141.9,325.8c1.4,0.4,2.8,0.7,4.3,0.9"/>
		<line class="st9" x1="133" y1="322.7" x2="124.2" y2="322.7"/>
		<line class="st9" x1="132.3" y1="325.1" x2="128.6" y2="325.1"/>
		<path class="st9" d="M165.2,307.9c0,0-4.9,0-8.1-2.9"/>
		<path class="st9" d="M170.9,304.9c0.1-1.3,0.4-2.6,0.8-3.9"/>
		<path class="st10" d="M178.7,313.8c0,0,0.9-2.6-0.2-3.5s-4.1-2.3-4.6-1.2s-1.6,5.8-1.3,6.7l0.3,0.9"/>
		<polyline class="st5" points="43.1,345.1 127.7,345.1 127.7,303.5 43.1,303.5 		"/>
		<path class="st6" d="M119.6,340.4c0,1,0.9,1.9,1.9,1.9c1,0,1.9-0.9,1.9-1.9c0-1-0.9-1.9-1.9-1.9h0l0,0
			C120.4,338.5,119.6,339.4,119.6,340.4z"/>
	</g>
</g>
</svg>
