<?xml version="1.0" encoding="utf-8"?>
<!-- Generator: Adobe Illustrator 22.0.0, SVG Export Plug-In . SVG Version: 6.00 Build 0)  -->
<svg version="1.1" id="Layer_1" xmlns="http://www.w3.org/2000/svg" xmlns:xlink="http://www.w3.org/1999/xlink" x="0px" y="0px"
	 viewBox="0 0 421 347" style="enable-background:new 0 0 421 347;" xml:space="preserve">
<style type="text/css">
	.st0{fill:#954F27;}
	.st1{opacity:0.5;fill:#FFFFFF;enable-background:new    ;}
	.st2{opacity:0.3;fill:#FFFFFF;enable-background:new    ;}
	.st3{fill:#2E353A;stroke:#2E353A;stroke-linecap:round;stroke-linejoin:round;}
	.st4{fill:none;stroke:#FFFFFF;stroke-width:0.5;stroke-linecap:round;stroke-linejoin:round;}
	.st5{fill:#954F27;stroke:#2E353A;stroke-linecap:round;stroke-linejoin:round;}
	.st6{fill:#FFFFFF;stroke:#2E353A;stroke-linecap:round;stroke-linejoin:round;}
	.st7{fill:none;stroke:#2E353A;stroke-width:2;stroke-linecap:round;stroke-linejoin:round;}
	.st8{fill:#FFFFFF;}
	.st9{fill:none;stroke:#2E353A;stroke-linecap:round;stroke-linejoin:round;}
	.st10{fill:none;stroke:#2E353A;stroke-width:0.5;stroke-linecap:round;stroke-linejoin:round;}
</style>
<g>
	<g id="freepik--Shadow--inject-7">
		<rect x="23.4" y="324.9" class="st0" width="390" height="16"/>
		<rect x="23.4" y="324.9" class="st1" width="390" height="16"/>
	</g>
	<g id="freepik--Plants--inject-7">
		<path class="st0" d="M115.3,152.8c-1.9,0.6-3.8,1.3-5.6,2.2c1-0.7,2-1.5,3-2.3c4.5-3.6,8.7-7.4,12.7-11.5
			c-4.7,4.6-9.7,8.8-15,12.6c0.7-1.3,1.4-2.6,1.9-3.9c1-2.5,1.2-5-1.2-6.3c-2.9-1.6-6.5,0.8-5.5,5c0.6,2.3,1.7,4.5,3.2,6.4
			c-3.5,2.4-7.1,4.6-10.8,6.5l-0.4,0.2c0.8-1.4,1.5-2.8,2.1-4.3c0.9-2.5,1.2-5-1.2-6.3c-2.9-1.6-6.5,0.8-5.5,5
			c0.6,2.3,1.6,4.5,3.2,6.3c-4.5,2.2-9.1,4.1-13.8,6.1l-0.7,0.3c0.9-1,1.7-2,2.5-3.1c1.5-2.2,2.3-4.6,0.3-6.4
			c-2.5-2.3-6.5-0.7-6.6,3.6c0,2.4,0.6,4.7,1.6,6.9c-4.3,2-8.4,4.5-12.3,7.3l-0.1,0.1c0.5-0.8,1-1.7,1.4-2.5
			c1.1-2.4,1.6-4.9-0.7-6.4c-1.7-1.2-4-0.7-5.2,1c-0.2,0.2-0.3,0.5-0.4,0.8c-0.3-0.5-0.7-0.9-1.2-1.1c-2.3-1.3-4.5,0.1-6.5,2.1
			c-0.5,0.5-1,1.1-1.4,1.7c1.5-4.1,3.4-8.1,5.6-11.9c2.1,0.9,4.4,1.4,6.7,1.4c4.6,0,6.5-3.8,4.2-6.2c-1.8-1.9-4.4-1.2-6.8,0.2
			c-0.8,0.5-1.6,1-2.3,1.5c2.3-3.5,4.9-6.8,7.9-9.8c1.9,1.5,4.1,2.7,6.5,3.3c4.4,1.1,7.2-2.1,5.6-4.9c-1.3-2.3-4-2.2-6.7-1.4
			c-1.3,0.4-2.5,0.8-3.7,1.4c1.2-1.2,2.5-2.3,3.7-3.4c1.7-1.4,3.4-2.8,5.1-4.1c1.9,1.5,4.1,2.6,6.4,3.2c4.4,1.1,7.2-2.1,5.6-4.9
			c-1.3-2.3-4-2.2-6.7-1.4c-0.6,0.2-1.3,0.4-1.9,0.6c2.3-1.6,4.7-3.3,7-4.9l2.2-1.5c2,1.6,4.3,2.8,6.7,3.5c4.4,1.1,7.2-2.1,5.6-4.9
			c-1.3-2.3-4-2.2-6.7-1.4c-1,0.3-2.1,0.7-3.1,1.1l0,0l1.3-1c0.8-0.6,1.6-1.2,2.4-1.8c1-0.8,1.9-1.6,2.9-2.4
			c0.6-0.4,1.1-0.9,1.6-1.4c2,1.7,4.3,2.8,6.8,3.5c4.4,1.1,7.2-2.1,5.6-4.9c-1.3-2.3-4-2.2-6.6-1.4c-1.5,0.5-2.9,1-4.4,1.6l0,0
			c1.8-1.7,3.6-3.4,5.2-5.3c0.1-0.1,0.2-0.3,0.3-0.4c0.7-0.8,1.4-1.6,2.1-2.4s1.6-1.9,2.3-2.9c3-4,5.5-8.4,7.4-13
			c-2,4.6-4.6,8.9-7.7,12.8c-3.1,3.9-6.5,7.6-10.3,10.9l-0.4,0.4c0.9-1.5,1.6-3,2.3-4.5c0.9-2.5,1.2-5-1.2-6.3
			c-2.9-1.6-6.5,0.8-5.5,5c0.6,2.5,1.8,4.8,3.5,6.7l-0.9,0.8l-1,0.9c-0.6,0.5-1.2,0.9-1.8,1.4c-0.3,0.2-0.6,0.5-1,0.7
			c-0.9,0.6-1.7,1.2-2.6,1.8L93,128l-1.4,1c0.8-1.4,1.6-2.9,2.2-4.4c0.9-2.5,1.2-5-1.2-6.3c-2.9-1.6-6.5,0.8-5.5,5
			c0.6,2.4,1.7,4.6,3.3,6.5l-1,0.7l-3.9,2.6l-0.8,0.5l-2.2,1.4l-0.9,0.6c-1,0.7-2,1.4-3,2.1c0.8-1.4,1.5-2.9,2.1-4.5
			c1-2.5,1.2-5-1.2-6.3c-2.9-1.6-6.5,0.8-5.5,5c0.6,2.4,1.8,4.7,3.4,6.6c-1.7,1.3-3.4,2.5-5,3.9c-1.2,1-2.4,2-3.5,3.1
			c0.5-0.9,0.9-1.9,1.3-2.9c0.9-2.5,1.2-5-1.2-6.3c-2.9-1.6-6.5,0.8-5.5,5c0.6,2.3,1.6,4.5,3.2,6.3c-3.2,3.2-6.2,6.7-8.7,10.5
			c0.3-1.1,0.5-2.2,0.7-3.3c0.3-2.6-0.1-5.1-2.7-5.8c-3.2-0.9-6.1,2.4-4.2,6.2c1.1,2.1,2.7,4,4.6,5.4c-2.5,4.1-4.6,8.5-6.3,13
			c0-0.9-0.1-1.9-0.3-2.8c-0.4-2.6-1.5-4.9-4.2-4.9c-3.4,0.1-5.2,4-2.2,7.1c1.6,1.6,3.5,2.9,5.6,3.7c-1.1,3.5-2.1,7.1-2.8,10.7
			c-0.1,0.6-0.2,1.1-0.3,1.7c-0.1,0.1-0.2,0.2-0.3,0.3c-0.1-0.5-0.3-1-0.4-1.5c-0.8-2.5-2.2-4.6-4.9-4.1c-3.3,0.6-4.5,4.7-1.1,7.4
			c1.7,1.3,3.7,2.3,5.8,2.7c0,0.1,0.1,0.2,0.1,0.3c-0.4,2.7-0.7,5.4-0.8,8.2c-0.1,2-0.2,4.1-0.2,6.1c-2.9,0-4.9,3.1-2.9,6.5
			c0.8,1.4,1.9,2.7,3.2,3.7c0.2,3.9,0.6,7.7,1.1,11.5c-0.8-0.8-2-1-3.1-0.7c-1.8,0.5-2.6,1.9-2.9,3.7c-0.6,0.7-1,1.5-1,2.5
			c-1.3-2-2.6-4-3.8-6.1c1.9-1.4,3.4-3.3,4.6-5.3c2.2-4-0.3-7.5-3.4-6.7c-2.6,0.7-3.1,3.3-3,6.1c0,1.1,0.1,2.1,0.3,3.2l-1.3-2.3
			c-1.1-2-2-4-3.1-6c-0.3-0.5-0.5-1-0.7-1.5c2.1-1.1,4-2.5,5.5-4.4c2.9-3.5,1.1-7.4-2.1-7.2c-2.6,0.2-3.7,2.7-4.1,5.4
			c-0.2,1.2-0.3,2.4-0.3,3.6l-0.9-2.2c-2-4.9-3.6-10-4.9-15.1c2.4-0.8,4.6-2.2,6.3-4c3.2-3.3,1.9-7.3-1.4-7.4
			c-2.6-0.1-3.9,2.3-4.7,5c-0.4,1.4-0.6,2.9-0.8,4.4c-0.7-3-1.3-6-1.8-9c-0.3-1.9-0.6-3.8-0.8-5.6c2.6-0.5,5-1.6,7.1-3.2
			c3.6-2.8,2.8-7-0.4-7.5c-2.6-0.4-4.2,1.7-5.3,4.3c-0.6,1.6-1.1,3.3-1.6,5c-0.2-2.2-0.4-4.4-0.5-6.6c-0.3-4.5-0.3-9.1,0-13.6
			c-0.5,4.5-0.6,9.1-0.5,13.6c0,2.1,0.2,4.2,0.3,6.3c-0.6-1.4-1.2-2.8-2-4.1c-1.4-2.3-3.2-4-5.7-3c-3.1,1.3-3.4,5.6,0.5,7.5
			c2.3,1.1,4.8,1.5,7.3,1.4c0.2,1.9,0.3,3.7,0.6,5.6c0.4,3,0.9,5.9,1.5,8.8c-0.6-1.1-1.4-2.2-2.1-3.2c-1.7-2.1-3.7-3.6-6-2.2
			c-2.9,1.7-2.6,6,1.5,7.3c2.3,0.7,4.8,0.9,7.2,0.5c1.1,5.2,2.6,10.3,4.5,15.4l0.6,1.5c-0.5-0.7-1.1-1.4-1.7-2
			c-1.8-1.9-4-3.2-6.2-1.6c-2.7,2-2,6.2,2.2,7.1c2.3,0.5,4.7,0.4,7-0.2c0.2,0.5,0.4,1,0.7,1.5c1,2.1,1.9,4.2,2.9,6.2l0.9,1.7
			c-0.5-0.5-1.1-0.9-1.6-1.3c-2.2-1.5-4.5-2.4-6.4-0.4c-2.3,2.4-0.8,6.5,3.5,6.6c2.2,0.1,4.5-0.4,6.5-1.3c1.2,2.2,2.5,4.5,3.9,6.6
			c0.5,0.8,1,1.6,1.6,2.5c-0.8-0.7-1.6-1.4-2.5-2c-2.2-1.5-4.5-2.4-6.4-0.4c-2.3,2.4-0.8,6.5,3.5,6.6c2.5,0,4.9-0.5,7.1-1.6
			c0.7,1,1.5,2,2.2,3c-1.6,1.9-1.1,5,2.2,6.4c1.6,0.7,3.3,1,5,1.1c0.2,0.2,0.4,0.3,0.6,0.5l0.1,0.1c2.1,7.7,4.5,15.3,7.3,22.8
			c1.2,3.2,2.5,6.4,3.8,9.5h-12v47.3H86v-47.4H67.1c-1.7-3.6-3.3-7.3-4.8-11.1c-2.4-6.1-4.7-12.3-6.6-18.6l0,0
			c0.3,0.1,0.7,0.2,1,0.2c0.4,0.1,0.9,0.1,1.3,0.1l-0.5-3.3h-0.3c-0.2,0-0.4-0.1-0.6-0.1c-0.5-0.1-0.9-0.3-1.3-0.5l-0.5-0.2
			c1.9-0.7,3.7-1.7,5.3-3c3.5-3,2.5-7.1-0.8-7.5c-2.6-0.3-4.1,1.9-5,4.6c-0.3,0.8-0.5,1.5-0.7,2.3c-0.2-0.7-0.4-1.4-0.6-2.1
			c-0.5-2.1-1-4.2-1.5-6.3c2.1-0.7,4-1.7,5.7-3.1c3.5-3,2.5-7.1-0.8-7.4c-2.6-0.3-4.1,1.9-5,4.6c-0.3,0.8-0.5,1.5-0.7,2.3
			c-0.3-1.5-0.6-3-0.9-4.6c-0.2-1.1-0.4-2.3-0.5-3.4c-0.1-1.6-0.1-3.2-0.1-4.9c0-0.9,0-1.8,0.1-2.7c2,0.6,4,0.9,6.1,0.8
			c4.6-0.3,6.2-4.2,3.9-6.4c-1.9-1.8-4.4-0.9-6.8,0.6c-1,0.7-2,1.5-3,2.3c0.3-3.8,0.9-7.6,1.7-11.3c0.5-2.2,1.1-4.3,1.9-6.5
			c2.1,0.7,4.3,1,6.5,0.9c4.6-0.3,6.2-4.2,3.9-6.4c-1.9-1.8-4.4-0.9-6.8,0.6c-0.8,0.6-1.6,1.2-2.3,1.8c0.9-2.1,1.9-4.1,3.1-6
			c2.3-3.9,5.2-7.4,8.5-10.4c1.7,1.6,3.8,2.8,6.1,3.6c4.3,1.4,7.3-1.6,6-4.5c-1.1-2.4-3.8-2.5-6.5-1.9c-1.1,0.2-2.1,0.5-3.1,0.9
			l0.1-0.1c3.7-2.9,7.8-5.4,12-7.5c1.5,2,3.4,3.6,5.6,4.7c4.1,2.1,7.5-0.4,6.6-3.5c-0.7-2.5-3.3-3.1-6.1-3c-1.1,0.1-2.2,0.2-3.3,0.4
			c4.5-2.1,9.1-4.1,13.6-6.5l0,0h0.1c2,1.7,4.3,2.9,6.9,3.6c4.4,1.1,7.2-2.1,5.6-5c-1.3-2.3-4-2.2-6.6-1.4c-0.8,0.2-1.5,0.5-2.2,0.8
			c3-1.7,5.8-3.6,8.6-5.6l0.2,0.3v-0.1c2,1.7,4.4,3,6.9,3.6c4.4,1.1,7.2-2.1,5.6-5C120.7,151.9,118,152,115.3,152.8z M45.4,243.4
			c-0.9-1.1-1.8-2.2-2.6-3.3c0.2-0.2,0.4-0.4,0.6-0.6c1.2,0.4,2.5,0.6,3.8,0.7v0.2l0.6-0.1c0.3,1.6,0.7,3.1,1,4.7
			C48.1,243.9,46.8,243.3,45.4,243.4z M48.7,205.7c-0.3,1.2-0.6,2.4-0.8,3.5l-0.2-0.2c0-2.4,0-4.9,0.1-7.3c0.1-1.7,0.2-3.4,0.3-5.1
			c0.8,0.8,1.7,1.6,2.7,2.3C50,201.2,49.3,203.4,48.7,205.7L48.7,205.7z M52.8,194.5c0.1-0.4,0.1-0.9,0.1-1.3v-0.7
			c0.4-0.1,0.7-0.2,1.1-0.4C53.6,192.9,53.2,193.7,52.8,194.5L52.8,194.5z M58,186.1c-0.3-0.8-1-1.4-1.8-1.7c-2.5-1-4.5,0.8-6.1,3.1
			l-0.1,0.1h-0.2c-0.2,0-0.3-0.1-0.5-0.1c0-0.1,0-0.3,0.1-0.4c0.6-3.6,1.5-7.2,2.6-10.7c2.3,0.3,4.6,0.1,6.8-0.5
			c1.4-0.4,2.6-1.2,3.4-2.4c0.4,2,1.3,3.9,2.5,5.6C62.2,181.2,60,183.5,58,186.1L58,186.1z"/>
		<path class="st2" d="M115.3,152.8c-1.9,0.6-3.8,1.3-5.6,2.2c1-0.7,2-1.5,3-2.3c4.5-3.6,8.7-7.4,12.7-11.5
			c-4.7,4.6-9.7,8.8-15,12.6c0.7-1.3,1.4-2.6,1.9-3.9c1-2.5,1.2-5-1.2-6.3c-2.9-1.6-6.5,0.8-5.5,5c0.6,2.3,1.7,4.5,3.2,6.4
			c-3.5,2.4-7.1,4.6-10.8,6.5l-0.4,0.2c0.8-1.4,1.5-2.8,2.1-4.3c0.9-2.5,1.2-5-1.2-6.3c-2.9-1.6-6.5,0.8-5.5,5
			c0.6,2.3,1.6,4.5,3.2,6.3c-4.5,2.2-9.1,4.1-13.8,6.1l-0.7,0.3c0.9-1,1.7-2,2.5-3.1c1.5-2.2,2.3-4.6,0.3-6.4
			c-2.5-2.3-6.5-0.7-6.6,3.6c0,2.4,0.6,4.7,1.6,6.9c-4.3,2-8.4,4.5-12.3,7.3l-0.1,0.1c0.5-0.8,1-1.7,1.4-2.5
			c1.1-2.4,1.6-4.9-0.7-6.4c-1.7-1.2-4-0.7-5.2,1c-0.2,0.2-0.3,0.5-0.4,0.8c-0.3-0.5-0.7-0.9-1.2-1.1c-2.3-1.3-4.5,0.1-6.5,2.1
			c-0.5,0.5-1,1.1-1.4,1.7c1.5-4.1,3.4-8.1,5.6-11.9c2.1,0.9,4.4,1.4,6.7,1.4c4.6,0,6.5-3.8,4.2-6.2c-1.8-1.9-4.4-1.2-6.8,0.2
			c-0.8,0.5-1.6,1-2.3,1.5c2.3-3.5,4.9-6.8,7.9-9.8c1.9,1.5,4.1,2.7,6.5,3.3c4.4,1.1,7.2-2.1,5.6-4.9c-1.3-2.3-4-2.2-6.7-1.4
			c-1.3,0.4-2.5,0.8-3.7,1.4c1.2-1.2,2.5-2.3,3.7-3.4c1.7-1.4,3.4-2.8,5.1-4.1c1.9,1.5,4.1,2.6,6.4,3.2c4.4,1.1,7.2-2.1,5.6-4.9
			c-1.3-2.3-4-2.2-6.7-1.4c-0.6,0.2-1.3,0.4-1.9,0.6c2.3-1.6,4.7-3.3,7-4.9l2.2-1.5c2,1.6,4.3,2.8,6.7,3.5c4.4,1.1,7.2-2.1,5.6-4.9
			c-1.3-2.3-4-2.2-6.7-1.4c-1,0.3-2.1,0.7-3.1,1.1l0,0l1.3-1c0.8-0.6,1.6-1.2,2.4-1.8c1-0.8,1.9-1.6,2.9-2.4
			c0.6-0.4,1.1-0.9,1.6-1.4c2,1.7,4.3,2.8,6.8,3.5c4.4,1.1,7.2-2.1,5.6-4.9c-1.3-2.3-4-2.2-6.6-1.4c-1.5,0.5-2.9,1-4.4,1.6l0,0
			c1.8-1.7,3.6-3.4,5.2-5.3c0.1-0.1,0.2-0.3,0.3-0.4c0.7-0.8,1.4-1.6,2.1-2.4s1.6-1.9,2.3-2.9c3-4,5.5-8.4,7.4-13
			c-2,4.6-4.6,8.9-7.7,12.8c-3.1,3.9-6.5,7.6-10.3,10.9l-0.4,0.4c0.9-1.5,1.6-3,2.3-4.5c0.9-2.5,1.2-5-1.2-6.3
			c-2.9-1.6-6.5,0.8-5.5,5c0.6,2.5,1.8,4.8,3.5,6.7l-0.9,0.8l-1,0.9c-0.6,0.5-1.2,0.9-1.8,1.4c-0.3,0.2-0.6,0.5-1,0.7
			c-0.9,0.6-1.7,1.2-2.6,1.8L93,128l-1.4,1c0.8-1.4,1.6-2.9,2.2-4.4c0.9-2.5,1.2-5-1.2-6.3c-2.9-1.6-6.5,0.8-5.5,5
			c0.6,2.4,1.7,4.6,3.3,6.5l-1,0.7l-3.9,2.6l-0.8,0.5l-2.2,1.4l-0.9,0.6c-1,0.7-2,1.4-3,2.1c0.8-1.4,1.5-2.9,2.1-4.5
			c1-2.5,1.2-5-1.2-6.3c-2.9-1.6-6.5,0.8-5.5,5c0.6,2.4,1.8,4.7,3.4,6.6c-1.7,1.3-3.4,2.5-5,3.9c-1.2,1-2.4,2-3.5,3.1
			c0.5-0.9,0.9-1.9,1.3-2.9c0.9-2.5,1.2-5-1.2-6.3c-2.9-1.6-6.5,0.8-5.5,5c0.6,2.3,1.6,4.5,3.2,6.3c-3.2,3.2-6.2,6.7-8.7,10.5
			c0.3-1.1,0.5-2.2,0.7-3.3c0.3-2.6-0.1-5.1-2.7-5.8c-3.2-0.9-6.1,2.4-4.2,6.2c1.1,2.1,2.7,4,4.6,5.4c-2.5,4.1-4.6,8.5-6.3,13
			c0-0.9-0.1-1.9-0.3-2.8c-0.4-2.6-1.5-4.9-4.2-4.9c-3.4,0.1-5.2,4-2.2,7.1c1.6,1.6,3.5,2.9,5.6,3.7c-1.1,3.5-2.1,7.1-2.8,10.7
			c-0.1,0.6-0.2,1.1-0.3,1.7c-0.1,0.1-0.2,0.2-0.3,0.3c-0.1-0.5-0.3-1-0.4-1.5c-0.8-2.5-2.2-4.6-4.9-4.1c-3.3,0.6-4.5,4.7-1.1,7.4
			c1.7,1.3,3.7,2.3,5.8,2.7c0,0.1,0.1,0.2,0.1,0.3c-0.4,2.7-0.7,5.4-0.8,8.2c-0.1,2-0.2,4.1-0.2,6.1c-2.9,0-4.9,3.1-2.9,6.5
			c0.8,1.4,1.9,2.7,3.2,3.7c0.2,3.9,0.6,7.7,1.1,11.5c-0.8-0.8-2-1-3.1-0.7c-1.8,0.5-2.6,1.9-2.9,3.7c-0.6,0.7-1,1.5-1,2.5
			c-1.3-2-2.6-4-3.8-6.1c1.9-1.4,3.4-3.3,4.6-5.3c2.2-4-0.3-7.5-3.4-6.7c-2.6,0.7-3.1,3.3-3,6.1c0,1.1,0.1,2.1,0.3,3.2l-1.3-2.3
			c-1.1-2-2-4-3.1-6c-0.3-0.5-0.5-1-0.7-1.5c2.1-1.1,4-2.5,5.5-4.4c2.9-3.5,1.1-7.4-2.1-7.2c-2.6,0.2-3.7,2.7-4.1,5.4
			c-0.2,1.2-0.3,2.4-0.3,3.6l-0.9-2.2c-2-4.9-3.6-10-4.9-15.1c2.4-0.8,4.6-2.2,6.3-4c3.2-3.3,1.9-7.3-1.4-7.4
			c-2.6-0.1-3.9,2.3-4.7,5c-0.4,1.4-0.6,2.9-0.8,4.4c-0.7-3-1.3-6-1.8-9c-0.3-1.9-0.6-3.8-0.8-5.6c2.6-0.5,5-1.6,7.1-3.2
			c3.6-2.8,2.8-7-0.4-7.5c-2.6-0.4-4.2,1.7-5.3,4.3c-0.6,1.6-1.1,3.3-1.6,5c-0.2-2.2-0.4-4.4-0.5-6.6c-0.3-4.5-0.3-9.1,0-13.6
			c-0.5,4.5-0.6,9.1-0.5,13.6c0,2.1,0.2,4.2,0.3,6.3c-0.6-1.4-1.2-2.8-2-4.1c-1.4-2.3-3.2-4-5.7-3c-3.1,1.3-3.4,5.6,0.5,7.5
			c2.3,1.1,4.8,1.5,7.3,1.4c0.2,1.9,0.3,3.7,0.6,5.6c0.4,3,0.9,5.9,1.5,8.8c-0.6-1.1-1.4-2.2-2.1-3.2c-1.7-2.1-3.7-3.6-6-2.2
			c-2.9,1.7-2.6,6,1.5,7.3c2.3,0.7,4.8,0.9,7.2,0.5c1.1,5.2,2.6,10.3,4.5,15.4l0.6,1.5c-0.5-0.7-1.1-1.4-1.7-2
			c-1.8-1.9-4-3.2-6.2-1.6c-2.7,2-2,6.2,2.2,7.1c2.3,0.5,4.7,0.4,7-0.2c0.2,0.5,0.4,1,0.7,1.5c1,2.1,1.9,4.2,2.9,6.2l0.9,1.7
			c-0.5-0.5-1.1-0.9-1.6-1.3c-2.2-1.5-4.5-2.4-6.4-0.4c-2.3,2.4-0.8,6.5,3.5,6.6c2.2,0.1,4.5-0.4,6.5-1.3c1.2,2.2,2.5,4.5,3.9,6.6
			c0.5,0.8,1,1.6,1.6,2.5c-0.8-0.7-1.6-1.4-2.5-2c-2.2-1.5-4.5-2.4-6.4-0.4c-2.3,2.4-0.8,6.5,3.5,6.6c2.5,0,4.9-0.5,7.1-1.6
			c0.7,1,1.5,2,2.2,3c-1.6,1.9-1.1,5,2.2,6.4c1.6,0.7,3.3,1,5,1.1c0.2,0.2,0.4,0.3,0.6,0.5l0.1,0.1c2.1,7.7,4.5,15.3,7.3,22.8
			c1.2,3.2,2.5,6.4,3.8,9.5h-12v47.3H86v-47.4H67.1c-1.7-3.6-3.3-7.3-4.8-11.1c-2.4-6.1-4.7-12.3-6.6-18.6l0,0
			c0.3,0.1,0.7,0.2,1,0.2c0.4,0.1,0.9,0.1,1.3,0.1l-0.5-3.3h-0.3c-0.2,0-0.4-0.1-0.6-0.1c-0.5-0.1-0.9-0.3-1.3-0.5l-0.5-0.2
			c1.9-0.7,3.7-1.7,5.3-3c3.5-3,2.5-7.1-0.8-7.5c-2.6-0.3-4.1,1.9-5,4.6c-0.3,0.8-0.5,1.5-0.7,2.3c-0.2-0.7-0.4-1.4-0.6-2.1
			c-0.5-2.1-1-4.2-1.5-6.3c2.1-0.7,4-1.7,5.7-3.1c3.5-3,2.5-7.1-0.8-7.4c-2.6-0.3-4.1,1.9-5,4.6c-0.3,0.8-0.5,1.5-0.7,2.3
			c-0.3-1.5-0.6-3-0.9-4.6c-0.2-1.1-0.4-2.3-0.5-3.4c-0.1-1.6-0.1-3.2-0.1-4.9c0-0.9,0-1.8,0.1-2.7c2,0.6,4,0.9,6.1,0.8
			c4.6-0.3,6.2-4.2,3.9-6.4c-1.9-1.8-4.4-0.9-6.8,0.6c-1,0.7-2,1.5-3,2.3c0.3-3.8,0.9-7.6,1.7-11.3c0.5-2.2,1.1-4.3,1.9-6.5
			c2.1,0.7,4.3,1,6.5,0.9c4.6-0.3,6.2-4.2,3.9-6.4c-1.9-1.8-4.4-0.9-6.8,0.6c-0.8,0.6-1.6,1.2-2.3,1.8c0.9-2.1,1.9-4.1,3.1-6
			c2.3-3.9,5.2-7.4,8.5-10.4c1.7,1.6,3.8,2.8,6.1,3.6c4.3,1.4,7.3-1.6,6-4.5c-1.1-2.4-3.8-2.5-6.5-1.9c-1.1,0.2-2.1,0.5-3.1,0.9
			l0.1-0.1c3.7-2.9,7.8-5.4,12-7.5c1.5,2,3.4,3.6,5.6,4.7c4.1,2.1,7.5-0.4,6.6-3.5c-0.7-2.5-3.3-3.1-6.1-3c-1.1,0.1-2.2,0.2-3.3,0.4
			c4.5-2.1,9.1-4.1,13.6-6.5l0,0h0.1c2,1.7,4.3,2.9,6.9,3.6c4.4,1.1,7.2-2.1,5.6-5c-1.3-2.3-4-2.2-6.6-1.4c-0.8,0.2-1.5,0.5-2.2,0.8
			c3-1.7,5.8-3.6,8.6-5.6l0.2,0.3v-0.1c2,1.7,4.4,3,6.9,3.6c4.4,1.1,7.2-2.1,5.6-5C120.7,151.9,118,152,115.3,152.8z M45.4,243.4
			c-0.9-1.1-1.8-2.2-2.6-3.3c0.2-0.2,0.4-0.4,0.6-0.6c1.2,0.4,2.5,0.6,3.8,0.7v0.2l0.6-0.1c0.3,1.6,0.7,3.1,1,4.7
			C48.1,243.9,46.8,243.3,45.4,243.4z M48.7,205.7c-0.3,1.2-0.6,2.4-0.8,3.5l-0.2-0.2c0-2.4,0-4.9,0.1-7.3c0.1-1.7,0.2-3.4,0.3-5.1
			c0.8,0.8,1.7,1.6,2.7,2.3C50,201.2,49.3,203.4,48.7,205.7L48.7,205.7z M52.8,194.5c0.1-0.4,0.1-0.9,0.1-1.3v-0.7
			c0.4-0.1,0.7-0.2,1.1-0.4C53.6,192.9,53.2,193.7,52.8,194.5L52.8,194.5z M58,186.1c-0.3-0.8-1-1.4-1.8-1.7c-2.5-1-4.5,0.8-6.1,3.1
			l-0.1,0.1h-0.2c-0.2,0-0.3-0.1-0.5-0.1c0-0.1,0-0.3,0.1-0.4c0.6-3.6,1.5-7.2,2.6-10.7c2.3,0.3,4.6,0.1,6.8-0.5
			c1.4-0.4,2.6-1.2,3.4-2.4c0.4,2,1.3,3.9,2.5,5.6C62.2,181.2,60,183.5,58,186.1L58,186.1z"/>
		<path class="st3" d="M361.9,288.9c0,0-4.8-10.8-6-11.9s-10.4-4.5-13-13s-7.5-31.3,4.9-29.8s9.3,25.3,13.8,24.6s-3.7-38.7,4.1-44
			s20.5-0.4,19,19.8s-4.5,31.7-1.9,30.5s10.1-5.2,10.1,3.4s-7.1,14.5-11.2,14.9s-6,0.8-6,0.8v5.6L361.9,288.9z"/>
		<path class="st4" d="M358,267.9c-2.8-2.7-5.4-5.2-6.6-7.6c-2.4-4.7-4.1-18-4.1-18"/>
		<path class="st4" d="M343.1,248.8c1.9,7.8,2.1,13.6,7.7,20.4c3,3.7,10.9,6.8,11.8,10c0.8,3.9,1.4,7.9,1.8,11.8l4.4,0.3
			c0,0,0.9-7.7-1.6-13.2"/>
		<path class="st4" d="M344.3,236.3c0,0-3.3,2.5-2.1,8.8"/>
		<line class="st4" x1="365.6" y1="259.2" x2="363.8" y2="262.1"/>
		<line class="st4" x1="366.2" y1="258.2" x2="365.6" y2="259.2"/>
		<path class="st4" d="M372.1,215.6c0,0-6.8-0.3-6.8,6.2c0,5.5,1.7,24.2,1.3,32.8"/>
		<path class="st4" d="M377.4,268.9c-0.2,2.2-0.3,3.8-0.3,4.4c0,3.3,8.3-9.2,12.1-9.5c0,0,3.8-0.3,2.4,6.8
			c-1.1,5.4-5.1,9.7-10.3,11.2c-3.3,0.9-5.9-0.6-6.5,0.9c-0.5,1.7-0.8,3.5-0.9,5.3"/>
		<path class="st4" d="M379.4,221.8c0.5,2.1,0.8,4.3,0.7,6.5c0,6.9-1.3,23.2-2.2,34.3"/>
		<path class="st4" d="M375.9,216.3c0.9,0.5,1.6,1.3,2.1,2.2"/>
		<line class="st4" x1="371.1" y1="267.1" x2="370.9" y2="271.2"/>
		<path class="st4" d="M372.7,219.8c0,0-1.8,0.6-1.2,6.8c0.5,5.1,0,28.4-0.2,36.4"/>
		<path class="st4" d="M391.3,265.6c-2.5,4.7-6.6,8.5-11.5,10.6c-8,3.3-8.3,1.8-8.3,5s-0.3,9.2-0.3,9.2"/>
		<polygon class="st5" points="380.2,332.5 354.4,332.5 348.9,295 385.8,295 		"/>
		<rect x="345.7" y="289.1" class="st5" width="43.2" height="10"/>
	</g>
	<g id="freepik--Device--inject-7">
		<path class="st6" d="M238.3,307.3V287h-59.8v20.3c0,6.6-2.3,13-6.4,18.2l-2.6,3.3h77.8l-2.6-3.3
			C240.6,320.3,238.3,313.9,238.3,307.3z"/>
		<path class="st0" d="M174.8,321.5H242c-2.4-4.4-3.7-9.3-3.7-14.2V287h-59.8v20.3C178.5,312.2,177.2,317.1,174.8,321.5z"/>
		<path class="st3" d="M96.6,113h223.5c4.7,0,8.5,3.8,8.5,8.5v163.4c0,4.7-3.8,8.5-8.5,8.5H96.6c-4.7,0-8.5-3.8-8.5-8.5V121.4
			C88.2,116.8,92,113,96.6,113z"/>
		<path class="st6" d="M88.2,265.3h240.5v19.5c0,4.7-3.8,8.5-8.5,8.5l0,0H96.7c-4.7,0-8.5-3.8-8.5-8.5l0,0l0,0V265.3L88.2,265.3z"/>
		<rect x="100.3" y="124.2" class="st6" width="216.3" height="127.4"/>
		<path class="st3" d="M212.9,279.3c0-2.5-2-4.4-4.4-4.4s-4.4,2-4.4,4.4s2,4.4,4.4,4.4S212.9,281.8,212.9,279.3L212.9,279.3z"/>
		<rect x="169.5" y="328.8" class="st6" width="77.8" height="3.6"/>
		<rect x="102" y="133.2" class="st6" width="212.6" height="11.2"/>
		<polygon class="st5" points="137,144.3 134.5,137.4 102,137.4 102,144.3 102,153.5 102,246.2 314.6,246.2 314.6,144.3 		"/>
		<line class="st7" x1="159.2" y1="194.8" x2="258.9" y2="194.8"/>
		<line class="st7" x1="159.2" y1="204.6" x2="258.9" y2="204.6"/>
		<line class="st7" x1="159.2" y1="214.4" x2="258.9" y2="214.4"/>
		<line class="st7" x1="159.2" y1="224.3" x2="258.9" y2="224.3"/>
		<path class="st6" d="M253.6,168.7h-90.3c-3.9,0-7.1-3.2-7.1-7.1l0,0l0,0l0,0c0-3.9,3.2-7.1,7.1-7.1l0,0h90.4
			c3.9,0,7.1,3.2,7.1,7.1l0,0l0,0C260.7,165.6,257.5,168.7,253.6,168.7L253.6,168.7z"/>
		<path class="st3" d="M253.6,168.7h-12.3v-14.2h12.3c3.9,0,7.1,3.2,7.1,7.1l0,0l0,0C260.7,165.5,257.5,168.7,253.6,168.7
			L253.6,168.7z"/>
		<path class="st8" d="M250.8,156.3c-1.6-1.5-4.2-1.5-5.8,0.2c-1.5,1.6-1.5,4.2,0.2,5.8c1.6,1.5,4.2,1.5,5.8-0.2l0,0l0,0
			C252.6,160.5,252.5,157.9,250.8,156.3C250.9,156.4,250.9,156.4,250.8,156.3L250.8,156.3z M250.4,161.5c-1.2,1.3-3.3,1.4-4.6,0.1
			s-1.4-3.3-0.1-4.6c1.2-1.3,3.3-1.4,4.6-0.1C251.6,158.2,251.7,160.2,250.4,161.5L250.4,161.5z"/>
		<path class="st8" d="M253.9,163.6c-0.2-0.2-0.5-0.2-0.7-0.1l-1.5-1.4c-0.2-0.2-0.4-0.2-0.6,0l-0.1,0.1c-0.1,0.2-0.1,0.4,0,0.6
			l1.5,1.4c-0.1,0.3,0,0.5,0.2,0.7l2.5,2.4c0.3,0.3,0.9,0.3,1.2,0l0,0c0.3-0.3,0.3-0.9,0-1.2L253.9,163.6z"/>
	</g>
	<g id="freepik--search-engines--inject-7">
		<path class="st6" d="M279.7,211.5c0.6,1.5,1.7,2.6,3.2,3.2c1.1,0.5,2.6,0.4,4.4,1.3c3.9,2.2,13.7,0.2,20.9,1
			c7.2,0.8,16.7-7.1,16.7-7.1l28.2,1.5v-28c0,0-29.4,1.2-35.8-1.2s-13.5-7.6-16.7-7.4s-29.4,3.2-29.4,3.2L279.7,211.5L279.7,211.5z"
			/>
		<path class="st6" d="M272.4,98.6c-16.3,1.8-28,16.4-26.2,32.7s16.4,28,32.7,26.2s28-16.4,26.2-32.7l0,0l0,0
			C303.3,108.5,288.7,96.8,272.4,98.6L272.4,98.6z M278.3,151.7c-13,1.4-24.8-8-26.2-21c-1.4-13,8-24.8,21-26.2s24.8,8,26.2,21
			S291.3,150.2,278.3,151.7L278.3,151.7z"/>
		<path class="st6" d="M272.3,96.9c-16.3,1.8-28,16.4-26.2,32.7s16.4,28,32.7,26.2s28-16.4,26.2-32.7l0,0l0,0
			C303.2,106.8,288.5,95.1,272.3,96.9z M278.1,150c-13,1.4-24.8-8-26.2-21c-1.4-13,8-24.8,21-26.2s24.8,8,26.2,21
			C300.6,136.8,291.2,148.5,278.1,150L278.1,150z"/>
		<path class="st5" d="M278.4,156.5l1.4-0.2c1.6-0.2,3,1,3.2,2.5l2.3,20.5c0.2,1.6-1,3-2.5,3.2l-1.4,0.2c-1.6,0.2-3-1-3.2-2.5
			l-2.3-20.5C275.6,158.1,276.8,156.7,278.4,156.5z"/>
		<path class="st3" d="M279.3,173.5l3-0.3c2.7-0.3,5.1,1.6,5.4,4.3l4.5,40.6c0.4,3.5-2.1,6.6-5.6,7h-0.2c-3.5,0.4-6.6-2.1-6.9-5.6
			l0,0l-4.5-40.6C274.7,176.2,276.6,173.7,279.3,173.5C279.3,173.4,279.3,173.4,279.3,173.5L279.3,173.5z"/>
		<path class="st6" d="M283.7,207.3c0,0-7.1,0.3-8.1,1.5s-0.8,5.5,1.1,6c4.9,1.3,15.4,0.5,15.8-0.3s1.3-6-0.9-6.5
			C288.9,207.5,286.3,207.3,283.7,207.3z"/>
		<path class="st6" d="M281.6,197.4c0,0-8.3-0.3-9.6,1.2s-1.5,7.1,0.6,7.9c5.6,2.1,18.1,1.3,18.6,0.2s1.8-6.8-0.6-7.7
			S281.6,197.4,281.6,197.4z"/>
		<path class="st6" d="M280.4,186.2c0,0-8.8-0.3-10.2,1.3s-1.6,7.5,0.7,8.4c6,2.3,19,2.3,19.6,1.1s2.3-8.2-0.4-9.1
			S280.4,186.2,280.4,186.2z"/>
		<path class="st6" d="M275.3,175.7c0,0-8.8-0.3-10.2,1.3s-1.7,7.7,0.7,8.4s19,2.3,19.6,1.1s2.3-8.2-0.4-9.2
			S275.3,175.7,275.3,175.7z"/>
		<path class="st6" d="M304.3,205.1c-1.6-0.4-3.1-1.1-4.5-2.1c-7.1-4.9-6.9-16.2-6.9-16.2l-1.7-0.5c-1.4-0.5-2.7-1.3-3.9-2.2
			c0.6,2.3,0.9,4.7,1,7.1c-0.1,2.7-2.2,5-4.9,5.2c-2.2,0.3-3.2,0.5-3.9-2.5s-4.4-14.7-4.7-16.4c-0.2-1.6,2.4-4.3,6.6-5
			c6.4,0.5,12.7,2.3,19.2,2.3c2.2,0.2,4.4,1,6.3,2.3"/>
		<path class="st6" d="M311,205.8c-0.8,0-1.6,0-2.3,0"/>
		<path class="st6" d="M316.3,204.8c-1.7,0.5-3.5,0.9-5.2,1"/>
		<line class="st9" x1="325.1" y1="201.6" x2="333.9" y2="201.6"/>
		<line class="st9" x1="325.8" y1="204.1" x2="329.5" y2="204.1"/>
		<path class="st9" d="M293,186.9c0,0,4.9,0,8.1-2.9"/>
		<path class="st9" d="M287.2,183.9c-0.1-1.3-0.4-2.6-0.8-3.9"/>
		<path class="st10" d="M279.4,192.8c0,0-0.9-2.6,0.2-3.5s4.1-2.3,4.6-1.2s1.6,5.8,1.3,6.7l-0.3,0.9"/>
		<polyline class="st5" points="415,224 330.4,224 330.4,182.5 415,182.5 		"/>
		<circle class="st6" cx="336.6" cy="219.4" r="1.9"/>
		<path class="st6" d="M202.3,142.9c1.5-0.6,2.6-1.7,3.2-3.2c0.5-1.1,0.4-2.6,1.3-4.4c2.2-3.9,0.2-13.7,1-20.9s-7.1-16.7-7.1-16.7
			l1.5-28.2h-28c0,0,1.2,29.4-1.2,35.8s-7.6,13.5-7.4,16.7s3.2,29.4,3.2,29.4L202.3,142.9L202.3,142.9z"/>
		<path class="st6" d="M89.4,150.2c1.8,16.3,16.4,28,32.7,26.2s28-16.4,26.2-32.7s-16.4-28-32.7-26.2l0,0h-0.1
			C99.3,119.3,87.6,133.9,89.4,150.2z M142.4,144.3c1.5,13.1-7.9,24.8-21,26.3s-24.8-7.9-26.3-21s7.9-24.8,21-26.3l0,0
			C129.2,121.8,141,131.2,142.4,144.3z"/>
		<path class="st6" d="M87.7,150.4c1.8,16.3,16.4,28,32.7,26.2s28-16.4,26.2-32.7s-16.4-28-32.7-26.2
			C97.6,119.4,85.9,134.1,87.7,150.4C87.7,150.3,87.7,150.4,87.7,150.4z M140.8,144.5c1.4,13-8,24.8-21,26.2s-24.8-8-26.2-21
			c-1.4-13,8-24.8,21-26.2C127.6,122,139.3,131.4,140.8,144.5L140.8,144.5z"/>
		<path class="st5" d="M149.7,139.7l20.5-2.3c1.6-0.2,3,1,3.2,2.5l0.2,1.4c0.2,1.6-1,3-2.5,3.2l-20.5,2.3c-1.6,0.2-3-1-3.2-2.5
			l-0.2-1.4C147,141.3,148.1,139.9,149.7,139.7z"/>
		<path class="st3" d="M164.3,143.3l-0.3-3c-0.3-2.7,1.7-5.1,4.4-5.4l40.6-4.5c3.5-0.4,6.6,2.1,7,5.5l0,0l0,0v0.2
			c0.4,3.5-2.1,6.6-5.5,7l0,0l0,0l-40.6,4.5C167,148,164.6,146,164.3,143.3z"/>
		<path class="st6" d="M198.1,139c0,0,0.3,7.1,1.5,8.1s5.5,0.8,6-1.1c1.3-4.9,0.5-15.4-0.3-15.8s-6-1.3-6.5,0.9
			C198.3,133.7,198.1,136.3,198.1,139z"/>
		<path class="st6" d="M188.2,141c0,0-0.3,8.3,1.2,9.6s7.1,1.6,7.9-0.6c2.1-5.6,1.3-18.1,0.2-18.6s-6.8-1.8-7.7,0.6
			S188.2,141,188.2,141z"/>
		<path class="st6" d="M177,142.2c0,0-0.3,8.8,1.3,10.2s7.6,1.6,8.4-0.7c2.3-5.9,2.3-19,1.1-19.6s-8.2-2.3-9.1,0.4
			S177,142.2,177,142.2z"/>
		<path class="st6" d="M166.5,147.3c0,0-0.3,8.8,1.3,10.2s7.7,1.7,8.4-0.7s2.3-19,1.1-19.6s-8.2-2.2-9.1,0.4
			S166.5,147.3,166.5,147.3z"/>
		<path class="st6" d="M196.5,111.6c0.4,3.9-0.5,7.9-2.7,11.2c-4.9,7.1-16.2,6.9-16.2,6.9l-0.5,1.7c-0.5,1.4-1.3,2.7-2.2,3.9
			c2.3-0.6,4.7-0.9,7.1-1c2.7,0.1,4.9,2.2,5.1,4.9c0.3,2.2,0.5,3.2-2.4,3.9s-14.7,4.4-16.4,4.7c-1.6,0.2-4.3-2.4-5-6.6
			c0.5-6.4,2.3-12.7,2.3-19.2c0.2-2.3,1-4.4,2.3-6.3"/>
		<path class="st6" d="M195.6,106.4c0.3,0.9,0.5,1.9,0.7,2.9"/>
		<line class="st9" x1="192.4" y1="97.5" x2="192.4" y2="88.7"/>
		<line class="st9" x1="194.8" y1="96.8" x2="194.8" y2="93.1"/>
		<path class="st9" d="M177.7,129.7c0,0,0-4.9-2.9-8.1"/>
		<path class="st9" d="M174.7,135.4c-1.3,0.1-2.6,0.4-3.9,0.8"/>
		<path class="st10" d="M183.5,143.2c0,0-2.6,0.9-3.5-0.2s-2.3-4.1-1.2-4.6s5.8-1.6,6.7-1.3l0.9,0.3"/>
		<polyline class="st5" points="214.8,7.6 214.8,92.2 173.3,92.2 173.3,7.6 		"/>
		<circle class="st6" cx="210.1" cy="86" r="1.9"/>
		<path class="st6" d="M160.4,293.5c-0.6,1.5-1.7,2.6-3.2,3.2c-1.1,0.5-2.6,0.4-4.4,1.3c-3.9,2.2-13.7,0.3-20.9,1
			s-16.7-7.1-16.7-7.1L87,293.4v-28c0,0,29.4,1.2,35.8-1.2s13.5-7.6,16.7-7.4s29.4,3.2,29.4,3.2L160.4,293.5z"/>
		<path class="st6" d="M167.7,180.6c16.3,1.8,28,16.4,26.2,32.7s-16.4,28-32.7,26.2s-28-16.4-26.2-32.7l0,0l0,0
			C136.8,190.6,151.4,178.9,167.7,180.6L167.7,180.6z M161.8,233.7c13.1,1.5,24.8-7.9,26.3-21s-7.9-24.8-21-26.3s-24.8,7.9-26.3,21
			l0,0C139.3,220.5,148.7,232.3,161.8,233.7z"/>
		<path class="st6" d="M167.9,179c16.3,1.8,28,16.5,26.2,32.7c-1.8,16.3-16.5,28-32.7,26.2c-16.3-1.8-28-16.4-26.2-32.7
			C136.9,188.9,151.6,177.2,167.9,179C167.8,179,167.8,179,167.9,179z M162,232c13.1,1.5,24.8-7.9,26.3-21s-7.9-24.8-21-26.3
			s-24.8,7.9-26.3,21l0,0C139.5,218.8,148.9,230.6,162,232L162,232z"/>
		<path class="st5" d="M154.9,261.5l2.3-20.5c0.2-1.6,1.6-2.7,3.2-2.5l1.4,0.2c1.6,0.2,2.7,1.6,2.5,3.2l-2.3,20.5
			c-0.2,1.6-1.6,2.7-3.2,2.5l-1.4-0.2C155.9,264.5,154.7,263.1,154.9,261.5z"/>
		<path class="st3" d="M153.7,307.1h-0.2c-3.5-0.4-6-3.5-5.6-6.9c0,0,0,0,0-0.1l4.5-40.6c0.3-2.7,2.7-4.7,5.4-4.4l0,0l3,0.3
			c2.7,0.3,4.7,2.7,4.4,5.4l-4.5,40.6C160.3,305.1,157.2,307.6,153.7,307.1C153.7,307.2,153.7,307.2,153.7,307.1L153.7,307.1z"/>
		<path class="st6" d="M156.4,289.4c0,0,7.1,0.3,8.1,1.5s0.8,5.5-1.1,6c-4.9,1.3-15.4,0.5-15.8-0.3s-1.3-6,0.9-6.5
			C151.1,289.6,153.8,289.4,156.4,289.4z"/>
		<path class="st6" d="M158.5,279.5c0,0,8.3-0.3,9.6,1.2s1.6,7.1-0.6,7.9c-5.6,2.1-18.1,1.3-18.6,0.2s-1.8-6.8,0.6-7.7
			S158.5,279.5,158.5,279.5z"/>
		<path class="st6" d="M159.7,268.3c0,0,8.8-0.3,10.2,1.3s1.6,7.5-0.7,8.4c-6,2.3-19,2.3-19.6,1.1s-2.3-8.2,0.4-9.2
			S159.7,268.3,159.7,268.3z"/>
		<path class="st6" d="M164.8,257.8c0,0,8.8-0.3,10.2,1.3s1.7,7.7-0.7,8.5s-19,2.3-19.6,1.1s-2.2-8.2,0.4-9.1
			S164.8,257.8,164.8,257.8z"/>
		<path class="st6" d="M130.4,287.9c3.5,0.1,6.9-0.8,9.9-2.7c7.1-4.9,6.9-16.2,6.9-16.2l1.7-0.5c1.4-0.5,2.7-1.3,3.9-2.2
			c-0.6,2.3-0.9,4.7-1,7.1c0.1,2.7,2.2,4.9,4.9,5.2c2.2,0.2,3.2,0.5,3.9-2.5s4.4-14.7,4.7-16.4s-2.4-4.4-6.6-5
			c-6.4,0.5-12.7,2.3-19.2,2.3c-2.2,0.2-4.4,1-6.3,2.3"/>
		<path class="st6" d="M123.9,286.8c1.4,0.4,2.8,0.7,4.3,0.9"/>
		<line class="st9" x1="115" y1="283.7" x2="106.2" y2="283.7"/>
		<line class="st9" x1="114.3" y1="286.1" x2="110.6" y2="286.1"/>
		<path class="st9" d="M147.2,268.9c0,0-4.9,0-8.1-2.9"/>
		<path class="st9" d="M152.9,265.9c0.1-1.3,0.4-2.6,0.8-3.9"/>
		<path class="st10" d="M160.7,274.8c0,0,0.9-2.6-0.2-3.5s-4.1-2.3-4.6-1.2s-1.6,5.8-1.3,6.7l0.3,0.9"/>
		<polyline class="st5" points="25.1,306.1 109.7,306.1 109.7,264.5 25.1,264.5 		"/>
		<path class="st6" d="M101.6,301.4c0,1,0.9,1.9,1.9,1.9s1.9-0.9,1.9-1.9s-0.9-1.9-1.9-1.9l0,0l0,0
			C102.4,299.5,101.6,300.4,101.6,301.4z"/>
	</g>
</g>
</svg>
