<?xml version="1.0" encoding="utf-8"?>
<!-- Generator: Adobe Illustrator 22.0.0, SVG Export Plug-In . SVG Version: 6.00 Build 0)  -->
<svg version="1.1" id="Layer_1" xmlns="http://www.w3.org/2000/svg" xmlns:xlink="http://www.w3.org/1999/xlink" x="0px" y="0px"
	 viewBox="0 0 471 435" style="enable-background:new 0 0 471 435;" xml:space="preserve">
<style type="text/css">
	.st0{fill:#263238;}
	.st1{fill:#936754;}
	.st2{fill:#7C5142;}
	.st3{fill:#195F0E;}
	.st4{opacity:0.6;}
	.st5{fill:#FFFFFF;}
	.st6{opacity:0.3;}
	.st7{fill:#455A64;}
	.st8{fill:#FAFAFA;}
	.st9{fill:#EB996E;}
	.st10{fill:#D1734A;}
	.st11{fill:#FFBE9D;}
	.st12{opacity:0.2;}
	.st13{fill:#B78876;}
	.st14{fill:#F5F5F5;}
</style>
<g id="freepik--Floor--inject-14">
	<path class="st0" d="M458.6,409.2c0,0.1-98.2,0.3-219.3,0.3s-219.4-0.1-219.4-0.3s98.2-0.3,219.4-0.3S458.6,409.1,458.6,409.2z"/>
</g>
<g id="freepik--character-4--inject-14">
	<path class="st0" d="M375.3,52.1c-7.2-3.1-15.5,1.3-18.7,6.2S352,69,351.1,74.8c-1.9,11.9-2.2,24-0.9,36c0.4,3.5,1.1,7.4,3.8,9.7
		s6.3,2.4,9.6,1.8c3-0.5,6-1.7,8-4c3-3.6,2.6-8.8,2.3-13.5c-1.1-16.1,0.6-32.3,5-47.8"/>
	<path class="st0" d="M359.7,58.6c3.3-6.5,13.3-10.1,21.4-7.9c6.8,1.8,14.1,8.8,14.6,16c0.7,10.4-4.9,21.1-1.6,31
		c3.9,11.5,18.2,17.1,21.9,28.7c1.5,4.9,1,10.1-1.6,14.5c-1.3,2.2-3.3,4.3-5.8,4.7c-3.2,0.5-6.1-1.6-8.6-3.6
		c-6.8-5.4-13.6-11-18.4-18.3c-5.5-8.6-7.7-19-7.8-29.3s1.7-20.4,3.6-30.4"/>
	<path class="st1" d="M388.2,71.3c1.1-8.4-4.9-16.2-13.4-17.2c-0.2,0-0.3,0-0.5-0.1c-8.2-0.8-15.5,5.3-16.8,13.5
		c-1.1,7.2-2,14.4-2,17c0.1,7.9,4.7,11,6.6,11.9c0.7,0.2,1.4,0.4,2.1,0.5l0,0c0,0,0,0,0,0.1l-1.8,9.1c-0.8,5.9,2.5,11.3,8.5,12.1
		s10.6-3.7,11.5-9.6L388.2,71.3z"/>
	<path class="st0" d="M359.5,71.4c-0.1,0.7,0.3,1.3,1,1.4c0.7,0.1,1.3-0.3,1.4-0.9c0,0,0,0,0,0c0.1-0.7-0.3-1.3-1-1.4
		C360.3,70.3,359.6,70.8,359.5,71.4C359.5,71.4,359.5,71.4,359.5,71.4z"/>
	<path class="st0" d="M359.5,69.7c0.1,0.2,1.2-0.4,2.5-0.2s2.2,1,2.4,0.9s0-0.4-0.4-0.8c-0.5-0.5-1.2-0.8-1.9-0.9
		c-0.7-0.1-1.4,0-2,0.3C359.6,69.3,359.4,69.6,359.5,69.7z"/>
	<path class="st0" d="M372.1,73.5c-0.1,0.7,0.3,1.3,1,1.4c0.6,0.2,1.3-0.2,1.4-0.9c0,0,0,0,0,0c0.1-0.7-0.3-1.3-1-1.4
		C372.9,72.4,372.3,72.8,372.1,73.5C372.1,73.5,372.1,73.5,372.1,73.5z"/>
	<path class="st0" d="M372.6,71.8c0.1,0.2,1.2-0.4,2.5-0.2s2.2,1,2.4,0.9s0-0.4-0.4-0.8c-0.5-0.5-1.2-0.8-1.9-0.9
		c-0.7-0.1-1.4,0-2,0.3C372.7,71.5,372.5,71.7,372.6,71.8z"/>
	<path class="st0" d="M366.3,81c-0.7-0.3-1.4-0.6-2.1-0.7c-0.3-0.1-0.6-0.2-0.7-0.4c0-0.4,0.2-0.7,0.4-1c0.4-0.8,0.9-1.6,1.4-2.4
		c1.3-2.1,2.3-4.2,3.3-6.5c-1.4,2-2.7,4-3.8,6.2c-0.5,0.9-0.9,1.7-1.4,2.5c-0.3,0.4-0.4,0.9-0.4,1.4c0.1,0.3,0.2,0.5,0.5,0.6
		c0.2,0.1,0.4,0.1,0.6,0.2C364.8,80.9,365.5,81,366.3,81z"/>
	<path class="st2" d="M364.4,97c0,0,5.1,1.2,12.1-1.8c0,0-3,6.5-12.6,4.2L364.4,97z"/>
	<path class="st2" d="M366.4,84.4c0.6-0.6,1.5-0.8,2.3-0.6c0.6,0.1,1.1,0.5,1.4,1c0.3,0.5,0.2,1.2-0.1,1.6c-0.5,0.4-1.2,0.5-1.8,0.2
		c-0.6-0.3-1.1-0.8-1.6-1.3c-0.1-0.1-0.2-0.3-0.3-0.4C366.2,84.7,366.2,84.5,366.4,84.4"/>
	<path class="st0" d="M370.1,82.5c-0.2,0-0.4,1.4-1.8,2.3s-2.9,0.5-3,0.7s0.3,0.3,1,0.4c0.9,0.1,1.7,0,2.5-0.5
		c0.7-0.4,1.2-1.1,1.4-1.9C370.3,82.9,370.2,82.6,370.1,82.5z"/>
	<path class="st0" d="M372.3,69.4c0.1,0.4,1.4,0.4,3,0.8s2.8,1,3,0.7c0.1-0.1,0-0.5-0.5-0.9c-0.6-0.5-1.4-0.9-2.1-1.1
		c-0.8-0.2-1.6-0.2-2.4-0.1C372.6,69,372.3,69.2,372.3,69.4z"/>
	<path class="st0" d="M360.4,67c0.2,0.3,1.2,0.2,2.3,0.3s2,0.5,2.3,0.2s0-0.5-0.4-0.8c-0.5-0.4-1.1-0.7-1.8-0.8
		c-0.7-0.1-1.3,0-1.9,0.3C360.5,66.5,360.3,66.8,360.4,67z"/>
	<path class="st0" d="M363.8,55c1,6.1,5.4,11.2,11.3,13l-0.5-2.2c2.6,5.1,7.1,9.1,12.5,11.1c4.4-7.5,1.9-17.2-5.6-21.7
		c-5.6-3.3-12.5-2.8-17.7,1.1"/>
	<path class="st0" d="M415,132.6c0.6-0.7,1.1-1.6,1.5-2.4c1.1-2.4,1.3-5,0.8-7.6c-0.4-1.8-1-3.5-1.9-5c-1.1-1.8-2.3-3.4-3.8-4.9
		c-3-3.2-7-6-10.6-9.6c-1.8-1.7-3.3-3.8-4.4-6c-1-2.1-1.6-4.4-1.9-6.7c-0.4-3.9-0.4-7.8,0-11.7c0.3-3.3,0.5-6,0.7-7.8
		c0.1-0.9,0.1-1.6,0.2-2.1c0-0.2,0.1-0.5,0.1-0.7c0,0.2,0,0.5,0,0.8c0,0.5-0.1,1.3-0.1,2.1c-0.1,1.9-0.3,4.6-0.5,7.8
		c-0.3,3.9-0.3,7.7,0.2,11.6c0.3,2.3,0.9,4.4,1.9,6.5c1.1,2.2,2.5,4.2,4.3,5.9c3.6,3.6,7.5,6.4,10.5,9.6c1.5,1.5,2.7,3.2,3.8,5
		c0.9,1.6,1.6,3.3,1.9,5.1c0.5,2.6,0.2,5.3-1,7.8c-0.3,0.6-0.7,1.2-1.2,1.8C415.4,132.3,415.2,132.4,415,132.6z"/>
	<path class="st3" d="M422.7,378.1l4.7,23.2l9,17.3c0.6,1.2,0.2,2.7-1,3.3c-0.1,0-0.1,0.1-0.2,0.1l0,0c-0.7,0.3-1.5,0.3-2.2-0.1
		c-4.3-2.6-20.1-12.1-20.3-13.9c-0.3-2-6.6-24.2-6.6-24.2L422.7,378.1z"/>
	<g class="st4">
		<path class="st5" d="M435.3,422l-22.9-15.6l0.2,1c0.2,0.8,0.7,1.6,1.4,2.1c1.9,1.4,7.1,5.1,19,12.4
			C433.7,422.3,434.6,422.4,435.3,422L435.3,422z"/>
	</g>
	<g class="st4">
		<path class="st5" d="M415.5,397.9c0.7,0.3,1,1.1,0.8,1.8c-0.3,0.7-1,1.1-1.8,0.8c-0.7-0.3-1.1-1.1-0.9-1.9c0.4-0.7,1.2-1,1.9-0.7"
			/>
	</g>
	<path class="st0" d="M427.7,413.1c0.4-0.8,0.9-1.6,1.6-2.3c0.8-0.5,1.6-0.9,2.5-1.1c0-0.1-0.3-0.2-0.9-0.1
		c-1.5,0.2-2.8,1.2-3.2,2.6C427.6,412.7,427.6,413.1,427.7,413.1z"/>
	<path class="st0" d="M430.1,415.8c0.1,0.1,0.7-0.9,1.8-1.5c0.7-0.3,1.5-0.6,2.2-0.8c-0.8-0.3-1.7-0.1-2.5,0.4
		C430.4,414.6,429.9,415.8,430.1,415.8z"/>
	<path class="st0" d="M423.7,409.8c0.8-0.9,1.7-1.7,2.7-2.5c1-0.6,2.1-1.1,3.3-1.6C427.1,405.9,424.8,407.4,423.7,409.8L423.7,409.8
		z"/>
	<path class="st0" d="M421.7,402.9c0.1,0.1,1.3-0.7,2.9-1.1s3-0.3,3.1-0.5C425.5,400.6,423.2,401.3,421.7,402.9L421.7,402.9z"/>
	<path class="st0" d="M420.1,396.1c0.9-0.5,1.9-1,3-1.3c1.1-0.1,2.2-0.1,3.2,0.1c0-0.1-0.3-0.3-0.9-0.5c-1.6-0.5-3.4-0.1-4.7,0.9
		C420.3,395.7,420.1,396,420.1,396.1z"/>
	<path class="st0" d="M422.8,393.5c0-0.3,0-0.6-0.2-0.9c-0.3-0.8-0.7-1.5-1.2-2.1c-0.4-0.5-0.9-0.8-1.5-1c-0.4-0.1-0.8,0.1-1,0.5
		c-0.2,0.3-0.2,0.8-0.1,1.1c0.5,1.6,2,2.6,3.6,2.4c1.6-0.2,2.9-1.3,3.4-2.9c0.1-0.4,0-0.8-0.2-1.1c-0.3-0.3-0.7-0.4-1.1-0.3
		c-0.5,0.3-1,0.6-1.3,1.1c-0.5,0.6-0.9,1.4-1.2,2.2c-0.1,0.3-0.2,0.6-0.2,0.9c0.4-1,1-2,1.6-2.8c0.3-0.4,0.7-0.8,1.2-1
		c0.2-0.1,0.5,0,0.6,0.1c0.1,0.2,0.2,0.5,0.1,0.8c-0.4,1.3-1.6,2.3-3,2.5c-1.4,0.1-2.7-0.7-3.1-2c-0.1-0.3-0.1-0.5,0-0.8
		c0.1-0.2,0.3-0.3,0.6-0.3c0.5,0.1,0.9,0.4,1.3,0.9C421.9,391.6,422.4,392.5,422.8,393.5z"/>
	<path class="st3" d="M359.9,380.5l1.1,18.9c0,0-18.8,7.5-19,11l36.7-0.8l-0.5-29.5L359.9,380.5z"/>
	<g class="st4">
		<path class="st5" d="M372.3,397.6c0.7,0.2,1.2,0.9,1.1,1.7c-0.2,0.7-0.9,1.2-1.7,1.1c-0.8-0.2-1.3-1-1.1-1.8
			c0.3-0.8,1.1-1.2,1.9-0.9"/>
	</g>
	<g class="st4">
		<path class="st5" d="M378.8,409.6l-0.2-3l-35.1,1.9c0,0-1.6,0.8-1.4,1.9L378.8,409.6z"/>
	</g>
	<path class="st0" d="M360.4,399.2c0,0.2,0.9,0.2,1.8,0.8s1.4,1.3,1.5,1.2s-0.1-1.1-1.2-1.8S360.4,399.1,360.4,399.2z"/>
	<path class="st0" d="M356.6,400.9c0,0.2,0.8,0.5,1.4,1.2s0.8,1.5,1,1.5s0.3-1-0.5-1.9S356.6,400.7,356.6,400.9z"/>
	<path class="st0" d="M354.5,405.6c0.2,0,0.4-0.9-0.1-1.8s-1.3-1.3-1.4-1.2s0.5,0.7,0.8,1.5S354.4,405.5,354.5,405.6z"/>
	<path class="st0" d="M360.7,394.9c0.1,0.2,0.9-0.1,1.9-0.1s1.8,0.4,1.9,0.2s-0.7-0.8-1.9-0.8S360.6,394.8,360.7,394.9z"/>
	<g class="st6">
		<polygon points="360.2,384.3 360.4,387.6 378.4,387.1 378.3,384 		"/>
	</g>
	<path class="st0" d="M360.5,391.1c0.6,0.1,1.2,0.1,1.8,0c0.7-0.1,1.3-0.3,1.9-0.6c0.3-0.2,0.7-0.4,1-0.6c0.2-0.1,0.4-0.3,0.5-0.4
		c0.3-0.3,0.3-0.7,0.1-1c-0.2-0.2-0.5-0.4-0.8-0.4c-0.2,0-0.5,0-0.7,0.1c-0.4,0.1-0.8,0.2-1.1,0.4c-0.6,0.3-1.2,0.7-1.7,1.1
		C360.8,390.5,360.5,391.2,360.5,391.1c0.1,0.1,0.5-0.4,1.4-1.1c0.5-0.4,1-0.7,1.6-1c0.3-0.1,0.7-0.3,1-0.4c0.4-0.1,0.7-0.1,0.8,0
		s0,0.1,0,0.2c-0.1,0.1-0.3,0.2-0.4,0.3c-0.3,0.2-0.7,0.4-1,0.6c-0.6,0.3-1.2,0.5-1.8,0.7C361.6,390.7,361,390.9,360.5,391.1z"/>
	<path class="st0" d="M360.8,391.4c0.3-0.5,0.5-1.2,0.4-1.8c0-0.7-0.1-1.4-0.3-2c-0.1-0.4-0.3-0.8-0.5-1.1c-0.2-0.5-0.7-0.8-1.2-0.9
		c-0.3,0-0.6,0.2-0.8,0.5c-0.1,0.2-0.2,0.4-0.2,0.7c-0.1,1.1,0.2,2.2,0.9,3.1c0.7,0.9,1.5,1.1,1.5,1.1s-0.6-0.4-1.1-1.3
		c-0.3-0.5-0.5-1.1-0.6-1.7c0-0.4,0-0.7,0-1.1c0-0.4,0.2-0.7,0.3-0.7s0.5,0.3,0.7,0.6c0.2,0.3,0.3,0.7,0.5,1
		c0.2,0.6,0.3,1.2,0.4,1.8C360.8,390.6,360.6,391.3,360.8,391.4z"/>
	<path class="st0" d="M388.4,178.6c0,0,10.8,23.4,12.4,30.2s31.7,187.3,31.7,187.3l-27.7,1.7l-37.6-176.5l15.1,175.3l-27.2,2.3
		c0,0-20.6-185.2-19.7-190.4c1.3-7.9,8-30.6,8-30.6L388.4,178.6z"/>
	<path class="st7" d="M367.1,220.1c0,0,0,0.1-0.2,0.3c-0.3,0.2-0.8,0.1-1.1-0.1c-0.4-0.4-0.6-1-0.6-1.6l-0.4-2.1
		c-0.5-3.2-1.2-7.6-1.9-12.5s-1.4-9.3-1.8-12.5c-0.2-1.5-0.4-2.8-0.5-3.8c-0.1-0.5-0.1-0.9-0.1-1.4c0.1,0.4,0.3,0.9,0.3,1.4
		c0.2,1,0.4,2.3,0.6,3.8c0.5,3.2,1.2,7.6,2,12.5s1.4,9.3,1.8,12.5c0.1,0.8,0.2,1.5,0.3,2.2c0,0.5,0.2,1,0.5,1.5
		c0.2,0.2,0.6,0.3,0.9,0.2C367.1,220.2,367.1,220.1,367.1,220.1z"/>
	<path class="st7" d="M364.3,190c0,0,0-0.2,0.3-0.3c0.3-0.2,0.7-0.2,1.1-0.2c0.6,0.1,1.1,0.6,1.2,1.2c0.1,0.7-0.2,1.5-0.9,1.8
		c-0.7,0.3-1.5,0.2-2-0.3c-0.4-0.4-0.6-1-0.5-1.6c0.2-1,0.9-1.2,0.9-1.1c-0.3,0.3-0.5,0.7-0.5,1.2c-0.1,0.4,0.1,0.9,0.4,1.2
		c0.4,0.4,1,0.4,1.5,0.2c0.5-0.3,0.7-0.8,0.6-1.3c-0.1-0.4-0.4-0.8-0.8-0.9C365.2,189.8,364.7,189.8,364.3,190z"/>
	<path class="st1" d="M316.7,75.2l-17-26.2l0,0l-5.2-8.6c0,0-1.5-8.6-2.3-11.1c-1.5-5-2-4.9-2.5-4.6c-1.5,0.7,2.3,8.9,0.5,7.6
		s-3.5-10.5-5-9.7c-2,1.1,2.2,9.6,2.5,10.3s-0.8,1.2-1,0.5c-0.3-1-4.1-11.2-6.1-10.2c-1.1,0.6,0.1,2.4,0.1,2.4s4.2,9.3,3.3,9.8
		s-3.6-4.9-4.4-6.8s-2-2.3-2.5-1.2c-0.4,0.7,1.9,6.5,2.7,8.4s3.1,6.9,0,5.3s-6.1-1.6-7-1c-0.5,0.4-0.5,1.1-0.1,1.6
		c0.2,0.3,0.5,0.4,0.9,0.4c1.2,0.2,2.3,0.5,3.4,0.9c0.9,0.3,1.7,0.8,2.4,1.4c0.9,0.7,1.5,1.4,2.1,1.9l4.2,8.8l0,0l18.6,36.5
		l38.9,32.2l9.8-17.7L316.7,75.2z"/>
	<path class="st1" d="M417.2,221.4c0.2,0.8,0.5,1.7,0.8,2.8c0.2,0.9,0.3,1.9,0.2,2.8c-0.1,1.2-0.3,2.3-0.7,3.5c-0.5,1,0.5,2,1.4,1.6
		s2.3-3.1,2.3-6.6s3.5,0.8,4.7,2.4s5.4,6.2,6.2,6.2c1.2,0,1.4-1.3,0-2.8s-4.9-6.4-4-7s7.2,7.4,7.2,7.4s1.1,1.9,2.1,1.3
		c1.8-1.3-5.5-9.3-6.3-10.1c-0.5-0.5,0.4-1.2,0.9-0.6s6.1,8.2,8,6.9c1.4-1-6-6.7-6.3-8.9s5.2,4.9,6.5,3.9c0.5-0.4,0.8-0.7-2.9-4.3
		c-1.8-1.8-8.8-7.1-8.8-7.1L413.8,164l-18.4,0.3L417.2,221.4z"/>
	<path class="st3" d="M360.4,106.1L360.4,106.1c-3-1.1-5.9-2.5-8.8-3.9l-29.1-22.1l-13,17.4c0,0,33.2,30,33.8,29.8
		S360.4,106.1,360.4,106.1z"/>
	<path class="st3" d="M362.6,106.1l-2.2,0.1c-6.4,0.2-11.9,4.4-13.9,10.4c-2.2,6.7-2.1,8.9-3.6,13.9c-3.7,11.9,2.9,26.4,2.9,26.4
		l-2.3,21l44.9,0.8l2.3-25.3l8.4-37.9c0,0-1.9-8.1-9-8.8C386.4,106.3,362.6,106.1,362.6,106.1z"/>
	<path class="st3" d="M391.4,107.3c0,0,10.6-0.1,13.9,12.2s9.7,44.5,9.7,44.5l-20.2,6.1L384,125.9c-0.8-2.5-1-5.1-0.9-7.8
		C383.5,113.7,385.1,107.9,391.4,107.3z"/>
	<polygon class="st3" points="359.5,106.7 363,99.9 369,103.3 369,106.2 370.9,103.3 385,99.9 385,108.3 368.5,110.1 	"/>
	<path class="st0" d="M348.4,117c-0.2,0.5-0.5,1-0.8,1.4c-0.3,0.4-0.6,1-0.9,1.7s-0.7,1.4-1.1,2.3s-0.8,1.8-1.1,2.8s-0.7,2.1-1,3.3
		c-1.3,5.2-1.7,10.5-1,15.8c0.2,1.2,0.3,2.4,0.6,3.4c0.2,1,0.4,2,0.7,2.9c0.2,0.9,0.5,1.7,0.8,2.4c0.2,0.6,0.4,1.2,0.7,1.8
		c0.2,0.5,0.4,1,0.5,1.5c-0.3-0.5-0.5-0.9-0.7-1.4c-0.3-0.6-0.5-1.2-0.8-1.8c-0.3-0.7-0.6-1.5-0.8-2.4c-0.3-1-0.6-2-0.8-3
		c-0.3-1.1-0.4-2.2-0.6-3.5c-0.3-2.7-0.4-5.3-0.3-8c0.2-2.7,0.6-5.3,1.3-7.9c0.4-1.2,0.7-2.3,1.1-3.4c0.3-1,0.7-1.9,1.2-2.8
		c0.3-0.8,0.7-1.5,1.1-2.3c0.3-0.6,0.6-1.1,1-1.6C347.8,117.9,348,117.4,348.4,117z"/>
	<path class="st0" d="M367.9,102.8c-0.1,0.7-0.3,1.4-0.5,2.1c-0.4,1.3-1,3-1.6,4.8c-0.1,0.3-0.2,0.6-0.3,0.9l-0.1,0.3l-0.3-0.2
		c-1.3-0.8-2.5-1.7-3.6-2.8c-0.5-0.4-0.9-0.9-1.2-1.4c1.6,1.3,3.3,2.6,5,3.7l-0.4,0.1l0.3-0.9c0.7-1.9,1.3-3.6,1.8-4.8
		C367.2,104,367.6,103.4,367.9,102.8z"/>
	<path class="st0" d="M379.6,109c-0.7,0.4-1.4,0.7-2.1,0.9c-1.3,0.5-3.2,1.2-5.3,1.9l-0.3,0.1v-0.3v-0.3c-0.3-2.2-0.6-4.3-0.8-5.7
		c-0.1-0.8-0.2-1.6-0.2-2.4c0.3,0.8,0.4,1.5,0.5,2.4c0.3,1.4,0.6,3.5,0.9,5.7v0.3l-0.3-0.2c2.1-0.7,4-1.3,5.4-1.7
		C378.1,109.3,378.8,109.1,379.6,109z"/>
	<path class="st0" d="M387,169.6c2,2.1,2.5,5.3,1.3,7.9c0.2-1.4,0.2-2.7,0-4.1C388,172.2,387.6,170.9,387,169.6z"/>
	<path class="st8" d="M413.3,157c-0.9,0.4-1.9,0.7-2.9,0.9c-1.8,0.5-4.3,1-7.1,1.6s-5.3,0.9-7.2,1.1c-1,0.2-2,0.2-3,0.2
		c1-0.3,2-0.5,3-0.6c1.8-0.3,4.4-0.7,7.1-1.3s5.3-1,7.1-1.4C411.3,157.3,412.3,157.1,413.3,157z"/>
	<path class="st8" d="M411,144.7c-1,0.5-2,0.8-3,1.1c-1.9,0.6-4.5,1.3-7.3,2s-5.5,1.4-7.4,1.8c-1,0.3-2,0.6-3.1,0.7
		c1-0.5,2-0.8,3-1.1c1.9-0.6,4.5-1.3,7.3-2s5.5-1.3,7.4-1.8C408.9,145.2,410,144.9,411,144.7z"/>
	<path class="st0" d="M394.8,170.2c-0.2-0.4-0.3-0.8-0.4-1.2c-0.2-0.9-0.5-1.9-0.8-3.2c-0.7-2.7-1.5-6.5-2.5-10.7s-1.8-8-2.3-10.7
		c-0.3-1.3-0.5-2.4-0.6-3.3c-0.1-0.4-0.2-0.8-0.2-1.2c0.2,0.4,0.3,0.8,0.4,1.2l0.8,3.2c0.7,2.7,1.5,6.5,2.5,10.7s1.8,8,2.3,10.7
		c0.3,1.3,0.5,2.4,0.6,3.3C394.8,169.3,394.8,169.8,394.8,170.2z"/>
	<path class="st8" d="M409.9,135.3c0,0.1-15.1-0.1-33.6-0.6s-33.6-1-33.6-1.2s15.1,0.1,33.6,0.6S409.9,135.1,409.9,135.3z"/>
	<path class="st8" d="M404.8,118.2c-0.2,0.1-0.4,0.1-0.6,0.1l-1.7,0.1c-1.5,0.1-3.6,0.3-6.2,0.4c-5.2,0.3-12.4,0.6-20.4,0.9
		s-15.2,0.3-20.4,0.2c-2.6,0-4.7,0-6.2-0.1l-1.7-0.1c-0.2,0-0.4,0-0.6-0.1c0.2,0,0.4,0,0.6,0l1.7-0.1l6.2-0.1
		c5.2-0.1,12.4-0.2,20.4-0.4s15.1-0.5,20.4-0.7l6.2-0.3h1.7C404.4,118.2,404.6,118.2,404.8,118.2z"/>
	<path class="st8" d="M332.8,118.9c-0.1-0.1,3.3-4.2,7.7-9.3s8-9,8.1-8.9s-3.3,4.2-7.7,9.3S332.9,119,332.8,118.9z"/>
	<path class="st8" d="M389.1,154c0,0.1-10.3-0.8-22.9-2s-22.9-2.4-22.9-2.6s10.3,0.8,22.9,2S389.2,153.9,389.1,154z"/>
	<path class="st8" d="M389.7,167.9c0,0.1-10,0-22.3-0.2s-22.3-0.6-22.3-0.8s10,0,22.3,0.2S389.7,167.7,389.7,167.9z"/>
	<path class="st0" d="M359.5,177.6c0-0.2,0-0.5,0-0.7c0-0.5,0-1.2,0-2.1c0-1.8,0.1-4.5,0.4-7.8c0.1-1.6,0.3-3.4,0.5-5.4
		s0.5-4,0.8-6.1c0.5-4.3,1-9.1,1.5-14c0.7-8.5,1.9-17,3.6-25.4c0.7-3.2,1.5-5.8,2-7.5c0.3-0.8,0.5-1.5,0.7-2
		c0.1-0.2,0.2-0.5,0.3-0.7c0,0.2-0.1,0.5-0.2,0.7c-0.2,0.5-0.4,1.2-0.6,2c-0.5,1.8-1.2,4.3-1.9,7.5c-1.6,8.4-2.8,16.9-3.5,25.4
		c-0.5,5-1,9.7-1.5,14c-0.3,2.1-0.6,4.2-0.8,6.1s-0.4,3.7-0.5,5.3c-0.3,3.3-0.4,5.9-0.5,7.8l-0.1,2.1
		C359.5,177.1,359.5,177.4,359.5,177.6z"/>
	<rect x="375.7" y="133.5" class="st8" width="10.9" height="2.8"/>
	<g class="st6">
		<path d="M388.3,142.1c-4.9,7.7-4.6,17.5,0.8,24.9c0.7-4.7,1.3-9.3,2-14"/>
	</g>
	<path class="st0" d="M382,72.2c1.3,2.6,0.6,5.8-0.3,8.6c-0.9,2.8-2.1,5.6-1.9,8.5c0.2,2.7,1.7,5.2,1.9,7.9
		c0.5,4.6-2.5,8.7-3.7,13.1c-1.5,5.8-0.1,12,3.9,16.5c0.4,0.5,0.9,0.8,1.5,0.9c0.7-0.1,1.3-0.7,1.4-1.4c0.1-0.7,0.1-1.4,0-2.1
		c-0.5-6.5,5.7-11.8,6.6-18.3c0.6-4.2-1.1-8.4-1.4-12.7c-0.3-5.4,1.7-10.6,2.4-15.9c0.3-1.8,0.2-3.7-0.3-5.4
		c-0.5-1.8-1.9-3.2-3.7-3.8c-1.8-0.5-3.8,0.4-4.5,2.2"/>
</g>
<g id="freepik--character-3--inject-14">
	<path class="st9" d="M260.9,112.3l-21.2,13.4l15-41.1l4-8.1c0.5-0.7,1.2-1.5,2-2.3c0.7-0.8,1.5-1.4,2.5-1.9
		c1.1-0.6,2.3-1.1,3.6-1.4c0.7,0,1.1-0.6,1.1-1.3c0-0.4-0.2-0.7-0.5-0.9c-1-0.5-4.2-0.1-7.4,2s-1.4-3.6-0.7-5.7s2.3-8.6,1.8-9.3
		c-0.7-1-2-0.4-2.5,1.7s-2.8,8.3-3.9,7.9s2.3-11,2.3-11s1.1-2.2-0.1-2.6c-2.2-0.9-5,10.6-5.2,11.7c-0.2,0.8-1.4,0.4-1.1-0.4
		s3.6-10.5,1.3-11.4c-1.8-0.7-2.4,9.5-4.2,11.1s1.3-7.7-0.5-8.3c-0.6-0.2-1.1-0.3-2.1,5.3c-0.5,2.7-1,12.2-1,12.2l-4.9,9.7l0.1,0.1
		l-20.2,42.6c-3.9,10.2,2.4,18.5,8.8,22.2l0,0c5.9,3.5,13.3,3.3,19-0.5l24.5-16.3L260.9,112.3z"/>
	<path class="st9" d="M374.7,202.2c0.5,0.8,1.1,1.6,1.7,2.7c0.5,0.9,0.9,1.9,1.1,3c0.3,1.3,0.4,2.7,0.3,4c-0.2,0.7,0.2,1.3,0.9,1.5
		c0.4,0.1,0.8,0,1.1-0.3c0.8-0.8,1.4-4.1,0.4-7.9s4-0.2,5.9,1.1s7.8,5,8.7,4.7c1.2-0.4,1.1-1.8-0.8-3s-7.3-5.4-6.6-6.3
		s10.1,5.7,10.1,5.7s1.8,1.7,2.6,0.7c1.6-1.9-8.9-8.3-9.9-8.9c-0.7-0.4,0-1.5,0.8-1s9.2,6.9,10.8,4.9c1.3-1.5-8.6-5.3-9.6-7.6
		s7.2,3.7,8.3,2.2c0.4-0.6,0.7-1-4.5-3.8c-2.5-1.3-11.7-4.9-11.7-4.9l-56.5-73L311.2,131L374.7,202.2z"/>
	<path class="st7" d="M274.1,380.8l1.1,18.5c0,0-18.5,7.3-18.6,10.8l36-0.2l-0.5-29.5L274.1,380.8z"/>
	<g class="st4">
		<path class="st5" d="M286.3,397.5c0.7,0.2,1.2,0.9,1.1,1.7c-0.2,0.7-0.9,1.2-1.6,1.1c-0.8-0.2-1.2-1-1.1-1.8
			c0.3-0.7,1.1-1.1,1.8-0.9"/>
	</g>
	<g class="st4">
		<path class="st5" d="M292.6,409.9v-3l-34.6,1.3c0,0-1.6,0.7-1.4,1.9L292.6,409.9z"/>
	</g>
	<path class="st0" d="M274.6,399.2c0,0.2,0.9,0.2,1.8,0.8s1.4,1.3,1.5,1.2s-0.1-1.1-1.2-1.7S274.5,399,274.6,399.2z"/>
	<path class="st0" d="M270.8,400.8c0,0.2,0.7,0.5,1.4,1.2s0.8,1.5,1,1.5s0.3-1-0.5-1.9S270.8,400.6,270.8,400.8z"/>
	<path class="st0" d="M268.8,405.4c0.2,0,0.4-0.9-0.1-1.8s-1.3-1.3-1.4-1.2s0.5,0.6,0.8,1.4S268.6,405.4,268.8,405.4z"/>
	<path class="st0" d="M274.8,394.9c0.1,0.2,0.9-0.1,1.9,0s1.8,0.3,1.9,0.2s-0.7-0.8-1.8-0.8S274.7,394.8,274.8,394.9z"/>
	<path class="st0" d="M274.6,391.2c0.6,0.2,1.2,0.1,1.8,0c0.6-0.1,1.3-0.3,1.9-0.6c0.3-0.2,0.7-0.4,1-0.6c0.2-0.1,0.4-0.3,0.5-0.4
		c0.2-0.3,0.3-0.6,0.1-0.9c-0.2-0.2-0.5-0.4-0.8-0.4c-0.2,0-0.5,0-0.7,0.1c-0.4,0.1-0.8,0.2-1.1,0.4c-0.6,0.3-1.2,0.7-1.6,1.1
		c-0.8,0.8-1.1,1.5-1,1.5s0.5-0.5,1.3-1.2c0.5-0.4,1-0.7,1.6-1c0.3-0.1,0.7-0.2,1-0.3c0.4-0.1,0.7-0.1,0.8,0s0,0.1,0,0.2
		c-0.1,0.1-0.2,0.2-0.4,0.3c-0.3,0.2-0.6,0.4-0.9,0.6c-0.6,0.3-1.1,0.5-1.7,0.7C275.8,390.8,275.2,391,274.6,391.2z"/>
	<path class="st0" d="M274.9,391.4c0.3-0.5,0.5-1.1,0.4-1.8c0-0.7-0.1-1.4-0.3-2c-0.1-0.4-0.3-0.7-0.5-1.1c-0.2-0.5-0.7-0.8-1.2-0.9
		c-0.3,0-0.6,0.2-0.7,0.5c-0.1,0.2-0.1,0.4-0.2,0.7c-0.1,0.4-0.1,0.8,0,1.2c0.1,0.7,0.4,1.3,0.8,1.9c0.7,0.9,1.5,1.1,1.5,1
		s-0.6-0.4-1.1-1.3c-0.3-0.5-0.5-1.1-0.6-1.7c0-0.3,0-0.7,0-1c0-0.4,0.2-0.7,0.3-0.7s0.5,0.3,0.6,0.6c0.2,0.3,0.3,0.7,0.5,1
		c0.2,0.6,0.3,1.2,0.4,1.8C275,390.7,274.8,391.4,274.9,391.4z"/>
	<path class="st7" d="M336.4,380.5l1.4,18.5c0,0-18.3,7.6-18.4,11.1l36-1.4l-2.9-28.8L336.4,380.5z"/>
	<g class="st4">
		<path class="st5" d="M348.9,397c0.7,0.2,1.2,0.9,1.1,1.6c-0.2,0.7-0.9,1.2-1.6,1.1c-0.8-0.2-1.3-1-1.1-1.7c0.2-0.7,1-1.2,1.8-0.9"
			/>
	</g>
	<g class="st4">
		<path class="st5" d="M355.4,408.7l-0.2-2.9l-34.4,2.5c0,0-1.6,0.8-1.3,1.9L355.4,408.7z"/>
	</g>
	<path class="st0" d="M337.2,398.9c0,0.2,0.9,0.2,1.8,0.8s1.4,1.3,1.5,1.2s-0.1-1.1-1.2-1.7S337.1,398.7,337.2,398.9z"/>
	<path class="st0" d="M333.5,400.6c0,0.2,0.7,0.4,1.4,1.1s0.8,1.5,1,1.5s0.3-1-0.5-1.9S333.5,400.4,333.5,400.6z"/>
	<path class="st0" d="M331.5,405.2c0.2,0,0.4-0.9-0.1-1.8s-1.3-1.3-1.4-1.1s0.5,0.6,0.9,1.4S331.4,405.2,331.5,405.2z"/>
	<path class="st0" d="M337.3,394.6c0.1,0.2,0.9-0.1,1.9-0.1s1.8,0.3,1.9,0.2s-0.7-0.8-1.9-0.8S337.3,394.5,337.3,394.6z"/>
	<path class="st0" d="M337.1,390.9c0.6,0.1,1.2,0.1,1.8-0.1c0.6-0.1,1.3-0.4,1.9-0.6c0.3-0.2,0.7-0.4,1-0.6c0.2-0.1,0.4-0.3,0.5-0.5
		c0.2-0.3,0.2-0.7,0-0.9c-0.2-0.2-0.5-0.4-0.8-0.4c-0.2,0-0.5,0-0.7,0.1c-0.4,0.1-0.8,0.3-1.1,0.4c-0.6,0.3-1.1,0.7-1.6,1.2
		c-0.8,0.8-1.1,1.5-1,1.5s0.5-0.5,1.3-1.2c0.8-0.6,1.6-1.1,2.6-1.3c0.4-0.1,0.7-0.1,0.8,0s0,0.1,0,0.2c-0.1,0.1-0.2,0.2-0.4,0.3
		c-0.3,0.2-0.6,0.4-0.9,0.6c-0.5,0.3-1.1,0.5-1.7,0.7C338.2,390.5,337.7,390.7,337.1,390.9z"/>
	<path class="st0" d="M337.4,391.1c0.3-0.5,0.5-1.1,0.4-1.8c0-0.7-0.1-1.4-0.3-2c-0.1-0.4-0.3-0.7-0.5-1.1c-0.2-0.5-0.7-0.8-1.2-0.9
		c-0.3,0-0.6,0.2-0.7,0.5c-0.1,0.2-0.1,0.4-0.2,0.7c0,0.4,0,0.8,0,1.2c0.1,0.7,0.4,1.3,0.8,1.8c0.7,0.9,1.5,1.1,1.5,1
		s-0.6-0.4-1.1-1.3c-0.3-0.5-0.5-1.1-0.6-1.7c-0.1-0.3-0.1-0.7,0-1c0-0.4,0.2-0.7,0.3-0.7s0.5,0.3,0.6,0.6c0.2,0.3,0.4,0.7,0.5,1
		c0.2,0.6,0.4,1.2,0.4,1.8C337.4,390.5,337.3,391.1,337.4,391.1z"/>
	<path class="st9" d="M306.8,67.1l-3.5,41l-20.5-1.6c-0.1-2.4,0-11.7,0-11.7s-8.5-1.3-8.6-9.9c-0.1-4.2,0.5-12.7,1.2-20.4
		c0.7-8.6,8.1-15,16.7-14.5l0,0c8.7,0.5,15.3,8,14.8,16.7C306.8,66.8,306.8,67,306.8,67.1z"/>
	<path class="st10" d="M282.7,94.6c3.9,0.1,7.8-1,11.1-3.2c0,0-2.6,6.1-11.1,5.4L282.7,94.6z"/>
	<path class="st0" d="M277.3,71.5c0.1,0.2,1.1-0.5,2.4-0.4s2.2,0.8,2.4,0.6s-0.1-0.4-0.5-0.7c-1.1-0.9-2.6-0.9-3.8-0.2
		C277.4,71.2,277.2,71.5,277.3,71.5z"/>
	<path class="st0" d="M289.3,71.7c0.2,0.2,1.1-0.6,2.4-0.6s2.3,0.6,2.4,0.4s-0.1-0.4-0.5-0.7c-0.6-0.4-1.3-0.6-2-0.5
		c-0.7,0-1.3,0.3-1.9,0.7C289.4,71.4,289.2,71.7,289.3,71.7z"/>
	<path class="st0" d="M285.2,79.7c-0.7-0.2-1.4-0.4-2.1-0.4c-0.3,0-0.6-0.1-0.7-0.3c0-0.3,0-0.7,0.2-1c0.3-0.8,0.7-1.7,1-2.6
		c0.9-2.2,1.7-4.4,2.2-6.7c-1.1,2.1-2,4.3-2.8,6.5c-0.3,0.9-0.6,1.7-1,2.6c-0.2,0.4-0.3,0.9-0.2,1.3c0.1,0.2,0.3,0.4,0.5,0.5
		c0.2,0.1,0.4,0.1,0.6,0.1C283.8,79.7,284.5,79.7,285.2,79.7z"/>
	<path class="st0" d="M289.1,80.6c-0.2,0-0.2,1.4-1.4,2.4s-2.7,0.9-2.7,1.1s0.3,0.3,1,0.3c0.8,0,1.6-0.3,2.3-0.8
		c0.6-0.5,1-1.2,1.1-2C289.3,80.9,289.2,80.5,289.1,80.6z"/>
	<path class="st0" d="M289.6,65.7c0.1,0.4,1.4,0.2,3,0.4s2.8,0.6,3,0.3c0.1-0.2-0.1-0.5-0.6-0.8c-0.7-0.4-1.4-0.7-2.2-0.8
		c-0.8-0.1-1.6,0-2.3,0.3C289.9,65.2,289.6,65.5,289.6,65.7z"/>
	<path class="st0" d="M277.6,66.3c0.3,0.3,1.3,0,2.5,0s2.3,0.2,2.5-0.1c0.1-0.2-0.1-0.5-0.5-0.8c-1.3-0.8-2.9-0.7-4.1,0.1
		C277.6,65.7,277.5,66.1,277.6,66.3z"/>
	<path class="st0" d="M297.5,57.8L297.5,57.8c1.4,1.1,2.3,2.6,2.5,4.3v0.2c0.3,2.4,0.3,4.9,0.6,7.3c0.2,2.5,1.3,4.8,3,6.6
		c0.7,0.7,2,1.2,2.6,0.4c0.2-0.3,0.3-0.7,0.3-1.1c0.5-5.9,2.1-11.1,2-17.2c0-1.7-0.8-3.2-2.1-4.2c-1.3-0.9-2.9-1.9-4.3-1.2
		s-3.3,3.4-4.4,4.5"/>
	<path class="st9" d="M303.9,71c0.1-0.1,5.9-1.7,5.7,4.1s-6,4.4-6,4.3S303.9,71,303.9,71z"/>
	<path class="st10" d="M305.4,77.2c0,0,0.1,0.1,0.3,0.2c0.2,0.1,0.5,0.1,0.8,0c0.8-0.5,1.3-1.3,1.2-2.2c0-0.5-0.1-1-0.2-1.5
		c-0.1-0.4-0.4-0.7-0.7-0.8c-0.2-0.1-0.5,0-0.6,0.3c-0.1,0.2,0,0.3-0.1,0.3s-0.1-0.1-0.1-0.3c0-0.1,0.1-0.3,0.2-0.4
		c0.2-0.1,0.4-0.2,0.6-0.1c0.5,0.1,0.8,0.5,1,0.9c0.2,0.5,0.3,1.1,0.3,1.6c0,1.1-0.6,2-1.6,2.5c-0.3,0.1-0.7,0-0.9-0.2
		C305.4,77.3,305.4,77.2,305.4,77.2z"/>
	<path class="st0" d="M302.5,53.7c1.4-2.3-2.5-5.7-5.4-6.6s-6.7,0.5-9.5,1.4c-1.8,0.6-3.6,1.4-5.5,1.4c-1.3-0.1-2.5-0.4-3.7-0.9
		c-1.2-0.5-2.4-0.8-3.7-0.7c-1.3,0-2.5,0.8-3.1,1.9c-0.5,1.1,0,2.4,1.2,2.9c0.1,0,0.2,0.1,0.3,0.1c-1.4-0.8-3.1-0.2-3.9,1.1
		c-0.8,1.4-0.2,3.1,1.1,3.9c0.6,0.3,1.3,0.4,2,0.3c-0.8-0.6-2.1,0.4-2,1.4c0.2,1,1,1.9,2,2.2c2.4,1.1,5.3,0.7,7.8-0.1
		s4.9-2.2,7.3-3.1s6.7-2.5,9.2-1.7c1.9,0.7,3.1,2.9,4.2,2.4c1-0.5,1.7-1.5,1.9-2.6C302.7,56,302.7,54.9,302.5,53.7"/>
	<path class="st7" d="M272.3,53c0,0,0.3,0.4,0.9,1.1c0.9,0.9,2,1.7,3.2,2.1c1.8,0.7,3.8,0.6,5.5-0.2c2-0.9,3.7-2.7,5.6-4.3
		c1.8-1.7,4.1-2.8,6.5-3.1c2.1-0.3,4.1,0.5,5.6,1.9c0.9,1,1.4,2.4,1.3,3.8c0,0.4-0.1,0.7-0.3,1.1c-0.1,0.2-0.2,0.3-0.2,0.3
		c0.1-0.5,0.2-0.9,0.2-1.4c0-1.3-0.5-2.5-1.4-3.5c-1.4-1.3-3.3-2-5.2-1.7c-2.4,0.4-4.5,1.5-6.3,3.1c-1.9,1.6-3.7,3.5-5.8,4.4
		c-1.9,0.8-4,0.9-5.9,0.1c-1.3-0.5-2.4-1.3-3.3-2.3c-0.2-0.3-0.4-0.6-0.6-0.9C272.4,53.3,272.3,53.1,272.3,53z"/>
	<path class="st7" d="M305.4,70.7c0,0-0.3-0.2-0.5-0.6c-0.3-0.7-0.4-1.4-0.3-2.1c0.1-1.9,1.8-3.9,2-6.5c0.2-1.2,0-2.4-0.6-3.5
		c-0.5-0.8-1.3-1.5-2.2-1.9c-0.6-0.3-1.3-0.4-1.9-0.3c-0.5,0.1-0.7,0.2-0.7,0.1s0.2-0.2,0.7-0.4c0.7-0.2,1.5-0.1,2.1,0.1
		c1,0.4,1.9,1.1,2.5,2c0.7,1.2,0.9,2.5,0.8,3.8c-0.1,1.3-0.5,2.5-1.1,3.7c-0.5,0.9-0.8,1.8-1,2.8C304.9,68.9,305,69.9,305.4,70.7z"
		/>
	<polygon class="st0" points="323,199.3 356.5,394.4 330,397.6 292.5,223.6 295.6,395.1 270.3,395.1 260.3,197.6 	"/>
	<path class="st3" d="M262.8,137.3l-9.5,5.9l-10.7-20.6c4.7-3.4,19.8-13.1,23.6-15.6c0.9-0.6,2-1.2,3-1.6c2.5-1,5.2-1.6,7.9-1.9
		c2.4-0.3,4.3-0.5,5.5-0.6c6.9,2.2,14.3,2.2,21.2,0l0,0c0.8,0,1.6,0.1,2.4,0.2l0,0c7,1,13.8,5.9,18,10.5l16.7,15l-16.4,19.6l-5.1-6
		l1.2,27.6l4.8,34.4h-65.4c0,0-0.1-8.1,0.5-19.4c0.8-15.8,1.7-40.5,1.7-40.5"/>
	<path class="st0" d="M262.2,154.6c0.2-1.5,0.4-3,0.4-4.6c0.2-2.8,0.4-6.7,0.8-11s0.7-8.1,1-10.9c0.2-1.5,0.3-3,0.3-4.5
		c-0.4,1.5-0.7,3-0.8,4.5c-0.4,2.8-0.9,6.7-1.2,10.9s-0.5,8.2-0.6,11C262,151.6,262,153.1,262.2,154.6z"/>
	<path class="st0" d="M318.3,127.4c-0.2,1-0.2,2.1-0.2,3.1c0,1.9,0.1,4.6,0.3,7.5s0.5,5.6,0.8,7.5c0.1,1,0.3,2.1,0.6,3.1
		c0.1-1,0-2.1-0.1-3.1c-0.2-2.2-0.4-4.7-0.6-7.5s-0.4-5.3-0.5-7.5C318.7,129.4,318.6,128.4,318.3,127.4z"/>
	<rect x="302" y="130.6" class="st8" width="10.9" height="2.8"/>
	<path class="st8" d="M323.2,112.6c-0.8-0.2-1.7-0.4-2.6-0.4c-2.4,0.1-4.7,1-6.6,2.4c-1.3,0.8-2.6,1.9-4,2.9c-1.6,1.1-3.2,2.1-5,2.9
		c-2,0.8-4,1.5-6.1,1.8c-2.3,0.4-4.6,0.5-6.9,0.4c-2.3-0.1-4.6-0.6-6.8-1.3c-1-0.3-2.1-0.7-3.1-1.2c-0.9-0.4-1.9-0.9-2.8-1.5
		c-3.5-2.1-5.9-5-8.4-6.7c-1.9-1.5-4.3-2.3-6.7-2.2c-0.9,0.1-1.7,0.3-2.5,0.7l0.1-0.1c0.1-0.1,0.3-0.2,0.5-0.3
		c0.6-0.3,1.2-0.5,1.9-0.6c2.5-0.2,4.9,0.6,6.9,2.1c2.6,1.7,5,4.6,8.4,6.6c0.9,0.5,1.8,1,2.7,1.4c1,0.4,2,0.8,3,1.1
		c2.2,0.7,4.4,1.1,6.6,1.2c2.2,0.1,4.5,0,6.7-0.3c2.1-0.4,4.1-1,6-1.8c1.7-0.8,3.4-1.7,5-2.8c1.5-1,2.8-2.1,4.1-2.9
		c2-1.4,4.4-2.3,6.9-2.3c0.7,0,1.4,0.1,2,0.3c0.2,0,0.3,0.1,0.5,0.2C323.1,112.6,323.2,112.6,323.2,112.6z"/>
	<path class="st8" d="M262.9,133.6c-0.1,0-0.7-0.9-2-2c-0.8-0.7-1.6-1.3-2.5-1.8c-1.1-0.6-2.3-1.1-3.5-1.5c-1.2-0.4-2.5-0.6-3.7-0.7
		c-1-0.1-2.1-0.1-3.1,0.1c-1.8,0.2-2.8,0.6-2.8,0.5s0.2-0.1,0.7-0.3c0.7-0.2,1.4-0.4,2.1-0.5c1.1-0.2,2.1-0.2,3.2-0.2
		c1.3,0.1,2.6,0.3,3.8,0.7c1.2,0.4,2.4,1,3.5,1.6c0.9,0.6,1.8,1.2,2.5,2c0.3,0.3,0.6,0.6,0.8,0.9c0.2,0.2,0.4,0.5,0.6,0.7
		C262.8,133.4,262.9,133.6,262.9,133.6z"/>
	<path class="st8" d="M318.1,143.3c-0.2,0.1-0.3,0.2-0.5,0.3l-1.5,0.8l-1.1,0.6c-0.4,0.2-0.9,0.4-1.3,0.6c-1,0.4-2,0.9-3.3,1.3
		l-2,0.6c-0.7,0.2-1.4,0.4-2.1,0.6c-1.5,0.4-3.1,0.7-4.8,1c-3.7,0.6-7.5,0.8-11.3,0.7c-3.8-0.2-7.5-0.7-11.2-1.6
		c-1.7-0.5-3.3-0.9-4.7-1.4c-0.7-0.3-1.4-0.5-2.1-0.8l-1.9-0.8c-1.2-0.5-2.3-1.1-3.2-1.5c-0.5-0.2-0.9-0.4-1.3-0.7l-1-0.6l-1.4-0.9
		c-0.2-0.1-0.3-0.2-0.5-0.4c0.2,0.1,0.4,0.2,0.5,0.3l1.5,0.8l1.1,0.6c0.4,0.2,0.8,0.4,1.3,0.6c0.9,0.4,2,1,3.2,1.5l1.9,0.8
		c0.7,0.3,1.4,0.5,2.1,0.7c1.4,0.5,3,0.9,4.7,1.4c7.3,1.8,14.8,2.1,22.2,0.9c1.7-0.3,3.3-0.6,4.8-1c0.7-0.2,1.5-0.3,2.1-0.6l2-0.6
		c1.3-0.4,2.3-0.8,3.3-1.2c0.5-0.2,0.9-0.4,1.4-0.5l1.1-0.5l1.5-0.7C317.7,143.3,317.9,143.3,318.1,143.3z"/>
	<path class="st8" d="M336,126.4c-1-0.2-2-0.2-3-0.3c-2.5,0.1-4.8,0.8-7,2.1c-2.1,1.3-4.1,2.8-5.8,4.5c-0.7,0.7-1.5,1.4-2.3,2.1
		c0.6-0.8,1.3-1.6,2-2.3c1.7-1.8,3.7-3.4,5.8-4.7c2.2-1.3,4.7-2,7.2-2c0.8,0,1.5,0.1,2.3,0.3C335.5,126.2,335.8,126.3,336,126.4z"/>
	<path class="st8" d="M319.4,164.3c-0.2,0.1-0.4,0.2-0.5,0.3l-1.6,0.7c-0.7,0.3-1.5,0.7-2.5,1s-2.1,0.8-3.4,1.2l-2,0.6
		c-0.7,0.2-1.5,0.4-2.2,0.6c-1.5,0.4-3.2,0.7-4.9,1c-7.6,1.3-15.4,1.4-23,0.2c-1.8-0.3-3.4-0.6-5-1c-0.8-0.2-1.5-0.3-2.2-0.5l-2-0.6
		c-1.3-0.3-2.4-0.8-3.5-1.1s-1.9-0.7-2.6-1l-1.6-0.7c-0.2-0.1-0.4-0.2-0.5-0.3c0.2,0,0.4,0.1,0.6,0.2l1.6,0.6
		c0.7,0.3,1.5,0.6,2.6,0.9s2.2,0.7,3.5,1l2,0.5c0.7,0.2,1.5,0.3,2.2,0.5c1.5,0.4,3.2,0.6,4.9,0.9c7.6,1.1,15.3,1.1,22.9-0.2
		c1.7-0.3,3.4-0.6,4.9-1c0.8-0.2,1.5-0.3,2.2-0.5l2-0.6c1.3-0.3,2.4-0.8,3.4-1.1s1.9-0.6,2.6-0.9l1.6-0.6
		C319,164.3,319.2,164.3,319.4,164.3z"/>
	<path class="st8" d="M323.2,190.6c-0.2,0-0.4,0-0.6,0l-1.8-0.2c-1.6-0.2-3.8-0.5-6.6-0.8s-6.2-0.6-9.9-0.7s-7.8-0.2-12.1-0.1
		s-8.4,0.4-12.1,0.7s-7,0.8-9.8,1.2s-5,0.8-6.6,1.1l-1.8,0.3c-0.2,0-0.4,0.1-0.6,0.1c0.2-0.1,0.4-0.1,0.6-0.2l1.8-0.4
		c1.5-0.4,3.8-0.8,6.6-1.2s6.1-0.9,9.9-1.3s7.8-0.6,12.1-0.7s8.4,0,12.2,0.2s7.1,0.5,9.9,0.9s5.1,0.7,6.6,0.9l1.8,0.3
		C322.8,190.5,323,190.5,323.2,190.6z"/>
</g>
<g id="freepik--character-1--inject-14">
	<path class="st0" d="M93.4,53.8c-9,0-16.7,6.3-18.5,15.2c-0.8,4.4,0.1,9.3-2,13.3c-2.7,5.3-9.8,7.8-11.4,13.5
		c-1.3,4.8,1.8,10,0.5,14.8c-1,3.5-4.1,5.9-5.6,9.2c-1.5,3.2-1.2,7,0.7,10c2,3,5.5,4.5,9,4.1c2.2-0.3,4.2-1.4,6.3-2.1
		c4.6-1.5,9.5-1,14.2-0.3s9.6,1.4,14.3,0.3s9.1-4.6,9.8-9.3c0.4-3.1-0.7-6.1-1.7-9.1c-6.2-19.6-3.3-40.9-7.8-60.9"/>
	<path class="st0" d="M76.1,71.8c-1.2-1.6-2.6-2.9-4.2-4.1c-1.6-1.2-3.6-1.7-5.5-1.4c-2,0.3-3.6,1.7-4.1,3.7c-0.4,2,0.9,3.8,2.9,4.2
		c0,0,0.1,0,0.1,0c-1.5-0.5-3.1,0.2-3.6,1.7c-0.1,0.2-0.1,0.3-0.1,0.5c-0.2,1.7,0.8,3.3,2.4,4c1.6,0.6,3.3,0.6,4.9-0.1
		c1.5-0.7,3-1.6,4.2-2.7l4.5-3.4"/>
	<path class="st7" d="M60.4,128.7c-0.3-0.1-0.5-0.2-0.8-0.4c-0.7-0.5-1.2-1.2-1.5-1.9c-0.5-1.2-0.5-2.6-0.1-3.9
		c0.6-1.6,1.6-3.1,2.8-4.3c1.5-1.4,2.8-3,4-4.7c1.1-2.1,1.4-4.5,0.8-6.8c-0.4-2.4-1.4-5-1.4-7.8c0-1.5,0.4-2.9,1.2-4.1
		c0.9-1.2,1.9-2.2,3.2-3c2.5-1.6,5.3-2.4,7.5-4c1.1-0.7,2-1.6,2.7-2.7c0.6-1.1,1.1-2.3,1.3-3.6c0.3-2.4,0.4-4.7,0.5-7.1
		c0.1-2.1,0.4-4.2,1.1-6.2c0.8-3,2.7-5.5,5.2-7.3c0.7-0.5,1.4-0.8,2.2-1.1c0.2-0.1,0.4-0.1,0.6-0.2c0.1,0,0.2,0,0.2,0
		c-1,0.3-2,0.8-2.9,1.5c-2.4,1.8-4.2,4.3-5,7.2c-0.6,2-0.9,4-1,6.1c0,2.4-0.1,4.8-0.4,7.2c-0.2,1.3-0.6,2.6-1.3,3.7
		c-0.7,1.2-1.7,2.2-2.9,3c-2.3,1.6-5.1,2.5-7.5,4c-1.2,0.7-2.2,1.7-3,2.8c-0.7,1.1-1.1,2.5-1.2,3.8c0,2.7,0.9,5.2,1.4,7.7
		c0.3,1.2,0.4,2.5,0.3,3.7c-0.1,1.2-0.5,2.3-1.1,3.4c-1.2,1.7-2.6,3.3-4.1,4.8c-1.2,1.2-2.2,2.6-2.8,4.2c-0.4,1.2-0.4,2.5,0,3.7
		c0.3,0.8,0.7,1.4,1.4,1.9C60.1,128.5,60.4,128.6,60.4,128.7z"/>
	<path class="st7" d="M74.4,78c0.4-1.3,0.7-2.6,0.9-3.9c0-1.3-0.2-2.6-0.5-3.9C76.3,72.6,76.1,75.7,74.4,78z"/>
	<path class="st7" d="M79.6,110.5c0,0-0.1-0.1-0.4-0.4c-0.3-0.4-0.6-0.9-0.8-1.3c-0.6-1.8-0.6-3.8,0.1-5.6c0.7-2.3,2.5-4.6,4.2-7.1
		c0.9-1.3,1.7-2.7,2.3-4.2c0.5-1.6,0.8-3.4,0.8-5.1c0.1-3.6-0.6-6.9-0.8-10.1c-0.3-2.8,0-5.6,1-8.2c0.7-1.8,1.8-3.3,3.3-4.5
		c0.4-0.3,0.9-0.6,1.3-0.8c0.2-0.1,0.3-0.1,0.5-0.2c-0.6,0.3-1.1,0.7-1.7,1.1c-1.4,1.2-2.5,2.7-3.1,4.5c-0.9,2.6-1.2,5.4-0.8,8.1
		c0.2,3.1,0.9,6.5,0.9,10.1c0,1.8-0.3,3.6-0.9,5.2c-0.6,1.5-1.4,3-2.4,4.3c-1.8,2.5-3.6,4.7-4.3,7c-0.7,1.7-0.8,3.6-0.2,5.4
		C78.9,109.3,79.2,109.9,79.6,110.5z"/>
	<path class="st0" d="M53.2,112.6c0,0,0.1,0.2,0.3,0.5c0.3,0.4,0.7,0.8,1.1,1c0.7,0.4,1.5,0.5,2.3,0.5c1.1-0.1,2.1-0.6,2.8-1.4
		c0.9-1,1.4-2.2,1.6-3.5c0.2-1.5,0.1-3-0.4-4.5c-0.4-1.6-1-3.1-1.4-4.9c-0.6-1.8-0.7-3.7-0.4-5.5c0.4-1.8,1.3-3.5,2.6-4.9
		c1.2-1.3,2.5-2.4,3.9-3.4c1.3-1,2.6-1.8,3.8-2.6c1.1-0.8,2.1-1.6,3-2.6c1.4-1.3,2.5-2.9,3.1-4.8c0.2-0.7,0.3-1.4,0.4-2.1
		c0.1,0.7,0,1.4-0.2,2.1c-0.5,1.9-1.6,3.6-3,5c-0.9,1-1.9,1.8-3,2.6c-1.2,0.9-2.5,1.7-3.8,2.7c-1.4,1-2.7,2.1-3.8,3.3
		c-1.2,1.3-2.1,2.9-2.4,4.7c-0.3,1.8-0.1,3.6,0.4,5.3c0.4,1.7,1,3.3,1.4,4.9c0.4,1.5,0.5,3.1,0.3,4.6c-0.2,1.4-0.8,2.7-1.7,3.7
		c-0.8,0.8-1.9,1.4-3,1.4c-0.9,0-1.7-0.2-2.5-0.6c-0.5-0.3-0.9-0.7-1.1-1.1c-0.1-0.1-0.1-0.2-0.2-0.4
		C53.2,112.6,53.2,112.6,53.2,112.6z"/>
	<path class="st0" d="M116.5,63.4c0.8,5.2,2.2,10.3,4.4,13.5c1.8,2.6,5.3,4,5.8,7.1c0.4,2.6-1.1,5.2-0.9,7.8c0.4,4.1,5,6.7,6.3,10.6
		c1.1,3.3-0.4,7-2.9,9.4s-5.9,3.6-9.2,4.6c-4.8,1.3-10.6,1.7-14-1.9c-2.3-2.4-2.9-6.1-3.2-9.4c-0.8-9-0.8-18.1-0.7-27.2"/>
	<path class="st11" d="M85.3,72.1c-1.1-8.5,5-16.3,13.5-17.3c0.2,0,0.4,0,0.5-0.1c8.3-0.8,15.6,5.4,16.9,13.6c1.1,7.2,2,14.5,2,17.1
		c-0.1,8-4.8,11.1-6.7,12c-0.7,0.2-1.4,0.4-2.1,0.5l0,0c0,0-0.1,0-0.1,0.1l1.8,9.1c0.8,6-2.5,11.3-8.5,12.2S92,115.6,91,109.6
		L85.3,72.1z"/>
	<path class="st0" d="M114.6,71.7c-0.1,0.2-1.2-0.4-2.5-0.2s-2.2,1-2.4,0.9s0-0.4,0.4-0.8c0.5-0.5,1.2-0.8,1.9-0.9
		c0.7-0.1,1.4,0,2,0.3C114.5,71.4,114.7,71.7,114.6,71.7z"/>
	<path class="st0" d="M102.4,74.1c-0.1,0.2-1.2-0.4-2.5-0.2s-2.2,1-2.4,0.9s0-0.4,0.4-0.8c0.5-0.5,1.2-0.8,1.9-0.9
		c0.7-0.1,1.4,0,2,0.3C102.3,73.8,102.5,74,102.4,74.1z"/>
	<path class="st0" d="M107.5,81.9c0.7-0.3,1.4-0.6,2.1-0.7c0.3-0.1,0.7-0.2,0.7-0.4c0-0.4-0.2-0.7-0.4-1c-0.4-0.8-0.9-1.6-1.4-2.5
		c-1.3-2.1-2.4-4.3-3.3-6.5c0.2-0.1,1.8,2.7,3.8,6.3l1.4,2.5c0.3,0.4,0.4,0.9,0.4,1.3c-0.1,0.3-0.3,0.5-0.5,0.6
		c-0.2,0.1-0.4,0.1-0.6,0.2C109,81.8,108.2,81.9,107.5,81.9z"/>
	<path class="st9" d="M109.4,97.9c0,0-5.2,1.2-12.2-1.8c0,0,3,6.6,12.7,4.2L109.4,97.9z"/>
	<path class="st9" d="M107.4,85.2c-0.6-0.6-1.5-0.8-2.3-0.6c-0.6,0.1-1.1,0.5-1.4,1c-0.3,0.5-0.3,1.2,0.1,1.6
		c0.5,0.4,1.2,0.5,1.8,0.2c0.6-0.3,1.1-0.8,1.6-1.3c0.1-0.1,0.3-0.3,0.3-0.5C107.6,85.6,107.6,85.4,107.4,85.2"/>
	<path class="st0" d="M103.6,83.4c0.2,0,0.4,1.4,1.8,2.3s2.9,0.5,3,0.7s-0.3,0.3-1,0.4c-0.9,0.1-1.7,0-2.5-0.5
		c-0.7-0.4-1.2-1.1-1.4-1.9C103.4,83.8,103.5,83.4,103.6,83.4z"/>
	<path class="st0" d="M101.7,70.3c-0.1,0.4-1.5,0.4-3,0.8s-2.8,1-3,0.7s0-0.5,0.5-1c1.3-1.1,3-1.5,4.6-1.2
		C101.4,69.8,101.8,70.1,101.7,70.3z"/>
	<path class="st0" d="M113.4,68c-0.2,0.3-1.2,0.2-2.3,0.3s-2,0.5-2.3,0.2c-0.1-0.1,0-0.5,0.4-0.8c0.5-0.4,1.1-0.7,1.8-0.7
		c0.7-0.1,1.3,0,1.9,0.3C113.4,67.6,113.5,67.9,113.4,68z"/>
	<path class="st0" d="M112.2,72.9c-0.1,0.7,0.3,1.3,1,1.4c0.6,0.1,1.3-0.3,1.4-0.9c0,0,0,0,0,0c0.1-0.7-0.3-1.3-1-1.4
		C113,71.8,112.4,72.2,112.2,72.9C112.2,72.9,112.2,72.9,112.2,72.9z"/>
	<path class="st0" d="M99.9,75.2c-0.1,0.7,0.3,1.3,1,1.4c0.6,0.2,1.3-0.2,1.4-0.9c0,0,0,0,0,0c0.1-0.7-0.3-1.3-1-1.4
		C100.7,74.1,100.1,74.5,99.9,75.2C99.9,75.1,99.9,75.2,99.9,75.2z"/>
	<path class="st11" d="M86.2,109.9l30.3-5.9l-0.9,16.9c0,0-13.5,4.2-14,4.4s-9.3,0-9.3,0L86.2,109.9z"/>
	<path class="st11" d="M52.6,224.7c-0.2,0.8-0.5,1.7-0.7,2.8c-0.2,0.9-0.2,1.9-0.1,2.8c0.1,1.2,0.4,2.3,0.8,3.4c0.5,1-0.5,2-1.3,1.6
		s-2.3-3.1-2.4-6.6s-3.5,0.9-4.7,2.5s-5.3,6.3-6.1,6.3c-1.2,0-1.4-1.2-0.1-2.8s4.8-6.5,3.9-7.1s-7.1,7.5-7.1,7.5s-1,2-2.1,1.3
		c-1.8-1.2,5.4-9.4,6.1-10.2c0.5-0.5-0.4-1.2-0.9-0.6s-6,8.3-7.9,7c-1.5-1,5.9-6.8,6.2-9s-5.1,5-6.5,4c-0.5-0.4-0.8-0.7,2.9-4.4
		c1.8-1.8,8.7-7.2,8.7-7.2l14-48.9h18.3L52.6,224.7z"/>
	<path class="st11" d="M141.8,96.9c0,0,26.1-10.4,30.3-13.6s30.3-26.7,30.3-26.7l3.5-2.9c0.4-0.7,0.9-1.5,1.4-2.5
		c0.4-0.8,0.8-1.7,0.9-2.7c0.2-1.2,0.3-2.4,0.2-3.5c-0.2-0.6,0.2-1.2,0.8-1.3c0.3-0.1,0.7,0,0.9,0.2c0.7,0.7,1.4,3.6,0.5,7
		s3.6,0.1,5.2-1.1s6.8-4.6,7.6-4.4c1.1,0.3,1,1.6-0.7,2.7s-6.4,4.9-5.7,5.8s8.9-5.3,8.9-5.3s1.5-1.6,2.3-0.7
		c1.4,1.7-7.8,7.6-8.6,8.1c-0.6,0.4,0.1,1.3,0.7,0.9s8.1-6.3,9.5-4.6c1.1,1.3-7.5,4.9-8.4,7s6.3-3.4,7.3-2.1
		c0.4,0.5,0.6,0.9-3.9,3.4c-2.2,1.2-10.3,4.6-10.3,4.6l-0.9,0.9l-34.8,36l-31.9,12.8L141.8,96.9z"/>
	<path class="st3" d="M44,371.2l-5.1,23.1l-9.3,17.1c-0.6,1.2-0.2,2.7,1,3.3c0,0,0.1,0.1,0.1,0.1l0,0c0.7,0.3,1.5,0.3,2.2-0.1
		c4.3-2.5,20.3-11.8,20.5-13.5c0.3-2,7-24.1,7-24.1L44,371.2z"/>
	<g class="st4">
		<path class="st5" d="M30.7,414.9l23.1-15.2l-0.2,1c-0.2,0.8-0.7,1.6-1.4,2.1c-1.9,1.4-7.2,5-19.2,12
			C32.3,415.2,31.4,415.2,30.7,414.9L30.7,414.9z"/>
	</g>
	<g class="st4">
		<path class="st5" d="M50.9,391.1c-0.7,0.3-1.1,1-0.8,1.8c0.3,0.7,1,1.1,1.8,0.9c0.7-0.3,1.1-1.1,0.9-1.9c-0.4-0.7-1.2-1-1.9-0.7"
			/>
	</g>
	<path class="st0" d="M38.4,406.1c-0.4-0.9-0.9-1.6-1.6-2.3c-0.8-0.5-1.6-0.9-2.5-1.2c0-0.1,0.3-0.2,0.9-0.1c0.7,0.1,1.4,0.4,2,0.9
		c0.6,0.5,1,1.1,1.2,1.8C38.5,405.8,38.5,406.1,38.4,406.1z"/>
	<path class="st0" d="M36,408.8c-0.1,0.1-0.7-0.9-1.8-1.5s-2.2-0.7-2.2-0.9c0.8-0.3,1.7-0.1,2.4,0.4C35.8,407.6,36.2,408.8,36,408.8
		z"/>
	<path class="st0" d="M42.4,402.9c-0.8-0.9-1.7-1.7-2.6-2.5c-1-0.6-2.1-1.2-3.2-1.6c1.3,0,2.5,0.4,3.5,1.2
		C41.2,400.7,42,401.7,42.4,402.9z"/>
	<path class="st0" d="M44.6,396c-0.1,0.1-1.2-0.7-2.9-1.2s-3-0.4-3.1-0.5c1-0.4,2.2-0.3,3.2,0C42.9,394.5,43.9,395.1,44.6,396z"/>
	<path class="st0" d="M46.3,389.2c-0.9-0.6-1.9-1-3-1.3c-1.1-0.1-2.2-0.1-3.2,0c0-0.1,0.3-0.3,0.9-0.5c0.8-0.2,1.6-0.2,2.5-0.1
		c0.8,0.2,1.6,0.5,2.2,1C46.1,388.9,46.3,389.2,46.3,389.2z"/>
	<path class="st0" d="M43.7,386.6c0-0.3,0.1-0.6,0.2-0.9c0.3-0.8,0.7-1.5,1.3-2.1c0.4-0.5,0.9-0.8,1.5-1c0.4-0.1,0.8,0.1,1,0.5
		c0.2,0.4,0.2,0.8,0.1,1.1c-0.5,1.6-2,2.6-3.7,2.4c-1.6-0.2-2.9-1.4-3.3-3c-0.1-0.4,0-0.8,0.2-1.1c0.3-0.3,0.7-0.4,1.1-0.3
		c0.5,0.3,1,0.7,1.3,1.2c0.5,0.7,0.9,1.4,1.1,2.2c0.1,0.3,0.2,0.6,0.2,0.9c-0.4-1-0.9-2-1.6-2.8c-0.3-0.4-0.7-0.8-1.2-1
		c-0.2-0.1-0.5,0-0.6,0.1c-0.1,0.2-0.2,0.5-0.1,0.8c0.4,1.3,1.5,2.3,2.9,2.5c1.4,0.2,2.7-0.7,3.2-2c0.1-0.3,0.1-0.5,0-0.8
		c-0.1-0.2-0.3-0.3-0.5-0.3c-0.5,0.1-0.9,0.4-1.3,0.8C44.6,384.7,44.1,385.6,43.7,386.6z"/>
	<path class="st3" d="M116.2,379.7l-0.7,18.5c0,0,18.6,6.9,18.8,10.4l-36-0.1l-0.1-28.9L116.2,379.7z"/>
	<g class="st4">
		<path class="st5" d="M104.4,396.7c-0.7,0.2-1.1,0.9-1,1.7c0.2,0.7,0.9,1.1,1.7,1c0.8-0.2,1.2-1,1.1-1.8c-0.3-0.7-1.1-1.1-1.8-0.9"
			/>
	</g>
	<g class="st4">
		<path class="st5" d="M98.3,408.6l0.1-2.9l34.5,1.2c0,0,1.6,0.7,1.4,1.8L98.3,408.6z"/>
	</g>
	<path class="st0" d="M116.1,398.1c0,0.2-0.9,0.3-1.8,0.8s-1.3,1.3-1.5,1.2s0.1-1.1,1.2-1.8S116.1,397.9,116.1,398.1z"/>
	<path class="st0" d="M119.9,399.7c0,0.2-0.7,0.5-1.3,1.2s-0.8,1.5-0.9,1.5s-0.3-1,0.5-1.9S119.9,399.5,119.9,399.7z"/>
	<path class="st0" d="M122,404.2c-0.2,0-0.4-0.8,0-1.8s1.3-1.4,1.4-1.2s-0.4,0.7-0.8,1.5S122.2,404.2,122,404.2z"/>
	<path class="st0" d="M115.8,393.9c-0.1,0.2-0.9-0.1-1.9,0s-1.8,0.4-1.9,0.2s0.7-0.8,1.8-0.8S115.9,393.7,115.8,393.9z"/>
	<g class="st6">
		<polygon points="116.1,383.4 115.9,386.7 98.2,386.5 98.2,383.5 		"/>
	</g>
	<path class="st0" d="M115.8,390.1c-0.6,0.2-1.2,0.2-1.8,0c-1-0.2-2-0.6-2.9-1.1c-0.2-0.1-0.4-0.3-0.5-0.4c-0.2-0.3-0.3-0.6-0.1-0.9
		c0.2-0.2,0.5-0.4,0.8-0.4c0.2,0,0.5,0,0.7,0.1c1,0.2,2,0.8,2.8,1.5c0.8,0.8,1.1,1.4,1.1,1.5s-0.5-0.5-1.3-1.1
		c-0.5-0.4-1-0.7-1.6-0.9c-0.3-0.1-0.7-0.2-1-0.3c-0.4-0.1-0.7-0.1-0.8,0.1s0,0.1,0,0.2c0.1,0.1,0.3,0.2,0.4,0.3
		c0.3,0.2,0.7,0.4,1,0.5c0.6,0.3,1.1,0.5,1.7,0.7C114.8,389.8,115.3,389.9,115.8,390.1z"/>
	<path class="st0" d="M115.6,390.4c-0.1,0-0.4-0.6-0.5-1.7c0-0.7,0.1-1.4,0.3-2c0.1-0.4,0.3-0.7,0.5-1.1c0.2-0.5,0.6-0.8,1.1-0.9
		c0.3,0,0.6,0.2,0.8,0.5c0.1,0.2,0.2,0.4,0.2,0.7c0.1,0.4,0.1,0.8,0,1.2c-0.1,0.7-0.4,1.3-0.8,1.9c-0.7,0.9-1.4,1.1-1.5,1.1
		s0.6-0.4,1.1-1.3c0.3-0.5,0.5-1.1,0.6-1.7c0-0.3,0-0.7,0-1c0-0.4-0.2-0.7-0.3-0.6s-0.5,0.3-0.6,0.6c-0.2,0.3-0.3,0.7-0.4,1
		c-0.2,0.6-0.3,1.2-0.3,1.8C115.5,389.7,115.7,390.3,115.6,390.4z"/>
	<path class="st0" d="M81.1,176.2c0,0-11.4,18-13,24.9c-1.5,6.2-26.4,140.2-31.5,168c-0.5,2.8,1.2,5.6,4,6.5l22.5,6.8
		c3,0.9,6.2-0.8,7.1-3.8c0-0.2,0.1-0.3,0.1-0.5L98,248.1l-8.1,128.7c-0.2,3.6,2.5,6.8,6.1,7c0.2,0,0.4,0,0.6,0l22.1-0.7
		c3.4-0.1,6.1-2.8,6.3-6.2c1.9-31,10.5-172,8.8-176.4c-1.9-5-7.1-22.3-7.1-22.3L81.1,176.2z"/>
	<path class="st7" d="M72.1,371.7c-0.5,0-0.9-0.1-1.4-0.2c-0.9-0.1-2.2-0.4-3.7-0.7c-3.1-0.6-7.4-1.6-12.1-3s-8.9-2.8-11.9-4
		c-1.5-0.6-2.7-1-3.5-1.4c-0.4-0.2-0.9-0.4-1.3-0.6c0.5,0.1,0.9,0.2,1.3,0.4l3.6,1.2c3,1,7.2,2.4,11.8,3.8s8.9,2.4,12,3.2l3.7,0.9
		C71.1,371.4,71.6,371.5,72.1,371.7z"/>
	<path class="st7" d="M44.2,363.5c-0.8-0.6-1.3-1.5-1.4-2.5c-0.3-0.9-0.2-1.9,0.2-2.8c0.2,0,0,1.3,0.3,2.7S44.3,363.4,44.2,363.5z"
		/>
	<path class="st7" d="M46.9,358.7c0.2,0.9,0.1,1.8-0.3,2.7c-0.2,0.9-0.6,1.7-1.2,2.4c0.2-0.9,0.4-1.7,0.7-2.5
		C46.3,360.3,46.6,359.5,46.9,358.7z"/>
	<path class="st7" d="M117.6,365.5c0.4,0.7,0.6,1.5,0.6,2.3c0.2,0.8,0.3,1.6,0.1,2.4C117.8,368.7,117.5,367.1,117.6,365.5z"/>
	<path class="st7" d="M120.3,364.2c0.3,1.7,0.3,3.4-0.1,5c-0.3-0.8-0.3-1.7-0.2-2.5C119.9,365.9,120,365,120.3,364.2z"/>
	<path class="st7" d="M107.9,182.4c0,0.2,0,0.5,0,0.7c0,0.5,0,1.2-0.1,2c-0.1,1.8-0.2,4.3-0.4,7.4c-0.5,6.3-1.3,14.9-2.7,24.5
		c-1.4,9.5-3,18.1-4.3,24.2c-0.6,3.1-1.2,5.6-1.6,7.3c-0.2,0.8-0.3,1.5-0.5,2c0,0.2-0.1,0.5-0.2,0.7c0-0.2,0-0.5,0.1-0.7
		c0.1-0.5,0.2-1.2,0.4-2c0.3-1.8,0.8-4.3,1.4-7.3c1.2-6.2,2.8-14.7,4.2-24.2s2.3-18.1,2.9-24.4c0.3-3.1,0.5-5.6,0.6-7.4
		c0.1-0.8,0.1-1.5,0.2-2C107.8,182.9,107.8,182.7,107.9,182.4z"/>
	<path class="st7" d="M128,182.4c-0.2,0-0.3,0.1-0.5,0.1l-1.4,0.1c-1.3,0.1-3.1,0.1-5.3,0.1c-4.5,0.1-10.7,0.1-17.6-0.1
		s-13.1-0.5-17.5-0.9c-2.3-0.2-4.1-0.3-5.3-0.4l-1.4-0.1c-0.2,0-0.3,0-0.5-0.1c0.2,0,0.3,0,0.5,0l1.4,0.1l5.3,0.3
		c4.5,0.2,10.7,0.5,17.5,0.7s13.1,0.3,17.6,0.3h5.3h1.4C127.7,182.3,127.8,182.4,128,182.4z"/>
	<path class="st7" d="M111.7,182.2c0,0.6,0,1.1,0,1.7c0,1.2-0.1,2.7-0.2,4.6c-0.2,3.9-0.4,9.3-0.7,15.3c-0.2,3-0.3,5.8-0.5,8.4
		c-0.1,2.3-0.7,4.6-1.8,6.7c-0.7,1.4-1.8,2.6-3.2,3.4c-0.4,0.2-0.8,0.4-1.2,0.5c-0.1,0-0.3,0.1-0.4,0.1c0-0.1,0.6-0.2,1.5-0.8
		c1.3-0.9,2.3-2,3-3.4c1-2,1.5-4.3,1.6-6.5c0.2-2.6,0.3-5.4,0.4-8.4c0.3-6,0.6-11.4,0.8-15.3c0.1-1.9,0.2-3.4,0.3-4.6
		C111.5,183.3,111.6,182.8,111.7,182.2z"/>
	<path class="st7" d="M86,193.3c0.1,0.4,0.1,0.8,0,1.2c-0.1,1.1-0.3,2.1-0.6,3.1c-1.9,6.9-7.5,12.2-14.6,13.6
		c-1,0.2-2.1,0.3-3.1,0.3c-0.4,0-0.8,0-1.2-0.1c1.4-0.1,2.8-0.3,4.2-0.6c6.8-1.6,12.3-6.7,14.3-13.4C85.5,196.1,85.8,194.7,86,193.3
		z"/>
	<path class="st7" d="M133.7,212.1c0,0-0.3,0-0.8-0.2c-0.7-0.2-1.4-0.5-2-0.9c-1-0.5-1.9-1.1-2.7-1.8c-1-0.9-2-1.8-2.8-2.9
		c-0.8-1.1-1.5-2.2-2.1-3.5c-0.5-1-0.8-2-1.1-3.1c-0.2-0.7-0.3-1.4-0.3-2.2c0-0.3,0-0.5,0-0.8c0.1,0,0.2,1.1,0.7,2.9
		c0.3,1,0.7,2,1.1,3c0.6,1.2,1.3,2.3,2.1,3.3c0.8,1,1.7,2,2.7,2.9c0.8,0.7,1.7,1.3,2.6,1.9C132.6,211.7,133.7,212,133.7,212.1z"/>
	<path class="st7" d="M93.7,196.6c0,0,0,0.2,0,0.4s-0.1,0.8-0.2,1.3c-0.2,1.2-0.4,2.9-0.7,5c-0.6,4.4-1.6,10.7-2.8,18.5
		c-2.4,15.6-6.2,37.1-11,60.7s-10,44.8-13.9,60.1c-1.9,7.6-3.6,13.8-4.8,18.1c-0.6,2.1-1,3.8-1.3,4.9l-0.4,1.3
		c0,0.1-0.1,0.3-0.1,0.4c0,0,0-0.1,0.1-0.4s0.2-0.7,0.3-1.3c0.3-1.1,0.7-2.8,1.3-4.9c1.1-4.3,2.7-10.5,4.6-18.1
		c3.8-15.3,8.8-36.5,13.7-60.1s8.7-45.1,11.2-60.6c1.3-7.8,2.3-14.1,2.9-18.5c0.3-2.2,0.6-3.9,0.8-5l0.2-1.3
		C93.6,196.7,93.7,196.6,93.7,196.6z"/>
	<path class="st7" d="M112,371.6c0-0.1,0-0.3,0-0.4c0-0.3,0.1-0.7,0.1-1.2c0.1-1.1,0.2-2.7,0.4-4.8c0.4-4.2,0.9-10.1,1.6-17.5
		c1.3-14.8,3.4-35.3,5-57.9c0.8-11.3,1.3-22.1,1.5-31.9s0.2-18.7,0-26.1s-0.6-13.4-0.9-17.6c-0.1-2-0.3-3.6-0.4-4.8
		c0-0.5-0.1-0.9-0.1-1.2c0-0.1,0-0.3,0-0.4c0,0.1,0.1,0.3,0.1,0.4c0,0.3,0.1,0.7,0.1,1.2c0.1,1.1,0.3,2.7,0.4,4.8
		c0.4,4.1,0.8,10.1,1,17.6s0.4,16.3,0.1,26.1s-0.7,20.6-1.5,32c-1.6,22.6-3.7,43.1-5.1,57.9c-0.7,7.4-1.3,13.4-1.7,17.5
		c-0.2,2-0.4,3.6-0.5,4.8c-0.1,0.5-0.1,0.9-0.1,1.2C112.1,371.3,112,371.4,112,371.6z"/>
	<path class="st7" d="M125.6,369.2c0,0.1-7.9,1.1-17.7,2.2s-17.7,1.8-17.8,1.7s7.9-1.1,17.7-2.2S125.6,369.1,125.6,369.2z"/>
	<path class="st0" d="M95.9,58.5c-3,3.6-3.8,8.5-2.2,12.9c1.1,2.9,3.3,5.5,3.2,8.6c-0.2,3.8-4.1,6.8-3.9,10.6
		c0.2,4.3,5.8,7,5.8,11.4s-2.7,6.1-7.8,7c-3.3,0.6-5.1-3.5-6.8-6.4S82,96.3,81.7,93c-0.6-5.5-0.6-11.1-0.3-16.6
		c0.3-4.5,1-9.1,3.3-12.9c2.4-4,6.4-6.7,11-7.7"/>
	<path class="st0" d="M117.8,66.5c-1.6,2.5-6.9,1-10-0.8c-3.4,2.2-8,1.2-10.3-2.1c-1.8,2.3-5.5,1.5-6.8-1s-0.6-6.2,1.3-8.4
		c1.9-2.1,4.4-3.5,7.2-3.9c6.5-1.3,13.2,1.5,16.9,7C117.8,59.8,118.8,63.4,117.8,66.5"/>
	<path class="st7" d="M117.8,66c-0.1,0.1-1-1.6-3-3.8c-2.5-2.9-5.8-5.1-9.5-6.2c-3.7-1.1-7.7-0.8-11.2,0.9c-1.4,0.7-2.7,1.7-3.8,2.9
		c0,0,0-0.1,0.2-0.3c0.2-0.3,0.4-0.5,0.6-0.8c0.8-0.9,1.8-1.6,2.8-2.2c3.6-1.8,7.7-2.1,11.5-1c2.1,0.6,4,1.6,5.8,2.9
		c1.4,1,2.7,2.3,3.8,3.6c0.8,0.9,1.5,1.9,2.1,2.9C117.4,65.2,117.6,65.6,117.8,66z"/>
	<path class="st7" d="M102.3,67c-0.1,0-0.3-0.9-0.9-2.2c-0.8-1.7-2-3.2-3.6-4.3c-1.6-1.1-3.5-1.5-5.4-1.3c-0.8,0.1-1.5,0.4-2.3,0.6
		c0,0,0.2-0.2,0.5-0.4c0.5-0.3,1.1-0.5,1.7-0.6c2-0.4,4.1,0.1,5.8,1.2c1.6,1.1,2.9,2.8,3.6,4.6C102.1,65.4,102.2,66.2,102.3,67z"/>
	<path class="st3" d="M86.2,109.9c0,0-13.5,3.9-18.6,12.2S47,189,47,189l17.9,2l14.9-39l3.7,12.2l-2.3,12l45.7,2.1l3.2-52.6
		l48.8-23.8l5.5-5.7l-14.2-15l-5.4,5.1l-49,17.9c0,0,1.8,14.5-11.4,16.6S86.2,109.9,86.2,109.9z"/>
	<rect x="112.3" y="129.5" class="st8" width="10.9" height="2.8"/>
	<path class="st0" d="M74.7,134.7c0.1,0,2.2,6.4,4.6,14.4s4.2,14.4,4.1,14.5s-2.2-6.4-4.6-14.4S74.5,134.7,74.7,134.7z"/>
	<path class="st0" d="M138.7,114.3c-2,1.6-3.9,3.4-5.5,5.4c-1.5,2.1-2.7,4.4-3.6,6.8c0.1-0.8,0.3-1.5,0.6-2.2
		c1.3-3.5,3.6-6.5,6.6-8.8C137.4,115,138,114.6,138.7,114.3z"/>
	<g class="st12">
		<path d="M75.5,137.4c-1,4.9-1.6,10-1.6,15c0,1.2,0.1,2.5,0.4,3.7c0.3,1.2,1.1,2.2,2.2,2.9c1.3-1.9,2.8-4,3-6.4
			c0-1.7-0.2-3.3-0.8-4.9c-1-3.6-2.1-7.2-3.1-10.9"/>
	</g>
	<path class="st0" d="M87.5,107.1c2.4,1.7,3.2,4.9,3.1,7.9s-1,5.8-1.1,8.8s0.6,6.2,3,7.9l11.6-3.9c-2.3-1.3-2.8-4.4-2.3-7
		s1.7-5,1.8-7.7c0.4-6.9-4.6-12.8-6.9-15.6"/>
</g>
<g id="freepik--character-2--inject-14">
	<polygon class="st3" points="135.2,383.3 130.7,409.1 153,409.1 155.4,384.7 	"/>
	<path class="st0" d="M153.4,407c-1.1,0.2-2.2,0.2-3.2,0.2c-2,0-4.8,0-7.8-0.1l-7.8-0.3c-1.1,0-2.2-0.1-3.2-0.3
		c1.1-0.2,2.2-0.2,3.3-0.2c2,0,4.8,0,7.8,0.1l7.8,0.3C151.3,406.7,152.4,406.8,153.4,407z"/>
	<g class="st4">
		<polyline class="st5" points="130.7,409.1 153,409.1 153.2,407 131.1,406.4 130.7,408.8 		"/>
	</g>
	<path class="st0" d="M141.6,406.9c0.2-3.3,0.6-6.6,1.2-9.8c0.4-3.3,1-6.5,1.7-9.7c-0.2,3.3-0.6,6.6-1.2,9.8
		C142.9,400.5,142.3,403.7,141.6,406.9z"/>
	<path class="st0" d="M152.2,406.9c0.2-1.6,0.1-3.2-0.4-4.7c-0.5-1.6-1.5-3.1-2.8-4.1c-1.6-1.3-3.6-2-5.7-2c-2.1,0-4.1,0.6-5.8,1.9
		c-1.4,1.1-2.4,2.4-3.1,4c-0.6,1.5-1,3-1,4.6c0,0,0-0.1-0.1-0.3c0-0.3,0-0.7,0-1c0-1.2,0.3-2.4,0.7-3.5c0.7-1.6,1.8-3.1,3.1-4.2
		c1.7-1.3,3.9-2,6.1-2c4.1,0,7.7,2.6,8.9,6.6c0.4,1.1,0.5,2.3,0.3,3.5c0,0.3-0.1,0.6-0.2,1C152.3,406.8,152.2,406.9,152.2,406.9z"/>
	<path class="st3" d="M230.9,376.1l5.4,17.7c0,0,19.9,0.5,21.2,3.6l-34,11.7l-9.6-27.3L230.9,376.1z"/>
	<g class="st4">
		<path class="st5" d="M225.3,396c-0.6,0.4-0.8,1.3-0.4,1.9c0.4,0.6,1.2,0.8,1.9,0.4c0.6-0.5,0.8-1.3,0.4-2c-0.5-0.6-1.4-0.7-2-0.2"
			/>
	</g>
	<g class="st4">
		<path class="st5" d="M223.5,409.2l-0.9-2.8l32.9-10.2c0,0,1.7,0.1,1.9,1.3L223.5,409.2z"/>
	</g>
	<path class="st0" d="M236.9,393.5c0.1,0.2-0.8,0.5-1.4,1.4s-0.8,1.7-1,1.6s-0.3-1.1,0.5-2S236.8,393.3,236.9,393.5z"/>
	<path class="st0" d="M240.9,393.8c0.1,0.1-0.5,0.7-0.9,1.6s-0.2,1.7-0.4,1.8s-0.6-0.9-0.2-2S240.9,393.6,240.9,393.8z"/>
	<path class="st0" d="M244.4,397.3c-0.1,0.1-0.6-0.7-0.5-1.7s0.8-1.7,0.9-1.6s-0.2,0.8-0.3,1.6S244.6,397.3,244.4,397.3z"/>
	<path class="st0" d="M235.2,389.6c0,0.2-0.9,0.2-1.8,0.6s-1.6,0.9-1.7,0.8s0.4-1,1.4-1.4S235.2,389.4,235.2,389.6z"/>
	<g class="st6">
		<polygon points="232,379.6 233,382.8 216.2,388.4 215.2,385.6 		"/>
	</g>
	<path class="st0" d="M234,386c-0.5,0.3-1.1,0.5-1.7,0.6c-0.7,0.1-1.3,0.1-2,0.1c-0.4,0-0.8-0.1-1.2-0.2c-0.2,0-0.5-0.1-0.7-0.2
		c-0.3-0.2-0.5-0.5-0.4-0.9c0.1-0.3,0.3-0.5,0.6-0.6c0.2-0.1,0.4-0.1,0.7-0.1c0.4,0,0.8,0,1.2,0c0.7,0.1,1.3,0.2,1.9,0.5
		c1,0.5,1.5,1,1.5,1s-0.6-0.3-1.6-0.6c-0.6-0.2-1.2-0.3-1.8-0.3c-0.4,0-0.7,0-1.1,0c-0.4,0-0.7,0.1-0.7,0.3s0,0.1,0.1,0.2
		c0.2,0.1,0.3,0.1,0.5,0.2c0.4,0.1,0.7,0.2,1.1,0.2c0.6,0.1,1.2,0.1,1.9,0.1C232.8,386,233.4,386,234,386z"/>
	<path class="st0" d="M233.9,386.4c-0.1,0-0.6-0.4-1-1.5c-0.2-0.6-0.4-1.3-0.4-1.9c0-0.4,0-0.8,0.1-1.2c0-0.5,0.3-1,0.8-1.2
		c0.3-0.1,0.7,0,0.9,0.2c0.2,0.2,0.3,0.4,0.4,0.6c0.5,1,0.6,2.1,0.3,3.2c-0.4,1.1-1,1.5-1,1.5c0.2-0.5,0.4-1.1,0.6-1.6
		c0.1-0.6,0.1-1.2,0-1.8c-0.1-0.4-0.2-0.7-0.4-1c-0.2-0.3-0.4-0.6-0.5-0.5s-0.4,0.4-0.4,0.8c-0.1,0.4-0.1,0.7-0.1,1.1
		c0,0.6,0.1,1.2,0.3,1.8C233.6,385.7,234,386.3,233.9,386.4z"/>
	<path class="st13" d="M131.1,151.8l-6.4,13.2c-2.9,6-1.9,13.1,2.6,18l0,0c3.5,3.8,8.6,5.7,13.7,5.1l24.9-2.8v-14.8l-24.5,0.7
		l6.1-10.8L131.1,151.8z"/>
	<path class="st0" d="M162.7,104.9c-4.1-6.9-5.3-16.2-6.3-24.2c-0.5-3.8-1.4-9.1,1.3-11.5c2.8-2.5,3.1-6.4,6.4-8.4s7.7-2.1,10.8,0.1
		"/>
	<path class="st13" d="M174.1,129.5L174.1,129.5c6.1,0.5,11.5-4.1,12-10.2c0-0.1,0-0.3,0-0.4c0.3-6.1,0.5-12.2,0.5-12.2
		s9.2-0.8,9.9-9.9s0.4-30.1,0.4-30.1l0,0c-10.2-5.2-22.5-4.4-32,2l0.5,32l-0.1,17.2C165.4,123.6,168.3,129,174.1,129.5z"/>
	<path class="st0" d="M187.4,85.6c-1.6-1.9-4.1-2.7-6.2-1.4c-2.1,1.5-2.9,4.3-1.8,6.6c0.9,1.7,2.6,2.9,4.4,3.4
		c1.7,0.4,2.9,2,2.7,3.8c-0.3,2.3-4.1,3.1-5.8,5c-2.7,2.9-8.5,4.2-12.5,4.6s-3.4,0.5-5.6-2.7c-1.5-2.2-2.3-4.8-2.2-7.4l-0.4-20.1
		c-0.1-2.4,0-4.8,0.5-7.2c0.5-2.4,1.8-4.6,3.8-6c2.2-1.4,5-1.6,7.6-2.4c3.1-1,5.8-3.1,8.8-4.6s6.6-2.4,9.5-0.9
		c2.1,1.1,3.5,3.2,5.6,4.4c2.9,1.7,6.9,1.3,8.4,5.6c0.5,1.5,0.5,3.1-0.1,4.6c-2,5.9-9.3,8.2-14.6,5.7c-0.1,1,0.9,3.2-0.2,6.4
		C189.1,84,189,85.5,187.4,85.6"/>
	<path class="st2" d="M185.8,91.3c0,0,0,0.2-0.1,0.4c-0.2,0.3-0.6,0.5-1,0.5c-1.3-0.1-2.4-1.2-2.4-2.5c0-0.7,0.2-1.4,0.7-1.9
		c0.4-0.4,0.9-0.7,1.4-0.8c0.9-0.2,1.5,0.1,1.4,0.2s-0.6,0-1.3,0.2c-1,0.3-1.6,1.2-1.6,2.3c0,1,0.7,1.9,1.7,2.1
		C185.4,91.8,185.7,91.2,185.8,91.3z"/>
	<path class="st0" d="M163.4,70.4c5.4-2.3,7.9-8.6,5.5-14c-2.3-5.4-8.6-7.9-14-5.5c-4.8,2.1-7.3,7.3-6.1,12.3c0.2,0.6,0.2,1.3,0,1.9
		c-0.4,0.7-1.3,0.8-2,1c-2.6,1-2.9,4.9-1,6.9s5,2.3,7.7,1.6c-0.6,2.3,1.4,4.8,3.9,5.1c2.5,0.1,4.8-1.1,6.1-3.2
		c1.2-2.1,1.9-4.5,2.1-6.9"/>
	<path class="st14" d="M169.6,59.4c0,0.3,0,0.6,0,0.9c0,0.8-0.2,1.7-0.4,2.5c-1.3,5.6-5.6,10-11.2,11.3c-0.8,0.2-1.7,0.3-2.5,0.4
		c-0.3,0.1-0.6,0.1-0.9,0c0-0.1,1.3-0.1,3.4-0.7c5.4-1.5,9.5-5.7,11-11.1C169.5,60.7,169.5,59.3,169.6,59.4z"/>
	<path class="st7" d="M159.5,50.9c0,0,0.1-0.1,0.3-0.1c0.3-0.1,0.6-0.1,0.8-0.1c1,0,2.1,0.4,2.9,1.1c0.6,0.4,1,1,1.4,1.6
		c0.4,0.7,0.7,1.5,0.9,2.3c0.3,1.8,0.2,3.7-0.2,5.6c-0.7,3.3-2.2,6.4-4.3,9c-0.6,0.8-1.3,1.5-2,2.2c-0.3,0.3-0.5,0.5-0.9,0.7
		c-0.1-0.1,1.1-1.1,2.6-3.2c1.9-2.7,3.3-5.7,4.1-8.9c0.4-1.7,0.5-3.6,0.3-5.3c-0.1-0.8-0.4-1.5-0.8-2.2c-0.3-0.6-0.8-1.1-1.3-1.5
		c-0.8-0.6-1.7-1-2.7-1.1C159.9,50.9,159.5,51,159.5,50.9z"/>
	<path class="st7" d="M148.4,65.4c0,0,0.1-0.3,0.3-0.7c0.4-0.6,0.8-1.1,1.3-1.6c3.3-3.4,8.4-4.2,12.6-2c0.6,0.3,1.2,0.7,1.7,1.1
		c0.4,0.3,0.5,0.5,0.5,0.5s-0.9-0.6-2.4-1.3c-4.1-1.9-8.9-1.1-12.2,2C149,64.6,148.5,65.5,148.4,65.4z"/>
	<path class="st7" d="M166.3,69c0.1-0.1,1.2,0.9,3.2,2.2c2.6,1.7,5.3,3.2,8.1,4.5c1.6,0.7,3.2,1.3,4.8,1.8c1.3,0.5,2.6,0.8,4,0.9
		c0.9,0,1.8-0.2,2.6-0.7c0.6-0.3,0.8-0.7,0.8-0.6s-0.1,0.4-0.7,0.8c-0.8,0.6-1.8,0.9-2.7,0.9c-1.4-0.1-2.8-0.3-4.2-0.8
		c-4.7-1.4-9.1-3.5-13-6.4c-1-0.7-1.7-1.3-2.2-1.8C166.8,69.5,166.5,69.3,166.3,69z"/>
	<path class="st0" d="M163.6,57.5c-0.1-0.4-0.1-0.8-0.1-1.3c0-1.2,0.2-2.3,0.6-3.4c0.6-1.7,1.8-3,3.4-3.8c0.9-0.5,2-0.7,3.1-0.6
		c1.1,0.1,2.2,0.7,3,1.5c0.8,0.8,1.4,1.8,1.7,2.9c0.3,1,0.3,2,0.2,3.1c-0.2,1.7-0.8,3.4-1.7,4.8c-0.6,1-1.3,1.9-2,2.8
		c-0.2,0.4-0.5,0.7-0.8,1c0.2-0.4,0.4-0.7,0.7-1.1c0.4-0.7,1.1-1.6,1.8-2.9c0.8-1.5,1.4-3.1,1.6-4.7c0.1-1,0-2-0.2-2.9
		c-0.3-1-0.8-1.9-1.6-2.6c-0.7-0.7-1.7-1.2-2.7-1.3c-1-0.1-1.9,0.1-2.8,0.5c-1.5,0.7-2.7,2-3.3,3.5c-0.4,1.1-0.7,2.2-0.8,3.3
		C163.7,56.7,163.6,57.1,163.6,57.5z"/>
	<path class="st13" d="M267.4,36.4c-1.5-0.8-5.8,7.2-5.8,5s6.3-9.1,4.8-9.8c-2.1-0.9-6.4,7.4-6.8,8.1s-1.4,0.1-1-0.5
		c0.6-0.9,6.5-10,4.5-11c-1.1-0.5-1.9,1.6-1.9,1.6s-5,9-5.9,8.5s1.8-5.8,2.8-7.6s0.6-2.9-0.5-2.8c-0.8,0.1-4.1,5.4-5.1,7.1
		s-3.6,6.6-4.3,3.2s-2.4-5.9-3.4-6.2c-0.6-0.1-1.2,0.3-1.3,0.9c-0.1,0.3,0,0.7,0.2,0.9c0.6,1,1,2.1,1.3,3.3c0.3,0.9,0.4,1.9,0.3,2.8
		c-0.1,1.1-0.2,2-0.3,2.8l-1.9,4.1c0,0-14.1,32.2-16.5,36.8s-22,24.9-22,24.9l4.1,23.7L240.5,98l16.8-47.2l0.4-1.2
		c0,0,6-6.4,7.5-8.4C268.3,37,267.9,36.7,267.4,36.4z"/>
	<path class="st7" d="M150.1,195.6c0,0-10,22.6-12.1,45l-10.6,143.7l35.3,3.7L173,239.1c0,0,32.4,150.3,33.6,150.3
		s28.4-10.1,28.4-10.1l-31.9-182.9L150.1,195.6z"/>
	<path class="st0" d="M188,242.7c0,0.2-7.2-1.4-16-3.6s-15.9-4-15.8-4.2s7.2,1.4,16,3.6S188,242.5,188,242.7z"/>
	<path class="st8" d="M164.7,356.9c0,0-0.1,0-0.4,0.1c-0.4,0.1-0.7,0.1-1.1,0.1c-1.3,0-2.6,0-3.9-0.2c-1.9-0.3-3.8-0.8-5.7-1.4
		c-2.1-0.7-4.4-1.5-6.8-2.3c-2.2-0.8-4.5-1.3-6.9-1.6c-1.9-0.3-3.8-0.3-5.8,0c-1.8,0.3-3.5,0.8-5.1,1.6c0.1-0.1,0.2-0.2,0.3-0.2
		c0.3-0.2,0.6-0.4,0.9-0.5c1.2-0.6,2.5-1,3.8-1.2c1.9-0.3,3.9-0.3,5.9-0.1c2.4,0.3,4.7,0.9,7,1.6l6.8,2.3c1.8,0.6,3.7,1.1,5.6,1.5
		C161.2,356.8,163,356.9,164.7,356.9z"/>
	<path class="st8" d="M164.9,344.8c-0.5,0-1,0-1.4,0c-1.3,0-2.6,0-3.9,0.1c-3.3,0.2-7.8,1.3-12.7,2.3c-2.3,0.5-4.7,0.8-7.1,0.9
		c-2,0.1-3.9,0-5.9-0.4c-1.3-0.3-2.6-0.7-3.8-1.2c-0.3-0.2-0.6-0.3-0.9-0.5c-0.1-0.1-0.2-0.1-0.3-0.2c1.6,0.7,3.4,1.2,5.1,1.5
		c3.2,0.6,7.9,0.4,12.8-0.7s9.4-2,12.8-2.2c1.3-0.1,2.6-0.1,3.9,0C163.9,344.6,164.4,344.7,164.9,344.8z"/>
	<path class="st8" d="M227.8,330.8c0,0.1-0.1,0.2-0.2,0.3c-0.2,0.3-0.4,0.6-0.7,0.8c-1,0.9-2.1,1.6-3.4,2c-1.9,0.6-3.9,0.8-5.8,0.6
		c-2.2-0.2-4.6-0.7-7-1.1c-2.3-0.4-4.7-0.5-7-0.2c-1.9,0.2-3.8,0.7-5.5,1.5c-1.6,0.7-3.2,1.5-4.7,2.5c0,0,0.1-0.1,0.3-0.3
		s0.5-0.4,0.9-0.6c1.1-0.8,2.2-1.4,3.4-1.9c1.8-0.8,3.7-1.3,5.6-1.6c2.4-0.3,4.8-0.3,7.1,0.1c2.5,0.4,4.8,1,7,1.1
		c1.9,0.2,3.8,0,5.7-0.5c1.2-0.4,2.4-1,3.4-1.8C227.4,331.1,227.7,330.7,227.8,330.8z"/>
	<path class="st8" d="M233.1,357.2c-0.3,0.4-0.6,0.8-0.9,1.1c-0.9,1-1.9,1.8-2.9,2.6c-3.5,2.6-7.5,4.4-11.8,5.2
		c-4.3,0.8-8.7,0.5-12.9-0.7c-1.3-0.4-2.5-0.8-3.7-1.4c-0.4-0.2-0.9-0.4-1.3-0.7c0.5,0.1,0.9,0.3,1.3,0.5c1.2,0.5,2.4,0.9,3.7,1.2
		c4.1,1.1,8.5,1.3,12.7,0.5c4.2-0.8,8.2-2.5,11.7-4.9C231.7,358.7,233,357.1,233.1,357.2z"/>
	<path class="st8" d="M224.3,319.7c0,0-0.5,0-1.4,0c-1.3,0.1-2.5,0.3-3.7,0.9c-1.7,0.8-3.3,1.8-4.8,3c-1.7,1.3-3.4,3-5.4,4.4
		c-1.9,1.4-4.1,2.3-6.5,2.7c-1.9,0.3-3.8,0.3-5.7,0c-1.6-0.2-2.9-0.5-3.8-0.7c-0.5-0.1-0.9-0.2-1.4-0.4c0.5,0,0.9,0.1,1.4,0.2
		c0.9,0.1,2.2,0.3,3.8,0.5c1.9,0.2,3.7,0.2,5.6-0.1c2.3-0.4,4.4-1.3,6.3-2.6c2-1.4,3.7-3,5.4-4.3c1.5-1.2,3.1-2.2,4.9-2.9
		c1.2-0.5,2.5-0.7,3.8-0.7c0.3,0,0.7,0.1,1,0.1C224.1,319.7,224.2,319.7,224.3,319.7z"/>
	<path class="st8" d="M167.9,314c0,0-0.1,0.1-0.3,0.2c-0.3,0.2-0.7,0.4-1,0.5c-1.3,0.5-2.6,0.9-3.9,1c-2,0.2-4,0.1-6-0.3
		c-2.4-0.4-4.8-1.1-7.1-1.8c-2.3-0.8-4.7-1.4-7.1-1.9c-1.9-0.4-3.9-0.5-5.9-0.4c-1.8,0.2-3.6,0.6-5.3,1.3c0.1-0.1,0.2-0.2,0.3-0.2
		c0.3-0.2,0.7-0.4,1-0.5c1.3-0.5,2.6-0.9,3.9-1c2-0.2,4-0.1,6,0.3c2.4,0.5,4.8,1.1,7.1,1.8c2.3,0.8,4.6,1.4,7,1.8
		c1.9,0.4,3.9,0.5,5.9,0.4C164.4,315.2,166.2,314.7,167.9,314z"/>
	<path class="st8" d="M219.6,289.4c0,0,0,0.1-0.1,0.4c-0.1,0.3-0.3,0.7-0.4,1c-0.6,1.2-1.5,2.3-2.5,3.2c-1.5,1.4-3.3,2.4-5.2,3.1
		c-2.3,0.8-4.7,1.4-7.2,1.7c-2.6,0.3-5.1,0.6-7.3,0.9c-2,0.2-3.9,0.6-5.9,1c-1.3,0.4-2.5,1-3.5,1.8c-0.4,0.4-0.7,0.7-1.1,1
		c0.1-0.1,0.1-0.2,0.2-0.3c0.2-0.3,0.5-0.6,0.8-0.8c1-0.9,2.2-1.6,3.5-2c1.9-0.5,3.9-0.9,5.9-1.2c2.2-0.4,4.7-0.6,7.3-1
		c2.4-0.3,4.8-0.8,7.1-1.6c1.9-0.7,3.6-1.7,5.1-3C217.7,292.5,218.8,291.1,219.6,289.4z"/>
	<path class="st8" d="M133.4,286.5c1.5,1,3.2,1.8,5,2.3c1.9,0.6,3.9,0.7,5.9,0.5c2.4-0.3,4.8-1.1,6.9-2.4c2.3-1.2,4.4-2.6,6.6-3.5
		c1.9-0.9,3.9-1.4,5.9-1.5c1.4-0.1,2.8,0.2,4.1,0.7c0.4,0.2,0.7,0.3,1,0.6c0.1,0.1,0.2,0.1,0.3,0.2c0,0-0.5-0.3-1.4-0.6
		c-1.3-0.5-2.6-0.6-4-0.5c-2,0.2-3.9,0.7-5.8,1.6c-2.1,1-4.2,2.3-6.5,3.6c-2.2,1.3-4.6,2.1-7.1,2.4c-2,0.2-4.1,0-6.1-0.6
		c-1.3-0.4-2.6-1-3.7-1.8c-0.3-0.2-0.6-0.4-0.9-0.7C133.5,286.6,133.4,286.5,133.4,286.5z"/>
	<path class="st8" d="M213.9,260.2c-0.2,0.4-0.5,0.9-0.8,1.3c-0.8,1.1-1.7,2.1-2.7,3c-3.3,3-7.5,5-11.9,5.7c-2.4,0.3-4.9,0.3-7.3,0
		c-2-0.2-3.9-0.2-5.9,0.1c-1.3,0.2-2.6,0.6-3.7,1.3c-0.8,0.5-1.2,0.9-1.2,0.9s0.1-0.1,0.2-0.3c0.3-0.3,0.5-0.5,0.9-0.7
		c1.1-0.8,2.4-1.3,3.8-1.5c2-0.3,4-0.4,6-0.2c2.4,0.3,4.8,0.2,7.2-0.1c4.4-0.7,8.4-2.6,11.8-5.5C211.6,263,212.8,261.6,213.9,260.2z
		"/>
	<path class="st8" d="M169.3,257.7c-1.6-0.6-3.3-0.9-5.1-1c-1.9,0-3.7,0.3-5.5,0.9c-1,0.4-2,0.9-3.1,1.4c-0.6,0.2-1.2,0.4-1.8,0.5
		c-0.6,0.1-1.3,0-1.9-0.3c-1.1-0.5-2.2-1.1-3.2-1.8c-0.9-0.6-1.9-1-3-1.4c-1.8-0.6-3.6-0.8-5.5-0.7c-1.7,0.2-3.4,0.5-5,1.1
		c0,0,0.1-0.1,0.3-0.2c0.3-0.2,0.7-0.3,1-0.4c1.2-0.5,2.5-0.7,3.8-0.9c1.9-0.2,3.8,0.1,5.7,0.6c1.1,0.3,2.1,0.8,3.1,1.4
		c1,0.7,2,1.3,3.1,1.8c1.1,0.4,2.3,0.3,3.3-0.2c1.1-0.4,2-1,3.1-1.3c1.8-0.6,3.7-0.9,5.6-0.8c1.3,0.1,2.6,0.3,3.8,0.7
		c0.3,0.1,0.7,0.2,1,0.4C169.2,257.6,169.3,257.7,169.3,257.7z"/>
	<path class="st8" d="M213.9,254.1c-0.3,0.4-0.7,0.8-1.1,1.1c-1,1-2.1,1.9-3.2,2.7c-0.7,0.5-1.5,1.1-2.4,1.6
		c-0.4,0.3-0.9,0.6-1.4,0.8l-1.5,0.8c-2.3,1.1-4.7,2-7.2,2.6c-2.5,0.6-5,0.9-7.6,0.9l-1.7,0c-0.6,0-1.1-0.1-1.6-0.1
		c-1.1-0.1-2-0.3-2.9-0.4c-1.4-0.2-2.7-0.6-4.1-1c-0.5-0.1-1-0.3-1.4-0.5c0-0.1,2.1,0.6,5.6,1.2c0.9,0.1,1.8,0.3,2.9,0.4
		c0.5,0,1,0.1,1.6,0.1h1.7c2.5,0,5-0.3,7.5-0.9c2.4-0.6,4.8-1.5,7.1-2.5l1.5-0.8c0.5-0.3,0.9-0.5,1.4-0.8c0.9-0.5,1.7-1.1,2.4-1.5
		c1.4-1,2.6-1.9,3.3-2.5C213.1,254.7,213.5,254.4,213.9,254.1z"/>
	<path class="st8" d="M207.9,225.5c-0.2,0.2-0.4,0.3-0.6,0.4l-1.9,1c-1.7,0.9-4.1,2.1-7.2,3.5c-3.7,1.6-7.5,2.7-11.5,3.2
		c-2.3,0.3-4.7,0.2-7.1-0.1c-2.5-0.4-4.9-1.1-7.3-2c-4.9-1.8-9.3-3.9-13.6-5c-3.8-1-7.8-1.3-11.7-0.9c-2.6,0.3-5.3,0.8-7.8,1.7
		c-0.9,0.3-1.6,0.6-2,0.8c-0.2,0.1-0.5,0.2-0.7,0.3c0.2-0.1,0.4-0.2,0.6-0.3c0.4-0.2,1.1-0.5,2-0.9c2.5-1,5.1-1.6,7.8-1.9
		c4-0.5,8-0.2,11.9,0.8c4.4,1.1,8.9,3.2,13.7,5c2.3,0.9,4.8,1.5,7.2,2c2.3,0.4,4.6,0.4,6.9,0.2c3.9-0.5,7.7-1.5,11.4-3
		c3.1-1.3,5.6-2.5,7.3-3.3l2-1C207.4,225.7,207.6,225.6,207.9,225.5z"/>
	<path class="st8" d="M205.8,210.6c-0.6-0.7-1.2-1.2-1.9-1.8c-2-1.2-4.3-1.8-6.7-1.8c-1.6,0-3.2,0.3-4.7,0.8
		c-1.6,0.6-3.4,1.3-5.2,2.2c-3.9,1.9-7.9,3.5-12.1,4.6c-10,2.5-20.6,1.5-30-2.7c-0.8-0.4-1.3-0.7-1.7-0.9c-0.2-0.1-0.4-0.2-0.6-0.3
		c0.2,0.1,0.4,0.1,0.6,0.2l1.8,0.8c2.2,0.9,4.4,1.6,6.7,2.3c3.4,0.9,6.9,1.4,10.4,1.5c4.3,0.1,8.6-0.3,12.7-1.3
		c4.1-1.1,8.2-2.6,12-4.5c1.8-0.8,3.6-1.6,5.2-2.1c1.6-0.6,3.2-0.8,4.9-0.8c2.4,0,4.8,0.7,6.8,2c0.5,0.4,1,0.8,1.4,1.3
		C205.6,210.2,205.7,210.4,205.8,210.6z"/>
	<path class="st3" d="M225.9,117.8l-14.1-18.5l-0.6,0.4l-22.4,14.1l-23.9,0.8c0,0-16.8,0-23.1,13.2c-0.7,1.4-14.5,29-14.5,29
		l21.3,7.8l3.4-9.8l4.4,22.3l-6.3,18.4l53.4,2.9l-4.5-26.7l4-32L225.9,117.8z"/>
	<path class="st0" d="M188.8,160.9c0.1,0.5,0.1,1,0,1.5c-0.1,1.4-0.5,2.8-1,4.1c-1.8,4.3-5.1,7.9-9.3,10c-4.2,2-8.8,3-13.5,2.7
		c-1.4,0-2.8-0.2-4.2-0.4c-0.5-0.1-1-0.2-1.5-0.4c0-0.1,2.2,0.3,5.7,0.3c4.6,0.1,9.1-0.9,13.2-2.8c4.1-2.1,7.3-5.4,9.2-9.6
		C188,164.6,188.5,162.7,188.8,160.9z"/>
	<path class="st0" d="M156.7,178.2c-0.2,0-2.7-11.6-5.7-25.9s-5.3-26-5.1-26s2.7,11.6,5.7,25.9S156.8,178.2,156.7,178.2z"/>
	<g class="st12">
		<path d="M163.2,179.1c-0.6-2.1,1.1-4.3,3-5.2s4.2-1.1,6.3-1.6c4.1-1,7.8-3.4,10.3-6.9c0.3-0.5,0.7-1,1.3-1c0.6,0,1.1,0.4,1.2,1
			c0.2,0.6,0.2,1.3,0.1,2c-1,5.1-5.1,7.3-9.4,9.5S168.5,179.6,163.2,179.1"/>
	</g>
</g>
</svg>
